<?xml version="1.0" encoding="UTF-8"?>
<svg id="Layer_1" data-name="Layer 1" xmlns="http://www.w3.org/2000/svg" xmlns:xlink="http://www.w3.org/1999/xlink" viewBox="0 0 1417.32 1417.32">
  <defs>
    <style>
      .cls-1 {
        fill: none;
      }

      .cls-1, .cls-2, .cls-3, .cls-4 {
        stroke-width: 0px;
      }

      .cls-2 {
        fill: #e9b96b;
      }

      .cls-3, .cls-4 {
        fill: #fff;
      }

      .cls-4 {
        fill-rule: evenodd;
      }

      .cls-5 {
        clip-path: url(#clippath);
      }
    </style>
    <clipPath id="clippath">
      <rect class="cls-1" y="0" width="1417.32" height="1417.32"/>
    </clipPath>
  </defs>
  <g class="cls-5">
    <path class="cls-2" d="m818.43,340.28c-4.1-1.51-10.96.42-12.96.2-6.03-.64-6.95-4.78-10.21-5.92-.11-.04-.24-.09-.4-.12l-.11-2.12-.6,2c-.78-.05-1.53.12-2.11.69l-4.51-2.26,3.86,3.28s-.02.06-.05.1c-.27.78.31,1,.09,2.86-.67,5.43,3.37,2.38,4.02-1.52.51,1.81-.93,4.42-1.07,5.05-.58,2.68.49,5.56,2.15,6.64-1.22,1.42-2.79,6.07-3.39,8.3l3.04-.08c0-2.73,1.82-6.19,3.51-8.37.91,1.93,5.11,6.16,3.62,7.65-.29.29,0,.8,0,1.22.55,0,1.13-.5,1.86-.5,1,0,.58-.94.58-1.51,0-2.15-2-5.17-3.4-6.86,1.8.51,3.13.36,4.75.07,0,.85-.27,1.71-.07,2.53l.93-.15c0-.72-.07-1.8.29-2.17.8-.79,1.46-.5,2.53-.5,0,.72-.22,1.59-.22,2.31,0,.87-.07,2.02-.36,2.66-.64,1.38-1.8,1.94-2.02,3.54.71,0,1.29.07,2.02.07.07-.07.22-1.19.51-1.59.71-1.1,1.86-1.29,2.73-2.52.4-.6,1.07-2.53,1.07-3.25.84.84,3.68,3.9,4.04,4.61.51,1.04-.87,2.02-.87,2.96h2.73c.22-.51.06-2.82-.14-3.25-.4-.8-.67-1.6-.89-2.49.73-1.38,1.64-3.35,1.71-4.93.07-2.08-.64-6.13-2.69-6.64m.93,11.39c-.22-.96-.38-1.99-.56-3.2.29-1.71,1.62-3.04-.09-6.71,1.38.14,2.06,5.77.65,9.91"/>
    <path class="cls-2" d="m791,301.14c.89-.06,1.78-.31,2.91.25,1.55.78,3.33,4.21,2.99,6.3-.71,2.47.27,3.81,1.31,4.86-.84,2.43-1.57,5.29-1.89,6.7-.49,0-1.84.29-2.17.62-.11.11-.11.22-.11.39,0,.27.11.38.4.44.22.04.76.04,1.09.04h2.17c0-2.11,1.73-5.75,3.04-7.22.67,1.83,2.44,4.49,3.02,5.4-.73.22-1.27.31-1.64.51-.73.38-.09.84.2.86.51.03.64.01,1.22.01.97,0,1.35.05,2.24-.03-.2-.83-.53-1.36-.91-2.44-.56-1.53-1.37-3.48-1.95-5.07,3.73.61,7.19-.06,7.94-.33.64,2.21-.44,4.76-1.42,6.71h-2.08c-.31,0-.56.25-.56.57s.24.56.56.56h5.19c.31,0,.55-.25.55-.56s-.24-.57-.55-.57h-1.64c.51-1.38,2.31-2.59,2.77-5.79,1,2,1.31,1.27,2.62,2.57.69.68,1.29,2.11,1.42,3.31h-2.42c-.36,0-.64.25-.64.56s.29.56.64.56h5.73c.33,0,.62-.24.62-.56s-.29-.56-.62-.56h-1.89c-.82-3.17-.84-4.36-2.53-5.92.38-3.13-.15-4.84-1.22-5.24,1.36-1.65,3.33-6.18,4.37-9.82.29-.94,1.82-1.28,2.95.44,0-1.04-.97-2.31-2.24-2.31-2.38,0-2.22,2.75-3.2,4.75-1.18,2.36-2.04,6.33-6.52,6.38l-7.84.09c-1.82,0-5.53-4.43-6.53-5.98-1.09-1.71-1.97-2.41-2.82-2.58l-.4-1.84-.07,1.8c-.65,0-1.29.26-2.02.55l-.65-2.92-.11,3.2c-1.56.6-1.91.69-4.33,1.45-.6.18,3.04-.01,4.99-.14"/>
    <path class="cls-2" d="m818.43,428.19c-4.1-1.51-10.96.41-12.96.2-6.03-.64-6.95-4.78-10.21-5.92-.11-.04-.24-.09-.4-.12l-.11-2.13-.6,2.01c-.78-.05-1.53.11-2.11.68l-4.51-2.25,3.86,3.28s-.02.07-.05.1c-.27.78.31,1,.09,2.86-.67,5.43,3.37,2.38,4.02-1.52.51,1.8-.93,4.41-1.07,5.05-.58,2.67.49,5.55,2.15,6.64-1.22,1.41-2.79,6.07-3.39,8.29l3.04-.07c0-2.73,1.82-6.19,3.51-8.37.91,1.93,5.11,6.15,3.62,7.65-.29.29,0,.79,0,1.22.55,0,1.13-.5,1.86-.5,1,0,.58-.94.58-1.52,0-2.14-2-5.16-3.4-6.85,1.8.51,3.13.36,4.75.07,0,.85-.27,1.71-.07,2.53l.93-.15c0-.72-.07-1.8.29-2.16.8-.79,1.46-.51,2.53-.51,0,.73-.22,1.59-.22,2.31,0,.86-.07,2.03-.36,2.67-.64,1.38-1.8,1.94-2.02,3.53.71,0,1.29.08,2.02.08.07-.08.22-1.19.51-1.59.71-1.1,1.86-1.3,2.73-2.53.4-.59,1.07-2.52,1.07-3.24.84.84,3.68,3.9,4.04,4.61.51,1.04-.87,2.02-.87,2.95h2.73c.22-.5.06-2.8-.14-3.24-.4-.8-.67-1.61-.89-2.49.73-1.38,1.64-3.35,1.71-4.93.07-2.09-.64-6.13-2.69-6.64m.93,11.39c-.22-.96-.38-2-.56-3.21.29-1.7,1.62-3.03-.09-6.7,1.38.14,2.06,5.77.65,9.91"/>
    <path class="cls-2" d="m791,389.05c.89-.06,1.78-.31,2.91.25,1.55.78,3.33,4.2,2.99,6.29-.71,2.48.27,3.82,1.31,4.87-.84,2.43-1.57,5.29-1.89,6.7-.49,0-1.84.29-2.17.62-.11.11-.11.22-.11.39,0,.27.11.38.4.43.22.05.76.05,1.09.05h2.17c0-2.11,1.73-5.75,3.04-7.22.67,1.83,2.44,4.49,3.02,5.4-.73.22-1.27.31-1.64.51-.73.38-.09.84.2.86.51.02.64,0,1.22,0,.97,0,1.35.06,2.24-.02-.2-.83-.53-1.36-.91-2.44-.56-1.53-1.37-3.49-1.95-5.07,3.73.61,7.19-.06,7.94-.34.64,2.21-.44,4.75-1.42,6.72h-2.08c-.31,0-.56.25-.56.57s.24.56.56.56h5.19c.31,0,.55-.25.55-.56s-.24-.57-.55-.57h-1.64c.51-1.38,2.31-2.59,2.77-5.79,1,1.99,1.31,1.27,2.62,2.56.69.69,1.29,2.11,1.42,3.31h-2.42c-.36,0-.64.25-.64.56h0c0,.31.29.57.64.57h5.73c.33,0,.62-.25.62-.55h0c0-.32-.29-.57-.62-.57h-1.89c-.82-3.16-.84-4.35-2.53-5.92.38-3.14-.15-4.84-1.22-5.24,1.36-1.65,3.33-6.18,4.37-9.82.29-.94,1.82-1.27,2.95.44,0-1.04-.97-2.31-2.24-2.31-2.38,0-2.22,2.75-3.2,4.74-1.18,2.36-2.04,6.35-6.52,6.39l-7.84.09c-1.82.01-5.53-4.44-6.53-5.98-1.09-1.71-1.97-2.41-2.82-2.58l-.4-1.84-.07,1.8c-.65,0-1.29.26-2.02.54l-.65-2.91-.11,3.2c-1.56.6-1.91.69-4.33,1.45-.6.18,3.04-.01,4.99-.14"/>
    <path class="cls-2" d="m818.43,519.39c-4.1-1.51-10.96.4-12.96.2-6.03-.64-6.95-4.79-10.21-5.93-.11-.04-.24-.09-.4-.12l-.11-2.13-.6,2.01c-.78-.06-1.53.11-2.11.68l-4.51-2.25,3.86,3.27s-.02.07-.05.1c-.27.78.31.98.09,2.85-.67,5.44,3.37,2.4,4.02-1.51.51,1.8-.93,4.41-1.07,5.06-.58,2.66.49,5.55,2.15,6.64-1.22,1.4-2.79,6.06-3.39,8.27l3.04-.06c0-2.73,1.82-6.19,3.51-8.37.91,1.93,5.11,6.15,3.62,7.66-.29.29,0,.77,0,1.22.55,0,1.13-.51,1.86-.51,1,0,.58-.93.58-1.51,0-2.15-2-5.17-3.4-6.86,1.8.51,3.13.36,4.75.07,0,.87-.27,1.71-.07,2.53l.93-.13c0-.73-.07-1.8.29-2.18.8-.78,1.46-.51,2.53-.51,0,.73-.22,1.6-.22,2.31,0,.87-.07,2.04-.36,2.69-.64,1.38-1.8,1.93-2.02,3.53.71,0,1.29.07,2.02.07.07-.07.22-1.18.51-1.58.71-1.11,1.86-1.31,2.73-2.53.4-.6,1.07-2.53,1.07-3.24.84.82,3.68,3.9,4.04,4.61.51,1.02-.87,2.02-.87,2.95h2.73c.22-.51.06-2.82-.14-3.24-.4-.8-.67-1.62-.89-2.49.73-1.38,1.64-3.35,1.71-4.93.07-2.09-.64-6.13-2.69-6.64m.93,11.38c-.22-.95-.38-2-.56-3.22.29-1.68,1.62-3.02-.09-6.7,1.38.15,2.06,5.77.65,9.92"/>
    <path class="cls-2" d="m791,480.25c.89-.06,1.78-.31,2.91.26,1.55.78,3.33,4.2,2.99,6.29-.71,2.49.27,3.81,1.31,4.87-.84,2.43-1.57,5.29-1.89,6.7-.49,0-1.84.29-2.17.62-.11.11-.11.21-.11.38,0,.28.11.39.4.45.22.05.76.05,1.09.05h2.17c0-2.11,1.73-5.75,3.04-7.23.67,1.83,2.44,4.49,3.02,5.41-.73.21-1.27.31-1.64.51-.73.38-.09.84.2.85.51.02.64,0,1.22,0,.97,0,1.35.07,2.24-.03-.2-.82-.53-1.35-.91-2.43-.56-1.53-1.37-3.49-1.95-5.07,3.73.61,7.19-.06,7.94-.33.64,2.21-.44,4.75-1.42,6.71h-2.08c-.31,0-.56.26-.56.57s.24.57.56.57h5.19c.31,0,.55-.25.55-.57s-.24-.57-.55-.57h-1.64c.51-1.37,2.31-2.59,2.77-5.79,1,1.99,1.31,1.27,2.62,2.56.69.69,1.29,2.11,1.42,3.31h-2.42c-.36,0-.64.26-.64.57s.29.57.64.57h5.73c.33,0,.62-.25.62-.57s-.29-.57-.62-.57h-1.89c-.82-3.16-.84-4.35-2.53-5.91.38-3.14-.15-4.84-1.22-5.24,1.36-1.65,3.33-6.18,4.37-9.82.29-.94,1.82-1.29,2.95.44,0-1.04-.97-2.31-2.24-2.31-2.38,0-2.22,2.75-3.2,4.74-1.18,2.36-2.04,6.35-6.52,6.39l-7.84.09c-1.82.01-5.53-4.44-6.53-5.98-1.09-1.71-1.97-2.41-2.82-2.59l-.4-1.84-.07,1.8c-.65,0-1.29.26-2.02.54l-.65-2.91-.11,3.19c-1.56.6-1.91.69-4.33,1.45-.6.18,3.04-.01,4.99-.15"/>
    <path class="cls-2" d="m818.43,613.86c-4.1-1.51-10.96.42-12.96.2-6.03-.64-6.95-4.77-10.21-5.93-.11-.04-.24-.09-.4-.11l-.11-2.13-.6,2c-.78-.04-1.53.11-2.11.69l-4.51-2.27,3.86,3.28s-.02.04-.05.09c-.27.78.31,1,.09,2.86-.67,5.44,3.37,2.37,4.02-1.51.51,1.8-.93,4.41-1.07,5.04-.58,2.66.49,5.55,2.15,6.63-1.22,1.42-2.79,6.08-3.39,8.3l3.04-.07c0-2.73,1.82-6.19,3.51-8.37.91,1.93,5.11,6.15,3.62,7.63-.29.29,0,.8,0,1.22.55,0,1.13-.49,1.86-.49,1,0,.58-.95.58-1.53,0-2.15-2-5.17-3.4-6.83,1.8.49,3.13.35,4.75.07,0,.84-.27,1.71-.07,2.53l.93-.16c0-.71-.07-1.8.29-2.15.8-.8,1.46-.51,2.53-.51,0,.71-.22,1.57-.22,2.31,0,.86-.07,2.02-.36,2.66-.64,1.38-1.8,1.95-2.02,3.53.71,0,1.29.09,2.02.09.07-.09.22-1.2.51-1.6.71-1.09,1.86-1.29,2.73-2.53.4-.58,1.07-2.51,1.07-3.24.84.84,3.68,3.91,4.04,4.61.51,1.05-.87,2.02-.87,2.95h2.73c.22-.49.06-2.8-.14-3.24-.4-.8-.67-1.6-.89-2.49.73-1.37,1.64-3.35,1.71-4.93.07-2.09-.64-6.12-2.69-6.63m.93,11.38c-.22-.95-.38-2-.56-3.2.29-1.71,1.62-3.04-.09-6.7,1.38.13,2.06,5.77.65,9.9"/>
    <path class="cls-2" d="m791,574.73c.89-.07,1.78-.31,2.91.24,1.55.78,3.33,4.19,2.99,6.3-.71,2.49.27,3.8,1.31,4.86-.84,2.44-1.57,5.3-1.89,6.7-.49,0-1.84.29-2.17.62-.11.11-.11.22-.11.38,0,.29.11.4.4.44.22.07.76.07,1.09.07h2.17c0-2.11,1.73-5.75,3.04-7.24.67,1.84,2.44,4.48,3.02,5.42-.73.2-1.27.31-1.64.51-.73.38-.09.84.2.84.51.02.64,0,1.22,0,.97,0,1.35.07,2.24-.02-.2-.82-.53-1.35-.91-2.44-.56-1.53-1.37-3.48-1.95-5.06,3.73.6,7.19-.07,7.94-.33.64,2.2-.44,4.75-1.42,6.7h-2.08c-.31,0-.56.27-.56.58s.24.55.56.55h5.19c.31,0,.55-.25.55-.55s-.24-.58-.55-.58h-1.64c.51-1.38,2.31-2.58,2.77-5.79,1,2,1.31,1.26,2.62,2.57.69.69,1.29,2.11,1.42,3.31h-2.42c-.36,0-.64.24-.64.55s.29.58.64.58h5.73c.33,0,.62-.27.62-.58s-.29-.55-.62-.55h-1.89c-.82-3.17-.84-4.35-2.53-5.92.38-3.13-.15-4.84-1.22-5.24,1.36-1.67,3.33-6.17,4.37-9.81.29-.96,1.82-1.29,2.95.45,0-1.04-.97-2.31-2.24-2.31-2.38,0-2.22,2.75-3.2,4.73-1.18,2.37-2.04,6.35-6.52,6.39l-7.84.09c-1.82.02-5.53-4.44-6.53-5.97-1.09-1.71-1.97-2.42-2.82-2.6l-.4-1.84-.07,1.8c-.65,0-1.29.27-2.02.55l-.65-2.91-.11,3.19c-1.56.58-1.91.69-4.33,1.44-.6.18,3.04,0,4.99-.13"/>
    <path class="cls-2" d="m860.11,340.28c-4.1-1.51-10.96.42-12.96.2-6.04-.64-6.95-4.78-10.21-5.92-.13-.04-.27-.09-.4-.12l-.11-2.12-.62,2c-.76-.05-1.51.12-2.09.69l-4.51-2.26,3.86,3.28s-.02.06-.05.1c-.27.78.29,1,.07,2.86-.64,5.43,3.4,2.38,4.04-1.52.51,1.81-.95,4.42-1.09,5.05-.57,2.68.51,5.56,2.18,6.64-1.22,1.42-2.79,6.07-3.39,8.3l3.02-.08c0-2.73,1.84-6.19,3.53-8.37.91,1.93,5.08,6.16,3.59,7.65-.29.29,0,.8,0,1.22.58,0,1.16-.5,1.89-.5,1,0,.55-.94.55-1.51,0-2.15-1.98-5.17-3.37-6.86,1.8.51,3.13.36,4.75.07,0,.85-.27,1.71-.07,2.53l.93-.15c0-.72-.07-1.8.29-2.17.8-.79,1.46-.5,2.51-.5,0,.72-.2,1.59-.2,2.31,0,.87-.07,2.02-.38,2.66-.62,1.38-1.77,1.94-2,3.54.71,0,1.29.07,2,.07.09-.07.24-1.19.51-1.59.73-1.1,1.89-1.29,2.75-2.52.4-.6,1.07-2.53,1.07-3.25.84.84,3.68,3.9,4.04,4.61.51,1.04-.86,2.02-.86,2.96h2.73c.22-.51.06-2.82-.16-3.25-.38-.8-.67-1.6-.87-2.49.73-1.38,1.64-3.35,1.68-4.93.09-2.08-.62-6.13-2.66-6.64m.93,11.39c-.22-.96-.38-1.99-.56-3.2.29-1.71,1.62-3.04-.09-6.71,1.38.14,2.06,5.77.65,9.91"/>
    <path class="cls-2" d="m832.68,301.14c.89-.06,1.78-.31,2.91.25,1.53.78,3.33,4.21,2.99,6.3-.73,2.47.27,3.81,1.29,4.86-.82,2.43-1.55,5.29-1.86,6.7-.49,0-1.84.29-2.17.62-.11.11-.11.22-.11.39,0,.27.11.38.38.44.22.04.77.04,1.11.04h2.17c0-2.11,1.73-5.75,3.04-7.22.64,1.83,2.44,4.49,3,5.4-.71.22-1.24.31-1.62.51-.73.38-.11.84.2.86.51.03.64.01,1.2.01,1,0,1.35.05,2.26-.03-.2-.83-.53-1.36-.91-2.44-.55-1.53-1.37-3.48-1.95-5.07,3.73.61,7.19-.06,7.94-.33.62,2.21-.46,4.76-1.44,6.71h-2.06c-.31,0-.56.25-.56.57s.24.56.56.56h5.17c.31,0,.58-.25.58-.56s-.27-.57-.58-.57h-1.62c.49-1.38,2.31-2.59,2.77-5.79,1,2,1.31,1.27,2.6,2.57.69.68,1.31,2.11,1.44,3.31h-2.44c-.33,0-.62.25-.62.56s.29.56.62.56h5.72c.35,0,.64-.24.64-.56s-.29-.56-.64-.56h-1.86c-.84-3.17-.84-4.36-2.55-5.92.4-3.13-.14-4.84-1.22-5.24,1.38-1.65,3.35-6.18,4.39-9.82.26-.94,1.82-1.28,2.95.44,0-1.04-1-2.31-2.26-2.31-2.35,0-2.2,2.75-3.2,4.75-1.15,2.36-2.02,6.33-6.5,6.38l-7.84.09c-1.82,0-5.53-4.43-6.53-5.98-1.11-1.71-1.97-2.41-2.82-2.58l-.4-1.84-.06,1.8c-.65,0-1.29.26-2.02.55l-.65-2.92-.11,3.2c-1.56.6-1.91.69-4.33,1.45-.6.18,3.04-.01,4.99-.14"/>
    <path class="cls-2" d="m860.11,428.19c-4.1-1.51-10.96.41-12.96.2-6.04-.64-6.95-4.78-10.21-5.92-.13-.04-.27-.09-.4-.12l-.11-2.13-.62,2.01c-.76-.05-1.51.11-2.09.68l-4.51-2.25,3.86,3.28s-.02.07-.05.1c-.27.78.29,1,.07,2.86-.64,5.43,3.4,2.38,4.04-1.52.51,1.8-.95,4.41-1.09,5.05-.57,2.67.51,5.55,2.18,6.64-1.22,1.41-2.79,6.07-3.39,8.29l3.02-.07c0-2.73,1.84-6.19,3.53-8.37.91,1.93,5.08,6.15,3.59,7.65-.29.29,0,.79,0,1.22.58,0,1.16-.5,1.89-.5,1,0,.55-.94.55-1.52,0-2.14-1.98-5.16-3.37-6.85,1.8.51,3.13.36,4.75.07,0,.85-.27,1.71-.07,2.53l.93-.15c0-.72-.07-1.8.29-2.16.8-.79,1.46-.51,2.51-.51,0,.73-.2,1.59-.2,2.31,0,.86-.07,2.03-.38,2.67-.62,1.38-1.77,1.94-2,3.53.71,0,1.29.08,2,.08.09-.08.24-1.19.51-1.59.73-1.1,1.89-1.3,2.75-2.53.4-.59,1.07-2.52,1.07-3.24.84.84,3.68,3.9,4.04,4.61.51,1.04-.86,2.02-.86,2.95h2.73c.22-.5.06-2.8-.16-3.24-.38-.8-.67-1.61-.87-2.49.73-1.38,1.64-3.35,1.68-4.93.09-2.09-.62-6.13-2.66-6.64m.93,11.39c-.22-.96-.38-2-.56-3.21.29-1.7,1.62-3.03-.09-6.7,1.38.14,2.06,5.77.65,9.91"/>
    <path class="cls-2" d="m832.68,389.05c.89-.06,1.78-.31,2.91.25,1.53.78,3.33,4.2,2.99,6.29-.73,2.48.27,3.82,1.29,4.87-.82,2.43-1.55,5.29-1.86,6.7-.49,0-1.84.29-2.17.62-.11.11-.11.22-.11.39,0,.27.11.38.38.43.22.05.77.05,1.11.05h2.17c0-2.11,1.73-5.75,3.04-7.22.64,1.83,2.44,4.49,3,5.4-.71.22-1.24.31-1.62.51-.73.38-.11.84.2.86.51.02.64,0,1.2,0,1,0,1.35.06,2.26-.02-.2-.83-.53-1.36-.91-2.44-.55-1.53-1.37-3.49-1.95-5.07,3.73.61,7.19-.06,7.94-.34.62,2.21-.46,4.75-1.44,6.72h-2.06c-.31,0-.56.25-.56.57s.24.56.56.56h5.17c.31,0,.58-.25.58-.56s-.27-.57-.58-.57h-1.62c.49-1.38,2.31-2.59,2.77-5.79,1,1.99,1.31,1.27,2.6,2.56.69.69,1.31,2.11,1.44,3.31h-2.44c-.33,0-.62.25-.62.56h0c0,.31.29.57.62.57h5.72c.35,0,.64-.25.64-.55h0c0-.32-.29-.57-.64-.57h-1.86c-.84-3.16-.84-4.35-2.55-5.92.4-3.14-.14-4.84-1.22-5.24,1.38-1.65,3.35-6.18,4.39-9.82.26-.94,1.82-1.27,2.95.44,0-1.04-1-2.31-2.26-2.31-2.35,0-2.2,2.75-3.2,4.74-1.15,2.36-2.02,6.35-6.5,6.39l-7.84.09c-1.82.01-5.53-4.44-6.53-5.98-1.11-1.71-1.97-2.41-2.82-2.58l-.4-1.84-.06,1.8c-.65,0-1.29.26-2.02.54l-.65-2.91-.11,3.2c-1.56.6-1.91.69-4.33,1.45-.6.18,3.04-.01,4.99-.14"/>
    <path class="cls-2" d="m860.11,519.39c-4.1-1.51-10.96.4-12.96.2-6.04-.64-6.95-4.79-10.21-5.93-.13-.04-.27-.09-.4-.12l-.11-2.13-.62,2.01c-.76-.06-1.51.11-2.09.68l-4.51-2.25,3.86,3.27s-.02.07-.05.1c-.27.78.29.98.07,2.85-.64,5.44,3.4,2.4,4.04-1.51.51,1.8-.95,4.41-1.09,5.06-.57,2.66.51,5.55,2.18,6.64-1.22,1.4-2.79,6.06-3.39,8.27l3.02-.06c0-2.73,1.84-6.19,3.53-8.37.91,1.93,5.08,6.15,3.59,7.66-.29.29,0,.77,0,1.22.58,0,1.16-.51,1.89-.51,1,0,.55-.93.55-1.51,0-2.15-1.98-5.17-3.37-6.86,1.8.51,3.13.36,4.75.07,0,.87-.27,1.71-.07,2.53l.93-.13c0-.73-.07-1.8.29-2.18.8-.78,1.46-.51,2.51-.51,0,.73-.2,1.6-.2,2.31,0,.87-.07,2.04-.38,2.69-.62,1.38-1.77,1.93-2,3.53.71,0,1.29.07,2,.07.09-.07.24-1.18.51-1.58.73-1.11,1.89-1.31,2.75-2.53.4-.6,1.07-2.53,1.07-3.24.84.82,3.68,3.9,4.04,4.61.51,1.02-.86,2.02-.86,2.95h2.73c.22-.51.06-2.82-.16-3.24-.38-.8-.67-1.62-.87-2.49.73-1.38,1.64-3.35,1.68-4.93.09-2.09-.62-6.13-2.66-6.64m.93,11.38c-.22-.95-.38-2-.56-3.22.29-1.68,1.62-3.02-.09-6.7,1.38.15,2.06,5.77.65,9.92"/>
    <path class="cls-2" d="m832.68,480.25c.89-.06,1.78-.31,2.91.26,1.53.78,3.33,4.2,2.99,6.29-.73,2.49.27,3.81,1.29,4.87-.82,2.43-1.55,5.29-1.86,6.7-.49,0-1.84.29-2.17.62-.11.11-.11.21-.11.38,0,.28.11.39.38.45.22.05.77.05,1.11.05h2.17c0-2.11,1.73-5.75,3.04-7.23.64,1.83,2.44,4.49,3,5.41-.71.21-1.24.31-1.62.51-.73.38-.11.84.2.85.51.02.64,0,1.2,0,1,0,1.35.07,2.26-.03-.2-.82-.53-1.35-.91-2.43-.55-1.53-1.37-3.49-1.95-5.07,3.73.61,7.19-.06,7.94-.33.62,2.21-.46,4.75-1.44,6.71h-2.06c-.31,0-.56.26-.56.57s.24.57.56.57h5.17c.31,0,.58-.25.58-.57s-.27-.57-.58-.57h-1.62c.49-1.37,2.31-2.59,2.77-5.79,1,1.99,1.31,1.27,2.6,2.56.69.69,1.31,2.11,1.44,3.31h-2.44c-.33,0-.62.26-.62.57s.29.57.62.57h5.72c.35,0,.64-.25.64-.57s-.29-.57-.64-.57h-1.86c-.84-3.16-.84-4.35-2.55-5.91.4-3.14-.14-4.84-1.22-5.24,1.38-1.65,3.35-6.18,4.39-9.82.26-.94,1.82-1.29,2.95.44,0-1.04-1-2.31-2.26-2.31-2.35,0-2.2,2.75-3.2,4.74-1.15,2.36-2.02,6.35-6.5,6.39l-7.84.09c-1.82.01-5.53-4.44-6.53-5.98-1.11-1.71-1.97-2.41-2.82-2.59l-.4-1.84-.06,1.8c-.65,0-1.29.26-2.02.54l-.65-2.91-.11,3.19c-1.56.6-1.91.69-4.33,1.45-.6.18,3.04-.01,4.99-.15"/>
    <path class="cls-2" d="m860.11,613.86c-4.1-1.51-10.96.42-12.96.2-6.04-.64-6.95-4.77-10.21-5.93-.13-.04-.27-.09-.4-.11l-.11-2.13-.62,2c-.76-.04-1.51.11-2.09.69l-4.51-2.27,3.86,3.28s-.02.04-.05.09c-.27.78.29,1,.07,2.86-.64,5.44,3.4,2.37,4.04-1.51.51,1.8-.95,4.41-1.09,5.04-.57,2.66.51,5.55,2.18,6.63-1.22,1.42-2.79,6.08-3.39,8.3l3.02-.07c0-2.73,1.84-6.19,3.53-8.37.91,1.93,5.08,6.15,3.59,7.63-.29.29,0,.8,0,1.22.58,0,1.16-.49,1.89-.49,1,0,.55-.95.55-1.53,0-2.15-1.98-5.17-3.37-6.83,1.8.49,3.13.35,4.75.07,0,.84-.27,1.71-.07,2.53l.93-.16c0-.71-.07-1.8.29-2.15.8-.8,1.46-.51,2.51-.51,0,.71-.2,1.57-.2,2.31,0,.86-.07,2.02-.38,2.66-.62,1.38-1.77,1.95-2,3.53.71,0,1.29.09,2,.09.09-.09.24-1.2.51-1.6.73-1.09,1.89-1.29,2.75-2.53.4-.58,1.07-2.51,1.07-3.24.84.84,3.68,3.91,4.04,4.61.51,1.05-.86,2.02-.86,2.95h2.73c.22-.49.06-2.8-.16-3.24-.38-.8-.67-1.6-.87-2.49.73-1.37,1.64-3.35,1.68-4.93.09-2.09-.62-6.12-2.66-6.63m.93,11.38c-.22-.95-.38-2-.56-3.2.29-1.71,1.62-3.04-.09-6.7,1.38.13,2.06,5.77.65,9.9"/>
    <path class="cls-2" d="m832.68,574.73c.89-.07,1.78-.31,2.91.24,1.53.78,3.33,4.19,2.99,6.3-.73,2.49.27,3.8,1.29,4.86-.82,2.44-1.55,5.3-1.86,6.7-.49,0-1.84.29-2.17.62-.11.11-.11.22-.11.38,0,.29.11.4.38.44.22.07.77.07,1.11.07h2.17c0-2.11,1.73-5.75,3.04-7.24.64,1.84,2.44,4.48,3,5.42-.71.2-1.24.31-1.62.51-.73.38-.11.84.2.84.51.02.64,0,1.2,0,1,0,1.35.07,2.26-.02-.2-.82-.53-1.35-.91-2.44-.55-1.53-1.37-3.48-1.95-5.06,3.73.6,7.19-.07,7.94-.33.62,2.2-.46,4.75-1.44,6.7h-2.06c-.31,0-.56.27-.56.58s.24.55.56.55h5.17c.31,0,.58-.25.58-.55s-.27-.58-.58-.58h-1.62c.49-1.38,2.31-2.58,2.77-5.79,1,2,1.31,1.26,2.6,2.57.69.69,1.31,2.11,1.44,3.31h-2.44c-.33,0-.62.24-.62.55s.29.58.62.58h5.72c.35,0,.64-.27.64-.58s-.29-.55-.64-.55h-1.86c-.84-3.17-.84-4.35-2.55-5.92.4-3.13-.14-4.84-1.22-5.24,1.38-1.67,3.35-6.17,4.39-9.81.26-.96,1.82-1.29,2.95.45,0-1.04-1-2.31-2.26-2.31-2.35,0-2.2,2.75-3.2,4.73-1.15,2.37-2.02,6.35-6.5,6.39l-7.84.09c-1.82.02-5.53-4.44-6.53-5.97-1.11-1.71-1.97-2.42-2.82-2.6l-.4-1.84-.06,1.8c-.65,0-1.29.27-2.02.55l-.65-2.91-.11,3.19c-1.56.58-1.91.69-4.33,1.44-.6.18,3.04,0,4.99-.13"/>
    <path class="cls-2" d="m562.68,334.99c-.58-.56-1.33-.74-2.1-.69l-.6-2-.12,2.12c-.14.03-.28.08-.41.12-3.25,1.14-4.16,5.28-10.19,5.92-2.01.22-8.86-1.71-12.97-.2-2.04.51-2.74,4.56-2.67,6.64.05,1.58.97,3.55,1.69,4.93-.21.89-.48,1.69-.88,2.49-.21.43-.35,2.74-.14,3.25h2.74c0-.94-1.39-1.92-.87-2.96.35-.71,3.18-3.77,4.03-4.61,0,.72.66,2.65,1.08,3.25.86,1.23,2,1.42,2.73,2.52.28.4.43,1.52.51,1.59.72,0,1.3-.07,2.01-.07-.21-1.6-1.38-2.16-2.01-3.54-.3-.64-.37-1.8-.37-2.66,0-.72-.21-1.59-.21-2.31,1.05,0,1.73-.29,2.52.5.36.37.29,1.44.29,2.17l.93.14c.2-.82-.06-1.68-.06-2.53,1.62.3,2.95.44,4.75-.07-1.4,1.69-3.38,4.71-3.38,6.86,0,.57-.43,1.51.57,1.51.73,0,1.31.5,1.88.5,0-.42.29-.93,0-1.22-1.49-1.49,2.69-5.71,3.59-7.65,1.7,2.17,3.53,5.64,3.53,8.37l3.02.08c-.59-2.23-2.16-6.88-3.37-8.3,1.65-1.08,2.73-3.96,2.15-6.64-.13-.63-1.57-3.24-1.08-5.05.66,3.89,4.68,6.94,4.03,1.52-.22-1.86.34-2.09.07-2.86-.01-.03-.02-.06-.03-.1l3.85-3.27-4.49,2.26Zm-26.75,13.47c-.19,1.21-.35,2.24-.57,3.2-1.42-4.14-.73-9.77.63-9.91-1.69,3.67-.37,5-.07,6.71"/>
    <path class="cls-2" d="m534.97,298.26c1.04,3.64,3.02,8.17,4.38,9.82-1.07.4-1.61,2.11-1.22,5.24-1.7,1.56-1.71,2.75-2.54,5.93h-1.88c-.35,0-.62.25-.62.57s.28.55.62.55h5.72c.34,0,.62-.24.62-.55s-.28-.57-.62-.57h-2.43c.13-1.2.74-2.63,1.43-3.31,1.3-1.31,1.61-.58,2.61-2.57.48,3.2,2.27,4.42,2.77,5.79h-1.63c-.31,0-.57.25-.57.56s.26.57.57.57h5.18c.31,0,.57-.25.57-.57s-.26-.56-.57-.56h-2.07c-.98-1.95-2.06-4.51-1.43-6.71.76.28,4.22.94,7.94.33-.57,1.59-1.4,3.54-1.94,5.07-.39,1.08-.72,1.61-.92,2.44.9.09,1.26.03,2.25.03.57,0,.7.02,1.21,0,.3-.01.93-.48.21-.86-.39-.2-.92-.29-1.64-.51.58-.91,2.35-3.57,3-5.4,1.32,1.47,3.05,5.11,3.05,7.22h2.17c.32,0,.88,0,1.1-.04.28-.07.39-.18.39-.44,0-.17,0-.28-.11-.39-.33-.33-1.69-.62-2.16-.62-.32-1.41-1.06-4.27-1.89-6.7,1.03-1.05,2.02-2.39,1.29-4.86-.33-2.1,1.46-5.52,3.01-6.3,1.14-.56,2.02-.31,2.91-.25,1.95.13,5.59.32,5,.14-2.42-.77-2.78-.85-4.34-1.45l-.11-3.2-.64,2.92c-.73-.29-1.39-.56-2.02-.56l-.07-1.8-.4,1.84c-.84.18-1.72.88-2.82,2.58-1,1.55-4.72,5.99-6.53,5.98l-7.82-.09c-4.49-.04-5.36-4.02-6.53-6.38-.97-2-.83-4.75-3.19-4.75-1.27,0-2.26,1.26-2.26,2.31,1.14-1.72,2.68-1.39,2.96-.44"/>
    <path class="cls-2" d="m562.68,422.9c-.58-.57-1.33-.73-2.1-.68l-.6-2.01-.12,2.13c-.14.03-.28.08-.41.12-3.25,1.14-4.16,5.28-10.19,5.92-2.01.21-8.86-1.71-12.97-.2-2.04.51-2.74,4.55-2.67,6.64.05,1.58.97,3.55,1.69,4.93-.21.88-.48,1.69-.88,2.49-.21.43-.35,2.74-.14,3.24h2.74c0-.93-1.39-1.91-.87-2.95.35-.71,3.18-3.77,4.03-4.61,0,.72.66,2.65,1.08,3.24.86,1.23,2,1.43,2.73,2.53.28.4.43,1.51.51,1.59.72,0,1.3-.08,2.01-.08-.21-1.59-1.38-2.15-2.01-3.53-.3-.64-.37-1.81-.37-2.67,0-.72-.21-1.58-.21-2.31,1.05,0,1.73-.28,2.52.51.36.37.29,1.44.29,2.16l.93.15c.2-.82-.06-1.68-.06-2.53,1.62.3,2.95.44,4.75-.07-1.4,1.69-3.38,4.71-3.38,6.85,0,.58-.43,1.52.57,1.52.73,0,1.31.5,1.88.5,0-.43.29-.93,0-1.22-1.49-1.5,2.69-5.71,3.59-7.65,1.7,2.18,3.53,5.64,3.53,8.37l3.02.07c-.59-2.22-2.16-6.88-3.37-8.29,1.65-1.09,2.73-3.97,2.15-6.64-.13-.63-1.57-3.25-1.08-5.05.66,3.89,4.68,6.95,4.03,1.52-.22-1.86.34-2.08.07-2.86-.01-.03-.02-.07-.03-.1l3.85-3.28-4.49,2.25Zm-26.75,13.47c-.19,1.21-.35,2.25-.57,3.21-1.42-4.14-.73-9.77.63-9.91-1.69,3.67-.37,5-.07,6.7"/>
    <path class="cls-2" d="m534.97,386.17c1.04,3.64,3.02,8.17,4.38,9.82-1.07.4-1.61,2.1-1.22,5.24-1.7,1.57-1.71,2.75-2.54,5.92h-1.88c-.35,0-.62.25-.62.57h0c0,.31.28.57.62.57h5.72c.34,0,.62-.25.62-.55h0c0-.32-.28-.58-.62-.58h-2.43c.13-1.2.74-2.62,1.43-3.31,1.3-1.3,1.61-.58,2.61-2.56.48,3.2,2.27,4.41,2.77,5.79h-1.63c-.31,0-.57.26-.57.57s.26.57.57.57h5.18c.31,0,.57-.25.57-.57s-.26-.57-.57-.57h-2.07c-.98-1.96-2.06-4.51-1.43-6.71.76.28,4.22.94,7.94.33-.57,1.58-1.4,3.54-1.94,5.07-.39,1.08-.72,1.61-.92,2.44.9.09,1.26.02,2.25.02.57,0,.7.02,1.21,0,.3-.01.93-.48.21-.86-.39-.2-.92-.29-1.64-.51.58-.91,2.35-3.57,3-5.4,1.32,1.48,3.05,5.11,3.05,7.22h2.17c.32,0,.88,0,1.1-.05.28-.06.39-.17.39-.43,0-.17,0-.28-.11-.39-.33-.33-1.69-.62-2.16-.62-.32-1.41-1.06-4.27-1.89-6.7,1.03-1.05,2.02-2.39,1.29-4.87-.33-2.1,1.46-5.51,3.01-6.29,1.14-.57,2.02-.31,2.91-.25,1.95.13,5.59.32,5,.14-2.42-.77-2.78-.85-4.34-1.45l-.11-3.2-.64,2.91c-.73-.28-1.39-.54-2.02-.54l-.07-1.8-.4,1.84c-.84.18-1.72.88-2.82,2.58-1,1.54-4.72,5.99-6.53,5.98l-7.82-.09c-4.49-.04-5.36-4.03-6.53-6.39-.97-1.99-.83-4.74-3.19-4.74-1.27,0-2.26,1.26-2.26,2.31,1.14-1.72,2.68-1.39,2.96-.44"/>
    <path class="cls-2" d="m562.68,514.09c-.58-.57-1.33-.73-2.1-.68l-.6-2.01-.12,2.13c-.14.03-.28.08-.41.12-3.25,1.14-4.16,5.29-10.19,5.93-2.01.2-8.86-1.71-12.97-.2-2.04.51-2.74,4.55-2.67,6.64.05,1.57.97,3.55,1.69,4.93-.21.87-.48,1.68-.88,2.49-.21.42-.35,2.73-.14,3.24h2.74c0-.93-1.39-1.93-.87-2.95.35-.71,3.18-3.8,4.03-4.61,0,.71.66,2.64,1.08,3.24.86,1.22,2,1.42,2.73,2.53.28.4.43,1.51.51,1.58.72,0,1.3-.07,2.01-.07-.21-1.6-1.38-2.15-2.01-3.53-.3-.64-.37-1.82-.37-2.69,0-.71-.21-1.57-.21-2.31,1.05,0,1.73-.27,2.52.51.36.38.29,1.44.29,2.17l.93.13c.2-.82-.06-1.66-.06-2.53,1.62.29,2.95.45,4.75-.07-1.4,1.68-3.38,4.7-3.38,6.86,0,.58-.43,1.51.57,1.51.73,0,1.31.51,1.88.51,0-.45.29-.93,0-1.22-1.49-1.51,2.69-5.73,3.59-7.66,1.7,2.17,3.53,5.64,3.53,8.37l3.02.07c-.59-2.22-2.16-6.88-3.37-8.28,1.65-1.09,2.73-3.97,2.15-6.64-.13-.64-1.57-3.26-1.08-5.06.66,3.9,4.68,6.94,4.03,1.51-.22-1.86.34-2.06.07-2.85-.01-.03-.02-.07-.03-.1l3.85-3.27-4.49,2.25Zm-26.75,13.46c-.19,1.22-.35,2.26-.57,3.22-1.42-4.15-.73-9.76.63-9.92-1.69,3.68-.37,5.02-.07,6.7"/>
    <path class="cls-2" d="m534.97,477.36c1.04,3.64,3.02,8.17,4.38,9.82-1.07.4-1.61,2.1-1.22,5.24-1.7,1.57-1.71,2.75-2.54,5.91h-1.88c-.35,0-.62.26-.62.57s.28.57.62.57h5.72c.34,0,.62-.25.62-.57s-.28-.57-.62-.57h-2.43c.13-1.2.74-2.62,1.43-3.31,1.3-1.3,1.61-.58,2.61-2.56.48,3.21,2.27,4.42,2.77,5.79h-1.63c-.31,0-.57.26-.57.57s.26.57.57.57h5.18c.31,0,.57-.25.57-.57s-.26-.57-.57-.57h-2.07c-.98-1.96-2.06-4.5-1.43-6.71.76.28,4.22.94,7.94.33-.57,1.57-1.4,3.54-1.94,5.07-.39,1.08-.72,1.61-.92,2.43.9.1,1.26.03,2.25.03.57,0,.7.02,1.21,0,.3-.01.93-.48.21-.86-.39-.2-.92-.3-1.64-.51.58-.92,2.35-3.58,3-5.41,1.32,1.49,3.05,5.12,3.05,7.23h2.17c.32,0,.88,0,1.1-.05.28-.06.39-.17.39-.45,0-.17,0-.27-.11-.38-.33-.33-1.69-.62-2.16-.62-.32-1.41-1.06-4.27-1.89-6.7,1.03-1.07,2.02-2.39,1.29-4.87-.33-2.09,1.46-5.51,3.01-6.29,1.14-.57,2.02-.32,2.91-.26,1.95.13,5.59.32,5,.14-2.42-.77-2.78-.85-4.34-1.45l-.11-3.19-.64,2.91c-.73-.29-1.39-.54-2.02-.54l-.07-1.8-.4,1.84c-.84.18-1.72.88-2.82,2.59-1,1.54-4.72,5.99-6.53,5.98l-7.82-.09c-4.49-.04-5.36-4.03-6.53-6.39-.97-1.99-.83-4.74-3.19-4.74-1.27,0-2.26,1.26-2.26,2.31,1.14-1.73,2.68-1.39,2.96-.44"/>
    <path class="cls-2" d="m562.68,608.58c-.58-.58-1.33-.73-2.1-.69l-.6-2-.12,2.13c-.14.02-.28.07-.41.11-3.25,1.15-4.16,5.28-10.19,5.93-2.01.22-8.86-1.71-12.97-.2-2.04.51-2.74,4.55-2.67,6.63.05,1.58.97,3.55,1.69,4.93-.21.89-.48,1.69-.88,2.49-.21.44-.35,2.75-.14,3.24h2.74c0-.93-1.39-1.91-.87-2.95.35-.71,3.18-3.77,4.03-4.61,0,.73.66,2.66,1.08,3.24.86,1.24,2,1.44,2.73,2.53.28.4.43,1.51.51,1.6.72,0,1.3-.09,2.01-.09-.21-1.57-1.38-2.15-2.01-3.53-.3-.64-.37-1.8-.37-2.66,0-.73-.21-1.6-.21-2.31,1.05,0,1.73-.29,2.52.51.36.35.29,1.44.29,2.15l.93.15c.2-.82-.06-1.68-.06-2.53,1.62.29,2.95.42,4.75-.07-1.4,1.66-3.38,4.68-3.38,6.83,0,.58-.43,1.53.57,1.53.73,0,1.31.49,1.88.49,0-.42.29-.93,0-1.22-1.49-1.49,2.69-5.7,3.59-7.63,1.7,2.17,3.53,5.64,3.53,8.37l3.02.07c-.59-2.22-2.16-6.88-3.37-8.3,1.65-1.09,2.73-3.97,2.15-6.63-.13-.62-1.57-3.24-1.08-5.04.66,3.88,4.68,6.94,4.03,1.51-.22-1.86.34-2.09.07-2.86-.01-.05-.02-.07-.03-.09l3.85-3.28-4.49,2.26Zm-26.75,13.47c-.19,1.2-.35,2.24-.57,3.2-1.42-4.13-.73-9.76.63-9.9-1.69,3.66-.37,4.99-.07,6.7"/>
    <path class="cls-2" d="m534.97,571.85c1.04,3.64,3.02,8.15,4.38,9.81-1.07.4-1.61,2.11-1.22,5.24-1.7,1.58-1.71,2.75-2.54,5.92h-1.88c-.35,0-.62.24-.62.55s.28.58.62.58h5.72c.34,0,.62-.27.62-.58s-.28-.55-.62-.55h-2.43c.13-1.2.74-2.62,1.43-3.31,1.3-1.31,1.61-.58,2.61-2.57.48,3.22,2.27,4.42,2.77,5.79h-1.63c-.31,0-.57.27-.57.58s.26.55.57.55h5.18c.31,0,.57-.25.57-.55s-.26-.58-.57-.58h-2.07c-.98-1.95-2.06-4.51-1.43-6.7.76.27,4.22.93,7.94.33-.57,1.58-1.4,3.53-1.94,5.06-.39,1.09-.72,1.62-.92,2.44.9.09,1.26.02,2.25.02.57,0,.7.02,1.21,0,.3,0,.93-.47.21-.84-.39-.2-.92-.31-1.64-.51.58-.93,2.35-3.57,3-5.42,1.32,1.49,3.05,5.13,3.05,7.24h2.17c.32,0,.88,0,1.1-.07.28-.04.39-.16.39-.44,0-.15,0-.27-.11-.38-.33-.33-1.69-.62-2.16-.62-.32-1.4-1.06-4.26-1.89-6.7,1.03-1.07,2.02-2.37,1.29-4.86-.33-2.11,1.46-5.52,3.01-6.3,1.14-.55,2.02-.31,2.91-.24,1.95.13,5.59.31,5,.13-2.42-.76-2.78-.86-4.34-1.44l-.11-3.19-.64,2.91c-.73-.29-1.39-.55-2.02-.55l-.07-1.8-.4,1.84c-.84.18-1.72.89-2.82,2.6-1,1.53-4.72,5.99-6.53,5.97l-7.82-.09c-4.49-.04-5.36-4.02-6.53-6.39-.97-1.98-.83-4.73-3.19-4.73-1.27,0-2.26,1.26-2.26,2.31,1.14-1.73,2.68-1.4,2.96-.45"/>
    <path class="cls-2" d="m521.02,334.99c-.58-.56-1.34-.74-2.1-.69l-.61-2-.12,2.12c-.13.03-.26.08-.4.12-3.26,1.14-4.16,5.28-10.2,5.92-2.01.22-8.86-1.71-12.97-.2-2.04.51-2.74,4.56-2.66,6.64.04,1.58.97,3.55,1.7,4.93-.21.89-.49,1.69-.89,2.49-.21.43-.36,2.74-.14,3.25h2.74c0-.94-1.39-1.92-.87-2.96.36-.71,3.2-3.77,4.03-4.61,0,.72.66,2.65,1.08,3.25.86,1.23,2.01,1.42,2.74,2.52.27.4.43,1.52.5,1.59.72,0,1.3-.07,2.02-.07-.22-1.6-1.37-2.16-2.02-3.54-.3-.64-.35-1.8-.35-2.66,0-.72-.22-1.59-.22-2.31,1.07,0,1.73-.29,2.52.5.37.37.29,1.44.29,2.17l.94.14c.2-.82-.07-1.68-.07-2.53,1.62.3,2.95.44,4.75-.07-1.4,1.69-3.38,4.71-3.38,6.86,0,.57-.43,1.51.58,1.51.72,0,1.3.5,1.87.5,0-.42.29-.93,0-1.22-1.49-1.49,2.7-5.71,3.59-7.65,1.69,2.17,3.53,5.64,3.53,8.37l3.02.08c-.6-2.23-2.16-6.88-3.39-8.3,1.65-1.08,2.74-3.96,2.17-6.64-.14-.63-1.59-3.24-1.09-5.05.66,3.89,4.68,6.94,4.04,1.52-.22-1.86.34-2.09.07-2.86-.01-.03-.02-.06-.03-.1l3.85-3.27-4.49,2.26Zm-26.76,13.47c-.18,1.21-.35,2.24-.56,3.2-1.43-4.14-.73-9.77.63-9.91-1.7,3.67-.37,5-.08,6.71"/>
    <path class="cls-2" d="m493.29,298.26c1.04,3.64,3.02,8.17,4.39,9.82-1.08.4-1.61,2.11-1.22,5.24-1.71,1.56-1.71,2.75-2.55,5.93h-1.86c-.36,0-.63.25-.63.57s.28.55.63.55h5.73c.34,0,.62-.24.62-.55s-.28-.57-.62-.57h-2.43c.12-1.2.74-2.63,1.43-3.31,1.3-1.31,1.6-.58,2.6-2.57.48,3.2,2.29,4.42,2.78,5.79h-1.63c-.31,0-.56.25-.56.56s.25.57.56.57h5.17c.31,0,.57-.25.57-.57s-.26-.56-.57-.56h-2.06c-.98-1.95-2.06-4.51-1.44-6.71.77.28,4.23.94,7.94.33-.57,1.59-1.39,3.54-1.94,5.07-.39,1.08-.72,1.61-.92,2.44.91.09,1.27.03,2.25.03.58,0,.71.02,1.22,0,.3-.01.92-.48.2-.86-.38-.2-.92-.29-1.63-.51.57-.91,2.35-3.57,2.99-5.4,1.31,1.47,3.05,5.11,3.05,7.22h2.16c.33,0,.89,0,1.1-.04.28-.07.39-.18.39-.44,0-.17,0-.28-.11-.39-.32-.33-1.68-.62-2.16-.62-.32-1.41-1.04-4.27-1.87-6.7,1.02-1.05,2.02-2.39,1.29-4.86-.33-2.1,1.46-5.52,3-6.3,1.14-.56,2.03-.31,2.91-.25,1.95.13,5.59.32,5,.14-2.42-.77-2.77-.85-4.34-1.45l-.1-3.2-.64,2.92c-.74-.29-1.39-.56-2.03-.56l-.06-1.8-.41,1.84c-.84.18-1.71.88-2.82,2.58-1,1.55-4.71,5.99-6.53,5.98l-7.82-.09c-4.49-.04-5.35-4.02-6.52-6.38-.98-2-.83-4.75-3.19-4.75-1.28,0-2.26,1.26-2.26,2.31,1.14-1.72,2.68-1.39,2.95-.44"/>
    <path class="cls-2" d="m521.02,422.9c-.58-.57-1.34-.73-2.1-.68l-.61-2.01-.12,2.13c-.13.03-.26.08-.4.12-3.26,1.14-4.16,5.28-10.2,5.92-2.01.21-8.86-1.71-12.97-.2-2.04.51-2.74,4.55-2.66,6.64.04,1.58.97,3.55,1.7,4.93-.21.88-.49,1.69-.89,2.49-.21.43-.36,2.74-.14,3.24h2.74c0-.93-1.39-1.91-.87-2.95.36-.71,3.2-3.77,4.03-4.61,0,.72.66,2.65,1.08,3.24.86,1.23,2.01,1.43,2.74,2.53.27.4.43,1.51.5,1.59.72,0,1.3-.08,2.02-.08-.22-1.59-1.37-2.15-2.02-3.53-.3-.64-.35-1.81-.35-2.67,0-.72-.22-1.58-.22-2.31,1.07,0,1.73-.28,2.52.51.37.37.29,1.44.29,2.16l.94.15c.2-.82-.07-1.68-.07-2.53,1.62.3,2.95.44,4.75-.07-1.4,1.69-3.38,4.71-3.38,6.85,0,.58-.43,1.52.58,1.52.72,0,1.3.5,1.87.5,0-.43.29-.93,0-1.22-1.49-1.5,2.7-5.71,3.59-7.65,1.69,2.18,3.53,5.64,3.53,8.37l3.02.07c-.6-2.22-2.16-6.88-3.39-8.29,1.65-1.09,2.74-3.97,2.17-6.64-.14-.63-1.59-3.25-1.09-5.05.66,3.89,4.68,6.95,4.04,1.52-.22-1.86.34-2.08.07-2.86-.01-.03-.02-.07-.03-.1l3.85-3.28-4.49,2.25Zm-26.76,13.47c-.18,1.21-.35,2.25-.56,3.21-1.43-4.14-.73-9.77.63-9.91-1.7,3.67-.37,5-.08,6.7"/>
    <path class="cls-2" d="m493.29,386.17c1.04,3.64,3.02,8.17,4.39,9.82-1.08.4-1.61,2.1-1.22,5.24-1.71,1.57-1.71,2.75-2.55,5.92h-1.86c-.36,0-.63.25-.63.57h0c0,.31.28.57.63.57h5.73c.34,0,.62-.25.62-.55h0c0-.32-.28-.58-.62-.58h-2.43c.12-1.2.74-2.62,1.43-3.31,1.3-1.3,1.6-.58,2.6-2.56.48,3.2,2.29,4.41,2.78,5.79h-1.63c-.31,0-.56.26-.56.57s.25.57.56.57h5.17c.31,0,.57-.25.57-.57s-.26-.57-.57-.57h-2.06c-.98-1.96-2.06-4.51-1.44-6.71.77.28,4.23.94,7.94.33-.57,1.58-1.39,3.54-1.94,5.07-.39,1.08-.72,1.61-.92,2.44.91.09,1.27.02,2.25.02.58,0,.71.02,1.22,0,.3-.01.92-.48.2-.86-.38-.2-.92-.29-1.63-.51.57-.91,2.35-3.57,2.99-5.4,1.31,1.48,3.05,5.11,3.05,7.22h2.16c.33,0,.89,0,1.1-.05.28-.06.39-.17.39-.43,0-.17,0-.28-.11-.39-.32-.33-1.68-.62-2.16-.62-.32-1.41-1.04-4.27-1.87-6.7,1.02-1.05,2.02-2.39,1.29-4.87-.33-2.1,1.46-5.51,3-6.29,1.14-.57,2.03-.31,2.91-.25,1.95.13,5.59.32,5,.14-2.42-.77-2.77-.85-4.34-1.45l-.1-3.2-.64,2.91c-.74-.28-1.39-.54-2.03-.54l-.06-1.8-.41,1.84c-.84.18-1.71.88-2.82,2.58-1,1.54-4.71,5.99-6.53,5.98l-7.82-.09c-4.49-.04-5.35-4.03-6.52-6.39-.98-1.99-.83-4.74-3.19-4.74-1.28,0-2.26,1.26-2.26,2.31,1.14-1.72,2.68-1.39,2.95-.44"/>
    <path class="cls-2" d="m521.02,514.09c-.58-.57-1.34-.73-2.1-.68l-.61-2.01-.12,2.13c-.13.03-.26.08-.4.12-3.26,1.14-4.16,5.29-10.2,5.93-2.01.2-8.86-1.71-12.97-.2-2.04.51-2.74,4.55-2.66,6.64.04,1.57.97,3.55,1.7,4.93-.21.87-.49,1.68-.89,2.49-.21.42-.36,2.73-.14,3.24h2.74c0-.93-1.39-1.93-.87-2.95.36-.71,3.2-3.8,4.03-4.61,0,.71.66,2.64,1.08,3.24.86,1.22,2.01,1.42,2.74,2.53.27.4.43,1.51.5,1.58.72,0,1.3-.07,2.02-.07-.22-1.6-1.37-2.15-2.02-3.53-.3-.64-.35-1.82-.35-2.69,0-.71-.22-1.57-.22-2.31,1.07,0,1.73-.27,2.52.51.37.38.29,1.44.29,2.17l.94.13c.2-.82-.07-1.66-.07-2.53,1.62.29,2.95.45,4.75-.07-1.4,1.68-3.38,4.7-3.38,6.86,0,.58-.43,1.51.58,1.51.72,0,1.3.51,1.87.51,0-.45.29-.93,0-1.22-1.49-1.51,2.7-5.73,3.59-7.66,1.69,2.17,3.53,5.64,3.53,8.37l3.02.07c-.6-2.22-2.16-6.88-3.39-8.28,1.65-1.09,2.74-3.97,2.17-6.64-.14-.64-1.59-3.26-1.09-5.06.66,3.9,4.68,6.94,4.04,1.51-.22-1.86.34-2.06.07-2.85-.01-.03-.02-.07-.03-.1l3.85-3.27-4.49,2.25Zm-26.76,13.46c-.18,1.22-.35,2.26-.56,3.22-1.43-4.15-.73-9.76.63-9.92-1.7,3.68-.37,5.02-.08,6.7"/>
    <path class="cls-2" d="m493.29,477.36c1.04,3.64,3.02,8.17,4.39,9.82-1.08.4-1.61,2.1-1.22,5.24-1.71,1.57-1.71,2.75-2.55,5.91h-1.86c-.36,0-.63.26-.63.57s.28.57.63.57h5.73c.34,0,.62-.25.62-.57s-.28-.57-.62-.57h-2.43c.12-1.2.74-2.62,1.43-3.31,1.3-1.3,1.6-.58,2.6-2.56.48,3.21,2.29,4.42,2.78,5.79h-1.63c-.31,0-.56.26-.56.57s.25.57.56.57h5.17c.31,0,.57-.25.57-.57s-.26-.57-.57-.57h-2.06c-.98-1.96-2.06-4.5-1.44-6.71.77.28,4.23.94,7.94.33-.57,1.57-1.39,3.54-1.94,5.07-.39,1.08-.72,1.61-.92,2.43.91.1,1.27.03,2.25.03.58,0,.71.02,1.22,0,.3-.01.92-.48.2-.86-.38-.2-.92-.3-1.63-.51.57-.92,2.35-3.58,2.99-5.41,1.31,1.49,3.05,5.12,3.05,7.23h2.16c.33,0,.89,0,1.1-.05.28-.06.39-.17.39-.45,0-.17,0-.27-.11-.38-.32-.33-1.68-.62-2.16-.62-.32-1.41-1.04-4.27-1.87-6.7,1.02-1.07,2.02-2.39,1.29-4.87-.33-2.09,1.46-5.51,3-6.29,1.14-.57,2.03-.32,2.91-.26,1.95.13,5.59.32,5,.14-2.42-.77-2.77-.85-4.34-1.45l-.1-3.19-.64,2.91c-.74-.29-1.39-.54-2.03-.54l-.06-1.8-.41,1.84c-.84.18-1.71.88-2.82,2.59-1,1.54-4.71,5.99-6.53,5.98l-7.82-.09c-4.49-.04-5.35-4.03-6.52-6.39-.98-1.99-.83-4.74-3.19-4.74-1.28,0-2.26,1.26-2.26,2.31,1.14-1.73,2.68-1.39,2.95-.44"/>
    <path class="cls-2" d="m521.02,608.58c-.58-.58-1.34-.73-2.1-.69l-.61-2-.12,2.13c-.13.02-.26.07-.4.11-3.26,1.15-4.16,5.28-10.2,5.93-2.01.22-8.86-1.71-12.97-.2-2.04.51-2.74,4.55-2.66,6.63.04,1.58.97,3.55,1.7,4.93-.21.89-.49,1.69-.89,2.49-.21.44-.36,2.75-.14,3.24h2.74c0-.93-1.39-1.91-.87-2.95.36-.71,3.2-3.77,4.03-4.61,0,.73.66,2.66,1.08,3.24.86,1.24,2.01,1.44,2.74,2.53.27.4.43,1.51.5,1.6.72,0,1.3-.09,2.02-.09-.22-1.57-1.37-2.15-2.02-3.53-.3-.64-.35-1.8-.35-2.66,0-.73-.22-1.6-.22-2.31,1.07,0,1.73-.29,2.52.51.37.35.29,1.44.29,2.15l.94.15c.2-.82-.07-1.68-.07-2.53,1.62.29,2.95.42,4.75-.07-1.4,1.66-3.38,4.68-3.38,6.83,0,.58-.43,1.53.58,1.53.72,0,1.3.49,1.87.49,0-.42.29-.93,0-1.22-1.49-1.49,2.7-5.7,3.59-7.63,1.69,2.17,3.53,5.64,3.53,8.37l3.02.07c-.6-2.22-2.16-6.88-3.39-8.3,1.65-1.09,2.74-3.97,2.17-6.63-.14-.62-1.59-3.24-1.09-5.04.66,3.88,4.68,6.94,4.04,1.51-.22-1.86.34-2.09.07-2.86-.01-.05-.02-.07-.03-.09l3.85-3.28-4.49,2.26Zm-26.76,13.47c-.18,1.2-.35,2.24-.56,3.2-1.43-4.13-.73-9.76.63-9.9-1.7,3.66-.37,4.99-.08,6.7"/>
    <path class="cls-2" d="m493.29,571.85c1.04,3.64,3.02,8.15,4.39,9.81-1.08.4-1.61,2.11-1.22,5.24-1.71,1.58-1.71,2.75-2.55,5.92h-1.86c-.36,0-.63.24-.63.55s.28.58.63.58h5.73c.34,0,.62-.27.62-.58s-.28-.55-.62-.55h-2.43c.12-1.2.74-2.62,1.43-3.31,1.3-1.31,1.6-.58,2.6-2.57.48,3.22,2.29,4.42,2.78,5.79h-1.63c-.31,0-.56.27-.56.58s.25.55.56.55h5.17c.31,0,.57-.25.57-.55s-.26-.58-.57-.58h-2.06c-.98-1.95-2.06-4.51-1.44-6.7.77.27,4.23.93,7.94.33-.57,1.58-1.39,3.53-1.94,5.06-.39,1.09-.72,1.62-.92,2.44.91.09,1.27.02,2.25.02.58,0,.71.02,1.22,0,.3,0,.92-.47.2-.84-.38-.2-.92-.31-1.63-.51.57-.93,2.35-3.57,2.99-5.42,1.31,1.49,3.05,5.13,3.05,7.24h2.16c.33,0,.89,0,1.1-.07.28-.04.39-.16.39-.44,0-.15,0-.27-.11-.38-.32-.33-1.68-.62-2.16-.62-.32-1.4-1.04-4.26-1.87-6.7,1.02-1.07,2.02-2.37,1.29-4.86-.33-2.11,1.46-5.52,3-6.3,1.14-.55,2.03-.31,2.91-.24,1.95.13,5.59.31,5,.13-2.42-.76-2.77-.86-4.34-1.44l-.1-3.19-.64,2.91c-.74-.29-1.39-.55-2.03-.55l-.06-1.8-.41,1.84c-.84.18-1.71.89-2.82,2.6-1,1.53-4.71,5.99-6.53,5.97l-7.82-.09c-4.49-.04-5.35-4.02-6.52-6.39-.98-1.98-.83-4.73-3.19-4.73-1.28,0-2.26,1.26-2.26,2.31,1.14-1.73,2.68-1.4,2.95-.45"/>
    <path class="cls-2" d="m618.04,531.82c-.55-.53-1.29-.69-2.01-.62l-.6-1.95-.12,2.04c-.14.02-.27.09-.39.11-3.15,1.13-4.03,5.12-9.86,5.75-1.93.2-8.57-1.64-12.55-.2-1.98.51-2.65,4.41-2.59,6.41.06,1.53.96,3.44,1.65,4.77-.2.87-.47,1.64-.85,2.42-.21.42-.34,2.64-.12,3.13h2.62c0-.91-1.33-1.84-.83-2.86.34-.69,3.1-3.64,3.9-4.46,0,.69.63,2.58,1.04,3.15.83,1.17,1.93,1.35,2.65,2.42.24.4.41,1.49.48,1.55.7,0,1.26-.07,1.96-.07-.21-1.55-1.34-2.11-1.96-3.42-.29-.64-.35-1.75-.35-2.59,0-.71-.2-1.53-.2-2.22,1.02,0,1.68-.29,2.43.46.34.35.29,1.4.29,2.11l.91.13c.2-.78-.08-1.62-.08-2.44,1.56.29,2.86.42,4.59-.06-1.35,1.62-3.27,4.55-3.27,6.63,0,.55-.41,1.47.55,1.47.7,0,1.25.49,1.82.49,0-.42.28-.91,0-1.2-1.44-1.44,2.61-5.52,3.47-7.39,1.64,2.11,3.42,5.46,3.42,8.1l2.92.07c-.58-2.15-2.11-6.66-3.27-8.03,1.6-1.04,2.65-3.82,2.1-6.41-.14-.6-1.54-3.13-1.06-4.88.63,3.75,4.54,6.72,3.9,1.46-.21-1.8.35-2.02.08-2.77-.01-.02-.03-.04-.04-.09l3.73-3.15-4.35,2.15Zm-25.89,13.05c-.17,1.18-.34,2.18-.53,3.11-1.39-4.02-.72-9.45.61-9.59-1.63,3.55-.35,4.84-.08,6.48"/>
    <path class="cls-2" d="m591.23,496.29c1.01,3.51,2.92,7.9,4.24,9.5-1.03.4-1.55,2.04-1.17,5.07-1.65,1.51-1.66,2.65-2.48,5.71h-1.81c-.33,0-.6.27-.6.56,0,.31.26.55.6.55h5.55c.32,0,.61-.24.61-.55,0-.29-.29-.56-.61-.56h-2.35c.14-1.15.71-2.51,1.38-3.19,1.26-1.24,1.56-.55,2.53-2.46.45,3.09,2.21,4.26,2.7,5.59h-1.6c-.3,0-.54.24-.54.55,0,.29.24.55.54.55h5.02c.3,0,.55-.27.55-.55,0-.31-.25-.55-.55-.55h-2.01c-.93-1.9-1.99-4.36-1.38-6.5.73.27,4.07.92,7.68.32-.54,1.53-1.34,3.43-1.88,4.91-.37,1.05-.69,1.56-.88,2.38.88.07,1.21.02,2.17.02.54,0,.67.02,1.17,0,.3-.02.91-.47.2-.84-.37-.18-.87-.27-1.58-.49.55-.89,2.27-3.46,2.91-5.24,1.27,1.44,2.95,4.98,2.95,7h2.1c.31,0,.84,0,1.05-.04.27-.04.38-.16.38-.42,0-.16,0-.27-.11-.38-.31-.34-1.63-.6-2.09-.6-.32-1.35-1.02-4.13-1.82-6.48.98-1.03,1.95-2.31,1.24-4.71-.32-2.03,1.41-5.35,2.91-6.09,1.1-.55,1.95-.31,2.81-.26,1.89.15,5.4.32,4.84.15-2.34-.73-2.69-.83-4.18-1.39l-.11-3.12-.62,2.83c-.72-.28-1.34-.53-1.97-.53l-.07-1.74-.38,1.79c-.82.17-1.66.83-2.74,2.5-.95,1.5-4.55,5.8-6.3,5.78l-7.58-.08c-4.34-.04-5.17-3.89-6.3-6.18-.94-1.92-.8-4.59-3.09-4.59-1.23,0-2.19,1.22-2.19,2.25,1.1-1.68,2.59-1.35,2.86-.44"/>
    <path class="cls-2" d="m618.04,616.88c-.55-.53-1.29-.69-2.01-.64l-.6-1.96-.12,2.06c-.14.02-.27.09-.39.11-3.15,1.11-4.03,5.13-9.86,5.75-1.93.2-8.57-1.66-12.55-.2-1.98.49-2.65,4.42-2.59,6.41.06,1.53.96,3.44,1.65,4.77-.2.84-.47,1.62-.85,2.4-.21.42-.34,2.66-.12,3.15h2.62c0-.91-1.33-1.86-.83-2.86.34-.71,3.1-3.66,3.9-4.46,0,.69.63,2.55,1.04,3.13.83,1.18,1.93,1.38,2.65,2.44.24.4.41,1.46.48,1.55.7,0,1.26-.09,1.96-.09-.21-1.53-1.34-2.09-1.96-3.42-.29-.62-.35-1.76-.35-2.57,0-.71-.2-1.53-.2-2.24,1.02,0,1.68-.27,2.43.49.34.35.29,1.4.29,2.09l.91.15c.2-.8-.08-1.64-.08-2.44,1.56.27,2.86.42,4.59-.07-1.35,1.62-3.27,4.55-3.27,6.63,0,.53-.41,1.47.55,1.47.7,0,1.25.47,1.82.47,0-.42.28-.89,0-1.18-1.44-1.44,2.61-5.53,3.47-7.39,1.64,2.11,3.42,5.46,3.42,8.1l2.92.04c-.58-2.13-2.11-6.66-3.27-8.01,1.6-1.04,2.65-3.84,2.1-6.41-.14-.62-1.54-3.15-1.06-4.9.63,3.77,4.54,6.72,3.9,1.48-.21-1.82.35-2.02.08-2.77-.01-.04-.03-.06-.04-.11l3.73-3.15-4.35,2.17Zm-25.89,13.02c-.17,1.18-.34,2.2-.53,3.11-1.39-4-.72-9.45.61-9.56-1.63,3.53-.35,4.84-.08,6.45"/>
    <path class="cls-2" d="m619.7,582.88l-.11-3.11-.62,2.82c-.72-.27-1.34-.53-1.97-.53l-.07-1.73-.38,1.78c-.82.18-1.66.84-2.74,2.51-.95,1.51-4.55,5.82-6.3,5.79l-7.58-.09c-4.34-.04-5.17-3.91-6.3-6.19-.94-1.91-.8-4.57-3.08-4.57-1.23,0-2.19,1.2-2.19,2.24,1.1-1.68,2.59-1.35,2.86-.44,1.01,3.51,2.92,7.9,4.24,9.5-1.03.4-1.55,2.04-1.17,5.08-1.65,1.49-1.66,2.64-2.48,5.7h-1.81c-.33,0-.6.25-.6.55,0,.29.26.55.6.55h5.55c.32,0,.61-.26.61-.55,0-.31-.29-.55-.61-.55h-2.35c.14-1.15.71-2.53,1.38-3.19,1.27-1.24,1.56-.55,2.53-2.46.45,3.08,2.21,4.26,2.7,5.59h-1.6c-.3,0-.54.24-.54.55,0,.29.24.53.54.53h5.02c.3,0,.55-.24.55-.53,0-.31-.25-.55-.55-.55h-2.01c-.93-1.91-1.99-4.37-1.37-6.5.73.26,4.07.91,7.68.31-.54,1.53-1.34,3.44-1.89,4.9-.37,1.07-.69,1.58-.88,2.38.88.09,1.21.02,2.17.02.55,0,.67.02,1.17,0,.3,0,.91-.47.2-.82-.36-.2-.87-.29-1.58-.49.55-.91,2.27-3.46,2.91-5.26,1.26,1.44,2.95,4.97,2.95,7.01h2.1c.31,0,.84,0,1.05-.04.27-.04.38-.16.38-.42,0-.18,0-.29-.11-.4-.31-.31-1.63-.58-2.09-.58-.32-1.36-1.02-4.15-1.82-6.5.98-1.02,1.95-2.31,1.24-4.71-.32-2.02,1.41-5.33,2.91-6.08,1.1-.55,1.95-.31,2.81-.25,1.89.14,5.4.31,4.84.14-2.34-.73-2.69-.85-4.18-1.4"/>
    <path class="cls-2" d="m762.31,536.94c-3.99-1.44-10.63.4-12.56.2-5.84-.62-6.7-4.61-9.85-5.75-.14-.02-.27-.09-.4-.11l-.11-2.04-.6,1.95c-.73-.07-1.46.09-2.02.62l-4.35-2.15,3.73,3.15s-.02.07-.04.09c-.27.76.29.98.09,2.77-.64,5.26,3.26,2.29,3.88-1.47.49,1.75-.91,4.28-1.04,4.88-.55,2.6.49,5.37,2.08,6.41-1.17,1.38-2.68,5.88-3.26,8.03l2.91-.07c0-2.64,1.78-5.99,3.42-8.1.86,1.86,4.93,5.95,3.48,7.39-.29.29,0,.78,0,1.2.55,0,1.11-.49,1.8-.49.97,0,.58-.91.58-1.47,0-2.09-1.93-5.01-3.28-6.63,1.73.49,3.04.35,4.59.07,0,.82-.26,1.66-.07,2.44l.89-.13c0-.71-.04-1.76.31-2.11.75-.75,1.4-.46,2.42-.46,0,.69-.2,1.51-.2,2.22,0,.84-.07,1.95-.35,2.59-.62,1.31-1.73,1.86-1.95,3.42.71,0,1.27.07,1.95.07.07-.07.22-1.15.49-1.55.71-1.07,1.82-1.24,2.64-2.42.4-.58,1.04-2.46,1.04-3.15.82.82,3.57,3.77,3.91,4.46.51,1.02-.85,1.95-.85,2.86h2.64c.22-.49.07-2.71-.13-3.13-.38-.78-.65-1.55-.85-2.42.69-1.33,1.6-3.24,1.64-4.77.06-2-.6-5.9-2.58-6.41m.89,11.03c-.2-.93-.38-1.93-.56-3.11.29-1.64,1.58-2.93-.07-6.48,1.33.13,2,5.57.62,9.59"/>
    <path class="cls-2" d="m735.77,499.08c.84-.05,1.71-.3,2.79.26,1.51.74,3.24,4.06,2.91,6.09-.71,2.4.27,3.67,1.24,4.7-.8,2.35-1.51,5.14-1.82,6.48-.44,0-1.78.27-2.09.6-.11.11-.11.22-.11.38,0,.27.11.38.38.42.2.04.75.04,1.07.04h2.09c0-2.02,1.69-5.55,2.95-7,.64,1.79,2.35,4.35,2.91,5.24-.71.22-1.2.31-1.58.49-.71.38-.09.82.2.84.51.02.62,0,1.16,0,.97,0,1.31.05,2.2-.02-.2-.82-.51-1.33-.89-2.38-.53-1.48-1.33-3.37-1.89-4.91,3.62.6,6.95-.05,7.68-.32.62,2.14-.44,4.59-1.38,6.5h-2c-.31,0-.56.24-.56.56,0,.29.24.55.56.55h5.01c.29,0,.53-.27.53-.55,0-.31-.24-.56-.53-.56h-1.6c.49-1.33,2.24-2.5,2.68-5.59.98,1.91,1.27,1.22,2.53,2.46.67.68,1.25,2.03,1.38,3.19h-2.35c-.31,0-.6.27-.6.56,0,.31.29.55.6.55h5.55c.33,0,.6-.24.6-.55,0-.29-.27-.56-.6-.56h-1.8c-.82-3.06-.82-4.2-2.48-5.71.38-3.03-.14-4.67-1.18-5.07,1.33-1.6,3.24-5.99,4.24-9.5.26-.91,1.75-1.23,2.86.44,0-1.03-.96-2.25-2.18-2.25-2.29,0-2.15,2.68-3.08,4.59-1.13,2.29-1.98,6.14-6.3,6.18l-7.59.08c-1.75.02-5.35-4.28-6.3-5.78-1.07-1.66-1.91-2.33-2.73-2.5l-.38-1.79-.07,1.74c-.62,0-1.24.26-1.98.53l-.62-2.83-.11,3.12c-1.49.55-1.84.65-4.2,1.39-.55.18,2.95,0,4.86-.15"/>
    <path class="cls-2" d="m762.31,622c-3.99-1.46-10.63.4-12.56.2-5.84-.62-6.7-4.64-9.85-5.75-.14-.02-.27-.09-.4-.11l-.11-2.06-.6,1.96c-.73-.05-1.46.11-2.02.64l-4.35-2.18,3.73,3.15s-.02.07-.04.11c-.27.75.29.95.09,2.77-.64,5.24,3.26,2.29,3.88-1.49.49,1.75-.91,4.28-1.04,4.9-.55,2.57.49,5.37,2.08,6.41-1.17,1.35-2.68,5.88-3.26,8.01l2.91-.04c0-2.64,1.78-5.99,3.42-8.1.86,1.86,4.93,5.95,3.48,7.39-.29.29,0,.76,0,1.18.55,0,1.11-.47,1.8-.47.97,0,.58-.93.58-1.46,0-2.08-1.93-5.01-3.28-6.63,1.73.49,3.04.33,4.59.07,0,.8-.26,1.64-.07,2.44l.89-.16c0-.69-.04-1.73.31-2.08.75-.76,1.4-.49,2.42-.49,0,.71-.2,1.53-.2,2.24,0,.82-.07,1.95-.35,2.58-.62,1.33-1.73,1.88-1.95,3.42.71,0,1.27.09,1.95.09.07-.09.22-1.15.49-1.55.71-1.07,1.82-1.27,2.64-2.44.4-.58,1.04-2.44,1.04-3.13.82.8,3.57,3.75,3.91,4.46.51,1-.85,1.95-.85,2.86h2.64c.22-.49.07-2.73-.13-3.15-.38-.78-.65-1.55-.85-2.4.69-1.33,1.6-3.24,1.64-4.77.06-2-.6-5.93-2.58-6.41m.89,11.01c-.2-.91-.38-1.93-.56-3.11.29-1.62,1.58-2.93-.07-6.46,1.33.11,2,5.57.62,9.56"/>
    <path class="cls-2" d="m735.77,584.14c.84-.06,1.71-.31,2.79.25,1.51.76,3.24,4.06,2.91,6.08-.71,2.39.27,3.68,1.24,4.7-.8,2.35-1.51,5.15-1.82,6.5-.44,0-1.78.27-2.09.58-.11.11-.11.22-.11.4,0,.27.11.38.38.42.2.04.75.04,1.07.04h2.09c0-2.04,1.69-5.57,2.95-7.01.64,1.8,2.35,4.35,2.91,5.26-.71.2-1.2.29-1.58.49-.71.35-.09.82.2.82.51.02.62,0,1.16,0,.97,0,1.31.06,2.2-.02-.2-.8-.51-1.31-.89-2.37-.53-1.47-1.33-3.37-1.89-4.9,3.62.6,6.95-.05,7.68-.31.62,2.13-.44,4.59-1.38,6.5h-2c-.31,0-.56.24-.56.55,0,.29.24.53.56.53h5.01c.29,0,.53-.24.53-.53,0-.31-.24-.55-.53-.55h-1.6c.49-1.33,2.24-2.51,2.68-5.59.98,1.91,1.27,1.22,2.53,2.46.67.67,1.25,2.04,1.38,3.19h-2.35c-.31,0-.6.25-.6.56,0,.29.29.55.6.55h5.55c.33,0,.6-.26.6-.55,0-.31-.27-.56-.6-.56h-1.8c-.82-3.06-.82-4.22-2.48-5.7.38-3.04-.14-4.68-1.18-5.08,1.33-1.6,3.24-5.99,4.24-9.5.26-.91,1.75-1.24,2.86.44,0-1.04-.96-2.24-2.18-2.24-2.29,0-2.15,2.66-3.08,4.57-1.13,2.28-1.98,6.15-6.3,6.19l-7.59.09c-1.75.02-5.35-4.28-6.3-5.79-1.07-1.67-1.91-2.33-2.73-2.51l-.38-1.78-.07,1.73c-.62,0-1.24.27-1.98.53l-.62-2.82-.11,3.11c-1.49.55-1.84.66-4.2,1.4-.55.18,2.95,0,4.86-.14"/>
    <path class="cls-2" d="m677.25,412.5c-1.62,0-2.93,1.27-2.93,2.82s1.31,2.81,2.93,2.81,2.92-1.27,2.92-2.81-1.31-2.82-2.92-2.82"/>
    <path class="cls-2" d="m661.41,414.47c-1.56.4-2.5,1.95-2.07,3.45.42,1.48,2.03,2.39,3.58,1.99,1.55-.4,2.49-1.95,2.06-3.45-.42-1.49-2.02-2.39-3.57-1.99"/>
    <path class="cls-2" d="m646.64,420.32c-1.4.78-1.87,2.51-1.07,3.84.8,1.34,2.6,1.81,3.98,1.03,1.4-.78,1.88-2.5,1.08-3.84-.81-1.34-2.6-1.8-3.99-1.03"/>
    <path class="cls-2" d="m633.96,429.64c-1.14,1.1-1.14,2.89,0,3.97,1.13,1.1,3,1.1,4.13,0,1.14-1.09,1.14-2.87,0-3.97-1.13-1.09-2.99-1.09-4.13,0"/>
    <path class="cls-2" d="m628.21,440.77c-1.4-.78-3.19-.31-4,1.03-.81,1.34-.33,3.06,1.07,3.84,1.4.77,3.2.31,4-1.03.81-1.34.32-3.07-1.07-3.84"/>
    <path class="cls-2" d="m621.67,453.97c-1.56-.4-3.17.5-3.6,1.99-.41,1.5.52,3.04,2.08,3.45,1.55.4,3.16-.5,3.58-2,.41-1.49-.51-3.03-2.06-3.44"/>
    <path class="cls-2" d="m618.89,468.37c-1.61,0-2.93,1.25-2.93,2.81s1.32,2.81,2.93,2.81,2.93-1.25,2.93-2.81-1.32-2.81-2.93-2.81"/>
    <path class="cls-2" d="m607.51,468.37c-1.61,0-2.92,1.25-2.92,2.81s1.31,2.81,2.92,2.81,2.93-1.25,2.93-2.81-1.31-2.81-2.93-2.81"/>
    <path class="cls-2" d="m596.14,468.37c-1.61,0-2.93,1.25-2.93,2.81s1.32,2.81,2.93,2.81,2.92-1.25,2.92-2.81-1.31-2.81-2.92-2.81"/>
    <path class="cls-2" d="m462,661.52c-1.61,0-2.92,1.27-2.92,2.82s1.31,2.79,2.92,2.79,2.93-1.26,2.93-2.79-1.31-2.82-2.93-2.82"/>
    <path class="cls-2" d="m450.63,661.52c-1.61,0-2.93,1.27-2.93,2.82s1.32,2.79,2.93,2.79,2.92-1.26,2.92-2.79-1.31-2.82-2.92-2.82"/>
    <path class="cls-2" d="m439.24,661.52c-1.61,0-2.92,1.27-2.92,2.82s1.31,2.79,2.92,2.79,2.93-1.26,2.93-2.79-1.32-2.82-2.93-2.82"/>
    <path class="cls-2" d="m617.16,661.52c-1.61,0-2.92,1.27-2.92,2.82s1.31,2.79,2.92,2.79,2.93-1.26,2.93-2.79-1.31-2.82-2.93-2.82"/>
    <path class="cls-2" d="m605.79,661.52c-1.62,0-2.93,1.27-2.93,2.82s1.31,2.79,2.93,2.79,2.92-1.26,2.92-2.79-1.31-2.82-2.92-2.82"/>
    <path class="cls-2" d="m594.41,661.52c-1.61,0-2.92,1.27-2.92,2.82s1.31,2.79,2.92,2.79,2.93-1.26,2.93-2.79-1.31-2.82-2.93-2.82"/>
    <path class="cls-2" d="m760.42,667.14c1.6,0,2.91-1.26,2.91-2.79s-1.31-2.82-2.91-2.82-2.93,1.27-2.93,2.82,1.31,2.79,2.93,2.79"/>
    <path class="cls-2" d="m749.04,667.14c1.62,0,2.93-1.26,2.93-2.79s-1.31-2.82-2.93-2.82-2.93,1.27-2.93,2.82,1.31,2.79,2.93,2.79"/>
    <path class="cls-2" d="m737.66,667.14c1.62,0,2.93-1.26,2.93-2.79s-1.31-2.82-2.93-2.82-2.93,1.27-2.93,2.82,1.31,2.79,2.93,2.79"/>
    <path class="cls-2" d="m915.43,667.14c1.62,0,2.93-1.26,2.93-2.79s-1.31-2.82-2.93-2.82-2.93,1.27-2.93,2.82,1.31,2.79,2.93,2.79"/>
    <path class="cls-2" d="m904.05,667.14c1.62,0,2.93-1.26,2.93-2.79s-1.31-2.82-2.93-2.82-2.93,1.27-2.93,2.82,1.33,2.79,2.93,2.79"/>
    <path class="cls-2" d="m892.66,667.14c1.62,0,2.93-1.26,2.93-2.79s-1.31-2.82-2.93-2.82-2.91,1.27-2.91,2.82,1.31,2.79,2.91,2.79"/>
    <path class="cls-2" d="m735.39,468.57c-1.62,0-2.93,1.25-2.93,2.81s1.31,2.81,2.93,2.81,2.91-1.27,2.91-2.81-1.31-2.81-2.91-2.81"/>
    <path class="cls-2" d="m746.76,468.57c-1.6,0-2.91,1.25-2.91,2.81s1.31,2.81,2.91,2.81,2.93-1.27,2.93-2.81-1.31-2.81-2.93-2.81"/>
    <path class="cls-2" d="m758.14,468.57c-1.6,0-2.93,1.25-2.93,2.81s1.33,2.81,2.93,2.81,2.93-1.27,2.93-2.81-1.31-2.81-2.93-2.81"/>
    <path class="cls-2" d="m734.17,459.6c1.58-.41,2.49-1.95,2.09-3.44-.42-1.5-2.04-2.4-3.6-1.99-1.55.4-2.49,1.94-2.06,3.44.42,1.49,2.02,2.39,3.57,1.99"/>
    <path class="cls-2" d="m730.16,441.97c-.8-1.34-2.6-1.8-4-1.03-1.4.79-1.86,2.51-1.07,3.84.8,1.34,2.6,1.81,4,1.03,1.4-.78,1.89-2.5,1.07-3.84"/>
    <path class="cls-2" d="m716.33,429.79c-1.13,1.09-1.13,2.87,0,3.97,1.13,1.1,3,1.1,4.13,0,1.15-1.1,1.15-2.89,0-3.97-1.13-1.1-2.99-1.1-4.13,0"/>
    <path class="cls-2" d="m707.81,420.42c-1.4-.77-3.17-.31-3.99,1.03-.8,1.34-.33,3.06,1.07,3.84,1.4.78,3.19.31,3.99-1.03.82-1.33.33-3.06-1.07-3.84"/>
    <path class="cls-2" d="m693.08,414.53c-1.55-.4-3.17.49-3.6,1.99-.4,1.5.53,3.04,2.09,3.44,1.55.4,3.15-.49,3.57-1.99.42-1.5-.51-3.04-2.06-3.44"/>
    <path class="cls-2" d="m870.69,661.52c-1.62,0-2.93,1.27-2.93,2.82s1.31,2.79,2.93,2.79,2.93-1.26,2.93-2.79-1.33-2.82-2.93-2.82"/>
    <path class="cls-2" d="m859.31,661.52c-1.62,0-2.93,1.27-2.93,2.82s1.31,2.79,2.93,2.79,2.93-1.26,2.93-2.79-1.31-2.82-2.93-2.82"/>
    <path class="cls-2" d="m847.93,661.52c-1.6,0-2.93,1.27-2.93,2.82s1.33,2.79,2.93,2.79,2.93-1.26,2.93-2.79-1.31-2.82-2.93-2.82"/>
    <path class="cls-2" d="m836.54,661.52c-1.6,0-2.91,1.27-2.91,2.82s1.31,2.79,2.91,2.79,2.93-1.26,2.93-2.79-1.31-2.82-2.93-2.82"/>
    <path class="cls-2" d="m825.18,661.52c-1.62,0-2.93,1.27-2.93,2.82s1.31,2.79,2.93,2.79,2.91-1.26,2.91-2.79-1.31-2.82-2.91-2.82"/>
    <path class="cls-2" d="m813.79,661.52c-1.62,0-2.93,1.27-2.93,2.82s1.31,2.79,2.93,2.79,2.91-1.26,2.91-2.79-1.31-2.82-2.91-2.82"/>
    <path class="cls-2" d="m802.41,661.52c-1.62,0-2.93,1.27-2.93,2.82s1.31,2.79,2.93,2.79,2.93-1.26,2.93-2.79-1.31-2.82-2.93-2.82"/>
    <path class="cls-2" d="m791.03,661.52c-1.6,0-2.93,1.27-2.93,2.82s1.33,2.79,2.93,2.79,2.93-1.26,2.93-2.79-1.31-2.82-2.93-2.82"/>
    <path class="cls-2" d="m779.64,661.52c-1.6,0-2.91,1.27-2.91,2.82s1.31,2.79,2.91,2.79,2.93-1.26,2.93-2.79-1.31-2.82-2.93-2.82"/>
    <path class="cls-2" d="m575.09,661.52c-1.62,0-2.93,1.27-2.93,2.82s1.31,2.79,2.93,2.79,2.92-1.26,2.92-2.79-1.31-2.82-2.92-2.82"/>
    <path class="cls-2" d="m563.7,661.52c-1.61,0-2.93,1.27-2.93,2.82s1.32,2.79,2.93,2.79,2.93-1.26,2.93-2.79-1.32-2.82-2.93-2.82"/>
    <path class="cls-2" d="m552.32,661.52c-1.61,0-2.92,1.27-2.92,2.82s1.31,2.79,2.92,2.79,2.93-1.26,2.93-2.79-1.31-2.82-2.93-2.82"/>
    <path class="cls-2" d="m540.95,661.52c-1.61,0-2.93,1.27-2.93,2.82s1.32,2.79,2.93,2.79,2.92-1.26,2.92-2.79-1.31-2.82-2.92-2.82"/>
    <path class="cls-2" d="m529.56,661.52c-1.61,0-2.92,1.27-2.92,2.82s1.31,2.79,2.92,2.79,2.93-1.26,2.93-2.79-1.31-2.82-2.93-2.82"/>
    <path class="cls-2" d="m518.19,661.52c-1.62,0-2.93,1.27-2.93,2.82s1.31,2.79,2.93,2.79,2.92-1.26,2.92-2.79-1.31-2.82-2.92-2.82"/>
    <path class="cls-2" d="m506.8,661.52c-1.61,0-2.93,1.27-2.93,2.82s1.32,2.79,2.93,2.79,2.93-1.26,2.93-2.79-1.32-2.82-2.93-2.82"/>
    <path class="cls-2" d="m495.43,661.52c-1.62,0-2.93,1.27-2.93,2.82s1.31,2.79,2.93,2.79,2.92-1.26,2.92-2.79-1.31-2.82-2.92-2.82"/>
    <path class="cls-2" d="m484.05,661.52c-1.61,0-2.93,1.27-2.93,2.82s1.32,2.79,2.93,2.79,2.92-1.26,2.92-2.79-1.31-2.82-2.92-2.82"/>
    <path class="cls-2" d="m435.14,258.71h-3.04v17.46h37.05v-17.46h-34.01Zm27.93,11.4h-24.9v-5.31h24.9v5.31Z"/>
    <path class="cls-2" d="m919.54,277.12h3.04v-17.47h-37.06v17.47h34.02Zm-27.94-11.38h24.9v5.3h-24.9v-5.3Z"/>
    <path class="cls-2" d="m593.3,259.65h-3.04v17.28h173.76v-17.28h-170.72Zm164.64,11.2h-161.6v-5.11h161.6v5.11Z"/>
    <path class="cls-2" d="m593.3,293.14h-3.04v173.13h22.53l.41-2.56c3.54-22.17,18.42-40.65,38.48-49.28,3.92-1.68,8.01-2.99,12.24-3.87,4.23-.89,8.63-1.35,13.15-1.35h.07c23.15,0,43.52,12.26,54.97,30.61,2.22,3.57,4.11,7.38,5.61,11.36,1.51,3.99,2.64,8.17,3.33,12.46v.06l.42,2.57h22.55v-173.13h-170.72Zm164.64,167.04h-11.34c-.75-3.84-1.84-7.56-3.2-11.15-1.64-4.37-3.7-8.53-6.15-12.43-12.52-20.07-34.79-33.49-60.12-33.49h-.07c-4.9.01-9.72.52-14.38,1.5-4.66.96-9.15,2.4-13.41,4.23-21.15,9.1-37.02,28.23-41.6,51.34h-11.35v-160.96h161.61v160.96Z"/>
    <path class="cls-2" d="m483.9,194.1h-3.04v62.66h97.4v-62.66h-94.36Zm88.28,56.58h-85.24v-50.5h85.24v50.5Z"/>
    <path class="cls-2" d="m575.18,185.49h3.03v-17.1h-97.34v17.1h94.31Zm-88.23-11.02h85.19v4.94h-85.19v-4.94Z"/>
    <path class="cls-2" d="m508.4,247.85h.03c4.04-.01,7.71-1.66,10.37-4.32,2.66-2.68,4.33-6.36,4.34-10.41h0v-.03c-.01-4.04-1.66-7.71-4.33-10.37-2.66-2.68-6.36-4.33-10.4-4.34h-.03c-4.04.01-7.71,1.66-10.37,4.33-2.68,2.66-4.33,6.35-4.34,10.4h0v.03c.01,4.04,1.66,7.71,4.32,10.37,2.68,2.68,6.36,4.33,10.41,4.34m-8.64-14.74h0c0-2.4.97-4.56,2.53-6.11,1.57-1.57,3.73-2.53,6.1-2.54h.03c2.39.01,4.55.97,6.1,2.54,1.57,1.55,2.53,3.72,2.54,6.09v.02h0c0,2.4-.97,4.56-2.54,6.11-1.55,1.57-3.72,2.54-6.09,2.54h-.03c-2.39,0-4.55-.97-6.1-2.53-1.57-1.56-2.54-3.73-2.54-6.1v-.02Z"/>
    <path class="cls-2" d="m550.7,247.85h.04c4.04-.01,7.7-1.66,10.36-4.32,2.67-2.68,4.34-6.36,4.34-10.41h0v-.03c-.01-4.04-1.65-7.71-4.32-10.37-2.67-2.68-6.36-4.33-10.41-4.34h-.03c-4.04.01-7.7,1.66-10.36,4.33-2.68,2.66-4.34,6.35-4.34,10.4h0v.03c.01,4.04,1.65,7.71,4.32,10.37,2.67,2.68,6.36,4.33,10.4,4.34m-8.63-14.74h0c0-2.4.96-4.56,2.53-6.11,1.57-1.57,3.72-2.53,6.09-2.54h.03c2.38.01,4.55.97,6.11,2.54,1.55,1.55,2.53,3.72,2.53,6.09v.02h0c0,2.4-.97,4.56-2.53,6.11-1.56,1.57-3.72,2.54-6.09,2.54h-.04c-2.38,0-4.54-.97-6.1-2.53-1.55-1.56-2.53-3.73-2.53-6.1v-.02Z"/>
    <path class="cls-2" d="m483.55,271.08h-3.04v385.67h98.11v-385.67h-95.07Zm88.99,379.59h-85.95v-373.51h85.95v373.51Z"/>
    <path class="cls-2" d="m870.8,185.49h3.04v-17.1h-97.35v17.1h94.31Zm-88.23-11.02h85.19v4.94h-85.19v-4.94Z"/>
    <path class="cls-2" d="m779.51,194.1h-3.04v62.66h97.4v-62.66h-94.36Zm88.28,56.58h-85.24v-50.5h85.24v50.5Z"/>
    <path class="cls-2" d="m804.01,247.85h.05c4.02-.01,7.7-1.66,10.36-4.32,2.66-2.68,4.33-6.36,4.33-10.41h0v-.03c0-4.04-1.66-7.71-4.31-10.37-2.68-2.68-6.37-4.33-10.41-4.34h-.04c-4.04.01-7.7,1.66-10.37,4.33-2.66,2.66-4.33,6.35-4.33,10.4h0v.03c0,4.04,1.64,7.71,4.31,10.37,2.66,2.68,6.35,4.33,10.41,4.34m-8.65-14.74h0c.02-2.4.98-4.56,2.55-6.11,1.56-1.57,3.71-2.53,6.08-2.54h.04c2.38.01,4.55.97,6.1,2.54,1.55,1.55,2.53,3.72,2.53,6.09v.02h0c0,2.4-.98,4.56-2.53,6.11-1.55,1.57-3.71,2.54-6.08,2.54h-.05c-2.37,0-4.55-.97-6.1-2.53-1.57-1.56-2.53-3.73-2.55-6.1v-.02Z"/>
    <path class="cls-2" d="m846.31,247.85h.04c4.04-.01,7.7-1.66,10.37-4.32,2.68-2.68,4.33-6.36,4.35-10.41h0v-.03c-.02-4.04-1.66-7.71-4.33-10.37-2.66-2.68-6.35-4.33-10.41-4.34h-.02c-4.04.01-7.72,1.66-10.39,4.33-2.66,2.66-4.33,6.35-4.33,10.4h0v.03c0,4.04,1.66,7.71,4.31,10.37,2.68,2.68,6.37,4.33,10.41,4.34m-8.63-14.74h0c0-2.4.98-4.56,2.53-6.11,1.55-1.57,3.73-2.53,6.1-2.54h.02c2.4.01,4.55.97,6.1,2.54,1.57,1.55,2.53,3.72,2.55,6.09v.02h0c0,2.4-.98,4.56-2.55,6.11-1.55,1.57-3.71,2.54-6.08,2.54h-.04c-2.38,0-4.55-.97-6.1-2.53-1.55-1.56-2.53-3.73-2.53-6.1v-.02Z"/>
    <path class="cls-2" d="m779.16,271.08h-3.04v385.67h98.11v-385.67h-95.07Zm88.99,379.59h-85.95v-373.51h85.95v373.51Z"/>
    <path class="cls-2" d="m928.19,244.51v-4.9h-1.91v-4.85h-5.44v4.85h-1.86v4.9h-3.64v6.17h-8.14v-6.17h-3.66v-4.9h-1.84v-4.85h-5.44v4.85h-1.91v4.9h-3.6v6.17h-8.1v-88.04h.04v-9.39h-3.66v-4.91h-1.84v-4.86h-5.44v4.86h-1.86v4.91h-3.66v6.47h-8.15v-6.47h-3.64v-4.91h-1.93v-4.86h-5.44v4.86h-1.84v4.91h-3.66v6.47h-8.17v-6.47h-3.64v-4.91h-1.86v-4.86h-5.41v4.86h-1.93v4.91h-3.57v6.47h-8.23v-6.47h-3.59v-4.91h-1.91v-4.86h-5.44v4.86h-1.86v4.91h-3.64v6.47h-8.16v-6.47h-3.64v-4.91h-1.86v-4.86h-5.44v4.86h-1.91v4.91h-3.64v9.39h.02v88.04h-8.23v-6.17h-3.59v-4.9h-1.91v-4.85h-5.44v4.85h-1.86v4.9h-3.64v6.17h-8.14v-6.17h-3.66v-4.9h-1.84v-4.85h-5.44v4.85h-1.93v4.9h-3.64v6.17h-8.14v-6.17h-3.6v-4.9h-1.91v-4.85h-5.44v4.85h-1.91v4.9h-3.6v6.17h-8.14v-6.17h-3.65v-4.9h-1.92v-4.85h-5.36v4.85h-1.92v4.9h-3.65v6.17h-8.16v-6.17h-3.64v-4.9h-1.85v-4.85h-5.44v4.85h-1.85v4.9h-3.64v6.17h-8.16v-6.17h-3.65v-4.9h-1.91v-4.85h-5.45v4.85h-1.84v4.9h-3.65v6.17h-8.15v-6.17h-3.64v-4.9h-1.85v-4.85h-5.44v4.85h-1.92v4.9h-3.59v6.17h-8.26v-97.43h-3.58v-4.91h-1.91v-4.86h-5.45v4.86h-1.85v4.91h-3.64v6.47h-8.17v-6.47h-3.65v-4.91h-1.91v-4.86h-5.44v4.86h-1.85v4.91h-3.65v6.47h-8.17v-6.47h-3.65v-4.91h-1.85v-4.86h-5.44v4.86h-1.91v4.91h-3.6v6.47h-8.22v-6.47h-3.59v-4.91h-1.92v-4.86h-5.44v4.86h-1.85v4.91h-3.65v6.47h-8.16v-6.47h-3.65v-4.91h-1.85v-4.86h-5.44v4.86h-1.92v4.91h-3.58v9.39h0v88.04h-8.1v-6.17h-3.58v-4.9h-1.92v-4.85h-5.44v4.85h-1.85v4.9h-3.64v6.17h-8.16v-6.17h-3.65v-4.9h-1.84v-4.85h-5.45v4.85h-1.91v4.9h-3.58v9.39h.02v423.65h207.28v-202.18c-.01-.5-.02-.99-.02-1.43,0-12.57,5.08-24.09,13.29-32.57,8.22-8.49,19.59-13.93,32.15-14.31.51-.01.99-.02,1.44-.02.42,0,.87.01,1.33.02,12.61.36,24.02,5.79,32.25,14.29,8.23,8.49,13.31,20.04,13.31,32.64,0,.41,0,.85-.02,1.33v202.22h207.82V253.9h.02v-9.39h-3.66Zm-499.12,54.76h43.02v351.41h-43.02v-351.41Zm49.09-33.53h102.81v405.57h-102.81v-405.57Zm108.89,217.08h37.14v167.85h-37.14v-167.85Zm-157.98,173.93h43.02v14.71h-43.02v-14.71Zm157.98,0h37.14v14.71h-37.14v-14.71Zm186.71-391.02h102.81v405.57h-102.81v-405.57Zm-6.08,384.94h-37.59v-167.85h37.59v167.85Zm0,20.79h-37.59v-14.71h37.59v14.71Zm158.07,0h-43.1v-14.71h43.1v14.71Zm0-20.79h-43.1v-351.41h43.1v351.41Zm0-357.49h-43.1v-33.53h-114.98v217.1h-37.59v-1.28c0-.47.02-.96.02-1.49,0-14.22-5.75-27.29-15.07-36.88-9.3-9.59-22.17-15.73-36.41-16.13-.48-.01-.97-.02-1.5-.02-.57,0-1.1.01-1.6.02-14.21.44-27.05,6.58-36.34,16.15-9.3,9.59-15.03,22.6-15.03,36.8,0,.53.01,1.03.02,1.52v1.3h-37.14v-217.1h-114.96v33.53h-43.02v-36.44h49.09v-90.95h102.81v90.95h192.79v-90.95h102.81v90.95h49.18v36.44Z"/>
    <path class="cls-3" d="m404.8,1009.55c-1.6.07-3.12.11-4.58.11-6.46,0-11.64-.87-15.54-2.61-3.64-1.6-8.15-5.09-13.52-10.49l-7.18-7.18c-4.76-4.76-8.5-8-11.23-9.74-3.63.14-6.11.21-7.43.21-1.43,0-3.28-.07-5.56-.21v18.41c0,4.08,1.21,6.58,3.62,7.51,1.21.46,2.89.69,5.06.69h2.5v2.08h-30.82v-2.08h1.86c3.41,0,5.71-.65,6.92-1.94,1.21-1.29,1.81-3.66,1.81-7.1v-45.88c0-3.26-.57-5.54-1.7-6.81-1.14-1.28-3.3-1.92-6.49-1.92h-2.39v-2.08c1.42,0,4.61-.14,9.57-.43,1.21-.07,2.59-.14,4.15-.21,4.61-.21,9.18-.32,13.72-.32,9.68,0,17.03,1.81,22.07,5.42,4.75,3.44,7.12,8.08,7.12,13.92,0,4.32-1.38,8.08-4.14,11.27-2.58,2.98-6.03,5.1-10.34,6.38,3.34,2.6,7.49,6.38,12.45,11.35l8.62,8.64c4.54,4.55,9.08,7.68,13.62,9.38,2.38.89,4.98,1.44,7.82,1.65v1.97Zm-38.27-49.95c0-7.69-2.86-12.91-8.57-15.68-3.16-1.52-7.42-2.29-12.77-2.29-2.34,0-4.15.07-5.43.21v35.71c1.24.14,3.5.21,6.76.21,13.34,0,20.01-6.06,20.01-18.18"/>
    <path class="cls-3" d="m465.42,992.09l-1.76,16.23h-57.91v-2.08h3.03c5.36,0,8.53-1.21,9.53-3.62.5-1.24.74-3.02.74-5.32v-45.98c0-4.15-1.06-6.76-3.19-7.82-1.24-.6-3.09-.9-5.54-.9h-2.39v-2.08h52.37l.9,15.17h-2.02c-1.1-7.45-3.8-11.18-8.09-11.18h-22.99v26.72h19.49c2.3,0,3.95-.83,4.94-2.49.67-1.13,1.11-3.01,1.33-5.66h2.13v20.65h-2.13c-.36-3.1-.9-5.2-1.65-6.29-1.03-1.52-2.94-2.27-5.74-2.27h-18.38v23.22c0,2.23.43,3.78,1.28,4.65.85.87,2.39,1.3,4.63,1.3h16.76c4.65,0,7.89-1.61,9.74-4.82.99-1.73,1.97-4.2,2.93-7.42h1.97Z"/>
    <path class="cls-3" d="m518.7,991.45c0,5.75-2.32,10.36-6.97,13.84-4.22,3.19-9.3,4.79-15.22,4.79-2.56,0-6.33-.69-11.34-2.08-2.2-.6-3.48-.9-3.83-.9-.92,0-1.65.41-2.18,1.23h-1.86l-2.29-16.55h2.13c1.1,4.56,3.25,8.23,6.47,11,3.36,2.92,7.32,4.38,11.88,4.38,4.1,0,7.57-1.08,10.4-3.25,3.08-2.41,4.62-5.61,4.62-9.59,0-3.69-2.09-7.33-6.27-10.92-1.52-1.31-5.15-3.8-10.89-7.46-5.63-3.55-9.57-6.43-11.8-8.63-4-3.94-6-8.15-6-12.62,0-6.21,3.18-10.8,9.53-13.74,2.95-1.39,6.24-2.08,9.9-2.08s7.26.64,11.02,1.92c1.67.57,2.93.85,3.78.85.78,0,1.44-.37,1.97-1.12h1.76l1.86,13.84h-1.92c-1.45-3.8-3.71-6.85-6.79-9.15-3.22-2.45-6.79-3.67-10.71-3.67-3.39,0-6.2.83-8.43,2.5-2.47,1.85-3.71,4.42-3.71,7.72,0,3.62,2.05,7.15,6.16,10.59,1.27,1.06,4.87,3.44,10.79,7.13,5.63,3.55,9.64,6.51,12.01,8.89,3.97,4.05,5.95,8.41,5.95,13.09"/>
    <path class="cls-3" d="m593.95,956.54h-2.02c-.99-6-2.41-9.68-4.25-11.02-.96-.67-2.18-1.01-3.66-1.01h-18.96v53.81c0,3.05.69,5.16,2.08,6.33,1.24,1.06,3.42,1.6,6.55,1.6h4.04v2.08h-34.33v-2.08h3.99c3.12,0,5.3-.53,6.55-1.6,1.38-1.17,2.07-3.28,2.07-6.33v-53.81h-18.91c-2.69,0-4.69,1.41-6,4.24-.64,1.38-1.29,3.98-1.96,7.79h-1.97l1.7-17.67h2.07c.18,1.1,1.31,1.65,3.41,1.65h52.42c2.06,0,3.18-.55,3.35-1.65h2.08l1.76,17.67Z"/>
    <path class="cls-3" d="m670.65,1008.32h-29.96v-2.08h2.82c2.62,0,4.4-.11,5.32-.32,2.13-.5,3.19-1.63,3.19-3.41,0-.89-.39-2.38-1.17-4.47l-7.34-19.8h-22.57l-6.28,17.08c-1.46,3.97-2.18,6.26-2.18,6.86,0,2.7,2.95,4.05,8.83,4.05h1.7v2.08h-25.17v-2.08c4.43-.14,7.31-1.33,8.62-3.57.85-1.45,1.9-3.87,3.14-7.24l19.85-54.18-.96-2.39h9.47l22.78,60.51c1.35,3.55,3.12,5.66,5.32,6.33,1.14.36,2.66.53,4.58.53v2.08Zm-29.01-34.81l-9.58-25.49-9.26,25.49h18.84Z"/>
    <path class="cls-3" d="m756.17,942.59c-3.58.07-6.13.87-7.64,2.4-1.51,1.53-2.26,4.06-2.26,7.61v29.43c0,6.07-1.53,11.34-4.58,15.81-3.05,4.47-7.34,7.75-12.88,9.85-4.15,1.6-9.08,2.39-14.8,2.39-10.04,0-17.87-2.64-23.47-7.93-5.36-4.97-8.04-11.48-8.04-19.53v-31.83c0-4.26-1.14-6.76-3.41-7.51-1.24-.39-3.23-.62-5.96-.69v-2.08h27.99v2.08h-.96c-3.12,0-5.34.57-6.65,1.71-1.31,1.14-1.97,3.23-1.97,6.29v30.31c0,7.63,2.25,13.51,6.77,17.63,4.33,3.94,10.37,5.91,18.11,5.91,16.59,0,24.88-7.88,24.88-23.65v-25.41c0-6.53-1.22-10.39-3.67-11.56-1.42-.64-3.76-1.05-7.03-1.23v-2.08h25.55v2.08Z"/>
    <path class="cls-3" d="m844.26,1009.55c-1.6.07-3.12.11-4.58.11-6.46,0-11.64-.87-15.54-2.61-3.64-1.6-8.15-5.09-13.52-10.49l-7.18-7.18c-4.76-4.76-8.5-8-11.23-9.74-3.63.14-6.11.21-7.43.21-1.42,0-3.28-.07-5.56-.21v18.41c0,4.08,1.21,6.58,3.62,7.51,1.21.46,2.89.69,5.06.69h2.5v2.08h-30.82v-2.08h1.86c3.41,0,5.71-.65,6.92-1.94,1.21-1.29,1.81-3.66,1.81-7.1v-45.88c0-3.26-.57-5.54-1.7-6.81-1.14-1.28-3.3-1.92-6.49-1.92h-2.39v-2.08c1.42,0,4.61-.14,9.57-.43,1.21-.07,2.59-.14,4.15-.21,4.61-.21,9.18-.32,13.72-.32,9.68,0,17.03,1.81,22.07,5.42,4.75,3.44,7.12,8.08,7.12,13.92,0,4.32-1.38,8.08-4.14,11.27-2.58,2.98-6.03,5.1-10.34,6.38,3.34,2.6,7.49,6.38,12.45,11.35l8.62,8.64c4.54,4.55,9.08,7.68,13.62,9.38,2.38.89,4.98,1.44,7.82,1.65v1.97Zm-38.27-49.95c0-7.69-2.86-12.91-8.57-15.68-3.16-1.52-7.42-2.29-12.77-2.29-2.34,0-4.15.07-5.43.21v35.71c1.24.14,3.5.21,6.76.21,13.34,0,20.01-6.06,20.01-18.18"/>
    <path class="cls-3" d="m918.13,1008.32h-29.97v-2.08h2.82c2.62,0,4.4-.11,5.32-.32,2.13-.5,3.19-1.63,3.19-3.41,0-.89-.39-2.38-1.17-4.47l-7.34-19.8h-22.57l-6.28,17.08c-1.46,3.97-2.18,6.26-2.18,6.86,0,2.7,2.94,4.05,8.83,4.05h1.7v2.08h-25.17v-2.08c4.44-.14,7.31-1.33,8.62-3.57.85-1.45,1.9-3.87,3.14-7.24l19.85-54.18-.96-2.39h9.47l22.78,60.51c1.35,3.55,3.12,5.66,5.32,6.33,1.13.36,2.66.53,4.58.53v2.08Zm-29.01-34.81l-9.58-25.49-9.26,25.49h18.84Z"/>
    <path class="cls-3" d="m1005.42,942.59c-3.3,0-5.52.21-6.65.64-2.16.74-3.25,2.43-3.25,5.06v60.78h-2.77l-56.52-59.08v46.78c0,5,1.31,7.91,3.94,8.73,1.49.5,3.85.74,7.08.74v2.08h-25.28v-2.08h.48c5.96,0,8.94-2.43,8.94-7.29v-53.65c-2.48-1.7-5.53-2.61-9.15-2.72v-2.08h17.08l51.36,53.54v-43.38c0-4.15-1.35-6.6-4.04-7.35-1.53-.43-3.74-.67-6.65-.75v-2.08h25.44v2.08Z"/>
    <path class="cls-3" d="m1077.59,956.54h-2.02c-.99-6-2.41-9.68-4.25-11.02-.96-.67-2.18-1.01-3.67-1.01h-18.96v53.81c0,3.05.69,5.16,2.07,6.33,1.24,1.06,3.42,1.6,6.55,1.6h4.05v2.08h-34.33v-2.08h3.99c3.12,0,5.3-.53,6.55-1.6,1.38-1.17,2.08-3.28,2.08-6.33v-53.81h-18.91c-2.69,0-4.69,1.41-6,4.24-.64,1.38-1.29,3.98-1.97,7.79h-1.97l1.7-17.67h2.07c.18,1.1,1.31,1.65,3.41,1.65h52.42c2.06,0,3.18-.55,3.35-1.65h2.08l1.76,17.67Z"/>
    <path class="cls-2" d="m238.93,1113.35c-3.35.21-5.03,1.72-5.03,4.54v10.02c-5.81,3.02-12.25,4.54-19.3,4.54-4.48,0-8.49-.99-12.02-2.95-3.73-2.09-6.55-5.07-8.47-8.96-1.74-3.47-2.6-7.06-2.6-10.76,0-6.19,2.04-11.66,6.12-16.42,4.52-5.3,10.85-7.94,18.99-7.94,3.66,0,7.78.66,12.38,1.97,1.15.33,1.8.49,1.97.49.7,0,1.25-.16,1.65-.49h1.02v11.64h-1.48c-1.69-7.88-6.61-11.81-14.77-11.81-6.02,0-10.78,2.21-14.27,6.62-3.26,4.13-4.89,9.3-4.89,15.49,0,6.81,2.04,12.16,6.12,16.06,3.68,3.55,7.87,5.32,12.56,5.32,3.66,0,7.33-.92,11.02-2.75v-9.09c0-2.11-.43-3.56-1.28-4.33-.86-.78-2.35-1.16-4.48-1.16h-2.67v-1.34h19.44v1.34Z"/>
    <path class="cls-2" d="m297.99,1132.09c-1.05.05-2.06.07-3.02.07-4.27,0-7.69-.57-10.27-1.72-2.41-1.05-5.38-3.36-8.93-6.93l-4.75-4.75c-3.14-3.14-5.61-5.29-7.42-6.43-2.4.09-4.04.14-4.91.14-.94,0-2.16-.05-3.67-.14v12.16c0,2.7.8,4.35,2.39,4.96.8.3,1.91.46,3.34.46h1.65v1.37h-20.35v-1.37h1.23c2.25,0,3.77-.43,4.57-1.28.8-.85,1.2-2.42,1.2-4.69v-30.3c0-2.16-.38-3.66-1.12-4.5-.75-.84-2.18-1.27-4.29-1.27h-1.58v-1.37c.94,0,3.04-.09,6.32-.28.8-.05,1.71-.09,2.74-.14,3.04-.14,6.06-.21,9.06-.21,6.39,0,11.25,1.19,14.58,3.58,3.14,2.27,4.71,5.34,4.71,9.2,0,2.85-.91,5.34-2.73,7.44-1.7,1.97-3.98,3.37-6.83,4.21,2.2,1.71,4.95,4.21,8.23,7.5l5.7,5.7c3,3.01,6,5.07,9,6.2,1.57.59,3.29.95,5.17,1.09v1.3Zm-25.28-32.99c0-5.08-1.89-8.53-5.66-10.35-2.09-1.01-4.9-1.51-8.44-1.51-1.55,0-2.74.05-3.59.14v23.59c.82.09,2.31.14,4.46.14,8.81,0,13.22-4,13.22-12.01"/>
    <path class="cls-2" d="m319.16,1131.28h-17.51v-1.37c2.25-.09,3.73-.59,4.43-1.48.66-.82.98-2.39.98-4.71v-30.66c0-1.94-.42-3.29-1.26-4.04-.75-.66-2.13-1.04-4.15-1.16v-1.37h17.51v1.37c-3.02,0-4.86.73-5.52,2.18-.4.84-.6,2.06-.6,3.66v30.52c0,2.84.79,4.56,2.35,5.17.89.35,2.15.53,3.76.53v1.37Z"/>
    <path class="cls-2" d="m361.56,1120.77l-5.56,10.51h-32.17v-1.37h2.39c1.71,0,2.89-.36,3.55-1.07.66-.71.98-1.94.98-3.67v-31.89c0-2.06-.42-3.48-1.27-4.25-.84-.77-2.32-1.16-4.43-1.16h-1.02v-1.37h21.24v1.37h-2.67c-3.07,0-4.86.56-5.38,1.68-.33.68-.49,1.77-.49,3.27v33.16c0,1.78.95,2.67,2.84,2.67h10.6c2.46,0,4.51-.94,6.14-2.83.84-.98,2.14-2.66,3.9-5.04h1.34Z"/>
    <path class="cls-2" d="m401.28,1120.77l-5.56,10.51h-32.17v-1.37h2.39c1.71,0,2.89-.36,3.55-1.07.66-.71.98-1.94.98-3.67v-31.89c0-2.06-.42-3.48-1.27-4.25-.84-.77-2.32-1.16-4.43-1.16h-1.02v-1.37h21.24v1.37h-2.67c-3.07,0-4.86.56-5.38,1.68-.33.68-.49,1.77-.49,3.27v33.16c0,1.78.95,2.67,2.84,2.67h10.6c2.46,0,4.51-.94,6.14-2.83.84-.98,2.14-2.66,3.9-5.04h1.34Z"/>
    <path class="cls-3" d="m470.96,1102.53c-3.16,0-5.2.46-6.12,1.37-.8.8-1.91,2.37-3.34,4.74-2.02,3.37-3.06,5.1-3.13,5.19-1.15,1.71-2.59,3.57-4.32,5.58,1.03,1.75,2.62,4.36,4.78,7.81,1.17,1.73,2.46,2.59,3.87,2.59s3.31-.81,5.62-2.43l.63,1.16c-3.16,2.51-6.11,3.76-8.85,3.76s-4.77-1.09-6.29-3.27c-.84-1.2-1.96-3.08-3.34-5.66-3.57,3.8-7.26,6.42-11.08,7.88-1.85.7-3.63,1.05-5.35,1.05-3.33,0-6.11-1.15-8.34-3.45-2.23-2.3-3.34-5.11-3.34-8.44,0-3.91,1.76-7.11,5.27-9.6,1.85-1.31,4.29-2.58,7.31-3.8-3.4-2.93-5.1-6.05-5.1-9.35,0-2.7.99-4.79,2.96-6.29,1.76-1.38,4.04-2.07,6.83-2.07,3.69,0,6.36,1.11,8.03,3.34.77,1.08,1.16,2.3,1.16,3.66,0,3.42-2.72,6.47-8.17,9.14,4.94,3.35,9.12,7.59,12.54,12.73,5.99-7.6,8.99-12.33,8.99-14.21,0-.96-1.32-1.44-3.97-1.44v-1.34h12.73v1.34Zm-21.29,19.62c-3.26-5.48-7.81-10.24-13.67-14.27-5.13,3.54-7.69,7.44-7.69,11.69,0,2.7.79,4.9,2.35,6.6,1.57,1.7,3.69,2.55,6.36,2.55,2.18,0,4.5-.67,6.95-2.01,2.32-1.25,4.22-2.77,5.69-4.56m-5.26-25.33c0-1.73-.43-3.14-1.3-4.24-.96-1.19-2.28-1.79-3.96-1.79-3.15,0-4.73,1.72-4.73,5.15,0,3.09,1.78,5.96,5.33,8.63,3.1-1.85,4.65-4.43,4.65-7.75"/>
    <path class="cls-2" d="m512.73,1120.14c0,3.8-1.54,6.84-4.61,9.14-2.79,2.11-6.14,3.16-10.05,3.16-1.69,0-4.18-.46-7.49-1.37-1.45-.4-2.3-.6-2.53-.6-.61,0-1.09.27-1.44.81h-1.23l-1.51-10.93h1.41c.72,3.01,2.15,5.43,4.27,7.27,2.22,1.93,4.84,2.89,7.85,2.89,2.71,0,5-.71,6.87-2.15,2.03-1.6,3.05-3.7,3.05-6.33,0-2.44-1.38-4.84-4.14-7.21-1.01-.87-3.4-2.51-7.2-4.93-3.72-2.35-6.32-4.25-7.79-5.7-2.64-2.6-3.97-5.38-3.97-8.34,0-4.11,2.1-7.13,6.29-9.08,1.95-.91,4.12-1.37,6.54-1.37s4.79.42,7.28,1.26c1.1.38,1.93.56,2.5.56.51,0,.95-.25,1.3-.74h1.16l1.23,9.14h-1.26c-.96-2.51-2.45-4.52-4.48-6.05-2.13-1.62-4.48-2.43-7.08-2.43-2.24,0-4.1.55-5.57,1.65-1.64,1.22-2.45,2.92-2.45,5.1,0,2.39,1.36,4.72,4.07,7,.84.7,3.22,2.27,7.12,4.71,3.72,2.34,6.37,4.3,7.93,5.87,2.62,2.67,3.93,5.55,3.93,8.65"/>
    <path class="cls-2" d="m570.95,1131.28h-20.39v-1.37h2.25c2.86,0,4.59-.76,5.2-2.29.3-.77.46-1.82.46-3.13v-14.59h-28.2v13.68c0,2.37.36,3.98,1.09,4.85.8.99,2.34,1.48,4.64,1.48h.21v1.37h-18.07v-1.37h.46c2.79,0,4.51-.69,5.17-2.07.35-.77.53-1.83.53-3.16v-31.71c0-1.88-.4-3.18-1.2-3.9-.73-.66-2.06-1.05-4.01-1.2v-1.37h17.12v1.37c-3.16,0-5.01.87-5.52,2.6-.28.98-.42,2.42-.42,4.32v12.49h28.2v-14.14c0-2.04-.43-3.44-1.3-4.21-.82-.7-2.27-1.05-4.36-1.05h-1.37v-1.37h18.49v1.37c-2.79.09-4.45.89-4.99,2.39-.33.87-.49,2.04-.49,3.51v29.88c0,3.21.77,5.12,2.32,5.73.82.35,1.97.53,3.45.53h.74v1.37Z"/>
    <path class="cls-2" d="m593.76,1131.28h-17.51v-1.37c2.25-.09,3.73-.59,4.43-1.48.66-.82.98-2.39.98-4.71v-30.66c0-1.94-.42-3.29-1.26-4.04-.75-.66-2.13-1.04-4.15-1.16v-1.37h17.51v1.37c-3.02,0-4.86.73-5.52,2.18-.4.84-.6,2.06-.6,3.66v30.52c0,2.84.78,4.56,2.35,5.17.89.35,2.15.53,3.76.53v1.37Z"/>
    <path class="cls-2" d="m629.03,1120.14c0,3.8-1.54,6.84-4.61,9.14-2.79,2.11-6.14,3.16-10.05,3.16-1.69,0-4.18-.46-7.49-1.37-1.45-.4-2.3-.6-2.53-.6-.61,0-1.09.27-1.44.81h-1.23l-1.51-10.93h1.41c.72,3.01,2.15,5.43,4.28,7.27,2.22,1.93,4.84,2.89,7.85,2.89,2.71,0,5-.71,6.87-2.15,2.03-1.6,3.05-3.7,3.05-6.33,0-2.44-1.38-4.84-4.14-7.21-1.01-.87-3.4-2.51-7.2-4.93-3.72-2.35-6.32-4.25-7.79-5.7-2.64-2.6-3.97-5.38-3.97-8.34,0-4.11,2.1-7.13,6.29-9.08,1.95-.91,4.12-1.37,6.54-1.37s4.79.42,7.28,1.26c1.1.38,1.93.56,2.5.56.51,0,.95-.25,1.3-.74h1.16l1.23,9.14h-1.27c-.96-2.51-2.45-4.52-4.48-6.05-2.13-1.62-4.48-2.43-7.08-2.43-2.24,0-4.1.55-5.57,1.65-1.64,1.22-2.45,2.92-2.45,5.1,0,2.39,1.36,4.72,4.07,7,.84.7,3.22,2.27,7.12,4.71,3.72,2.34,6.37,4.3,7.93,5.87,2.62,2.67,3.93,5.55,3.93,8.65"/>
    <path class="cls-2" d="m687.24,1131.28h-20.39v-1.37h2.25c2.86,0,4.59-.76,5.2-2.29.3-.77.46-1.82.46-3.13v-14.59h-28.2v13.68c0,2.37.36,3.98,1.09,4.85.8.99,2.34,1.48,4.64,1.48h.21v1.37h-18.07v-1.37h.46c2.79,0,4.51-.69,5.17-2.07.35-.77.53-1.83.53-3.16v-31.71c0-1.88-.4-3.18-1.2-3.9-.73-.66-2.06-1.05-4.01-1.2v-1.37h17.12v1.37c-3.16,0-5.01.87-5.52,2.6-.28.98-.42,2.42-.42,4.32v12.49h28.2v-14.14c0-2.04-.43-3.44-1.3-4.21-.82-.7-2.27-1.05-4.36-1.05h-1.37v-1.37h18.49v1.37c-2.79.09-4.45.89-4.99,2.39-.33.87-.49,2.04-.49,3.51v29.88c0,3.21.77,5.12,2.32,5.73.82.35,1.97.53,3.45.53h.74v1.37Z"/>
    <path class="cls-2" d="m737.69,1131.28h-19.79v-1.37h1.86c1.73,0,2.91-.07,3.52-.21,1.41-.33,2.11-1.08,2.11-2.25,0-.59-.26-1.57-.77-2.95l-4.85-13.08h-14.91l-4.15,11.28c-.96,2.62-1.44,4.14-1.44,4.54,0,1.78,1.95,2.67,5.84,2.67h1.12v1.37h-16.63v-1.37c2.93-.09,4.83-.88,5.7-2.35.56-.96,1.25-2.55,2.07-4.78l13.11-35.79-.63-1.58h6.26l15.05,39.97c.89,2.34,2.06,3.74,3.52,4.18.75.23,1.76.35,3.02.35v1.37Zm-19.16-22.99l-6.33-16.84-6.12,16.84h12.45Z"/>
    <path class="cls-2" d="m786,1120.77l-5.56,10.51h-32.17v-1.37h2.39c1.71,0,2.89-.36,3.55-1.07.65-.71.98-1.94.98-3.67v-31.89c0-2.06-.42-3.48-1.27-4.25-.84-.77-2.32-1.16-4.43-1.16h-1.02v-1.37h21.23v1.37h-2.67c-3.07,0-4.86.56-5.38,1.68-.33.68-.49,1.77-.49,3.27v33.16c0,1.78.95,2.67,2.84,2.67h10.6c2.46,0,4.51-.94,6.14-2.83.84-.98,2.14-2.66,3.9-5.04h1.34Z"/>
    <path class="cls-2" d="m842,1107.66c0,7.15-2.49,13.07-7.47,17.75-4.98,4.69-11.03,7.03-18.16,7.03-4.55,0-8.75-.88-12.62-2.64-4.12-1.9-7.41-4.63-9.84-8.19-2.34-3.42-3.51-7.32-3.51-11.71,0-4.64,1.11-8.84,3.32-12.59,2.22-3.75,5.37-6.68,9.47-8.79,4.01-2.09,8.52-3.13,13.54-3.13,6.96,0,12.91,2.12,17.86,6.36s7.42,9.54,7.42,15.89m-6.75,2.39c0-6.69-1.9-12.17-5.71-16.44-3.8-4.27-8.7-6.41-14.69-6.41s-10.25,2.27-13.49,6.8c-2.84,3.99-4.26,8.55-4.26,13.66,0,4.16.85,7.97,2.54,11.45,1.81,3.71,4.39,6.58,7.75,8.63,3.19,1.97,6.69,2.96,10.49,2.96,7.37,0,12.51-3.53,15.43-10.6,1.29-3.17,1.94-6.51,1.94-10.04"/>
    <path class="cls-2" d="m901.98,1087.87c-2.37.05-4.05.57-5.05,1.58-1,1.01-1.49,2.68-1.49,5.03v19.44c0,4.01-1.01,7.49-3.02,10.44-2.01,2.95-4.85,5.12-8.51,6.5-2.74,1.06-6,1.58-9.77,1.58-6.63,0-11.8-1.75-15.5-5.24-3.54-3.28-5.31-7.58-5.31-12.9v-21.02c0-2.81-.75-4.46-2.25-4.96-.82-.26-2.13-.41-3.94-.46v-1.37h18.49v1.37h-.63c-2.06,0-3.53.38-4.4,1.13-.87.75-1.3,2.14-1.3,4.15v20.02c0,5.04,1.49,8.93,4.47,11.65,2.86,2.6,6.85,3.91,11.97,3.91,10.96,0,16.43-5.21,16.43-15.62v-16.79c0-4.31-.81-6.86-2.42-7.63-.94-.42-2.49-.69-4.64-.81v-1.37h16.88v1.37Z"/>
    <path class="cls-2" d="m960.16,1087.87c-2.18,0-3.65.14-4.4.42-1.43.49-2.14,1.6-2.14,3.34v40.15h-1.83l-37.34-39.02v30.9c0,3.31.87,5.23,2.6,5.77.99.33,2.54.49,4.68.49v1.37h-16.7v-1.37h.32c3.94,0,5.91-1.61,5.91-4.82v-35.44c-1.64-1.12-3.66-1.72-6.05-1.79v-1.37h11.29l33.93,35.37v-28.65c0-2.74-.89-4.36-2.67-4.85-1.01-.28-2.47-.44-4.4-.49v-1.37h16.81v1.37Z"/>
    <path class="cls-2" d="m1012.93,1113.35c-3.35.21-5.03,1.72-5.03,4.54v10.02c-5.81,3.02-12.25,4.54-19.3,4.54-4.48,0-8.49-.99-12.02-2.95-3.73-2.09-6.55-5.07-8.47-8.96-1.73-3.47-2.6-7.06-2.6-10.76,0-6.19,2.04-11.66,6.12-16.42,4.52-5.3,10.85-7.94,18.98-7.94,3.66,0,7.78.66,12.38,1.97,1.15.33,1.8.49,1.97.49.7,0,1.25-.16,1.65-.49h1.02v11.64h-1.48c-1.69-7.88-6.61-11.81-14.77-11.81-6.02,0-10.78,2.21-14.27,6.62-3.26,4.13-4.89,9.3-4.89,15.49,0,6.81,2.04,12.16,6.12,16.06,3.68,3.55,7.87,5.32,12.57,5.32,3.66,0,7.33-.92,11.02-2.75v-9.09c0-2.11-.43-3.56-1.28-4.33-.86-.78-2.35-1.16-4.48-1.16h-2.67v-1.34h19.44v1.34Z"/>
    <path class="cls-2" d="m1054.31,1120.56l-1.16,10.72h-38.25v-1.37h2c3.54,0,5.64-.8,6.29-2.39.33-.82.49-1.99.49-3.52v-30.38c0-2.74-.7-4.46-2.11-5.17-.82-.4-2.04-.6-3.66-.6h-1.58v-1.37h34.59l.6,10.02h-1.34c-.73-4.92-2.51-7.38-5.34-7.38h-15.19v17.65h12.88c1.52,0,2.61-.55,3.26-1.64.44-.75.74-1.99.88-3.74h1.41v13.64h-1.41c-.23-2.05-.6-3.43-1.09-4.16-.68-1-1.94-1.5-3.79-1.5h-12.14v15.34c0,1.47.28,2.5.84,3.07.56.57,1.58.86,3.06.86h11.07c3.07,0,5.22-1.06,6.43-3.19.66-1.14,1.3-2.78,1.93-4.9h1.3Z"/>
    <path class="cls-2" d="m1108.17,1117.61c0,5.06-2.22,8.92-6.65,11.57-2.34,1.41-5.31,2.11-8.89,2.11h-26.37v-1.37h1.65c3.68,0,5.86-.77,6.54-2.32.35-.82.53-2.02.53-3.59v-29.88c0-2.34-.34-3.94-1.02-4.78-.77-.98-2.29-1.48-4.54-1.48h-2.53v-1.37c.89-.05,2.24-.12,4.04-.21,1.24-.07,2.92-.14,5.03-.21,4.24-.14,7.85-.21,10.83-.21,7.01,0,11.82.94,14.45,2.81,2.93,2.09,4.4,4.75,4.4,7.98,0,2.86-1.32,5.2-3.97,7.03-1.29.89-2.7,1.52-4.22,1.9,4.59,1.36,7.75,3.64,9.46,6.86.84,1.57,1.26,3.29,1.26,5.17m-8.97-20.74c0-6.42-3.97-9.63-11.91-9.63-.63,0-2.75.07-6.34.21v17.79h7.86c6.93,0,10.39-2.79,10.39-8.37m2.22,20.97c0-4.3-1.93-7.51-5.78-9.65-1.95-1.06-4.25-1.58-6.9-1.58h-7.78v15.35c0,2.82.68,4.78,2.04,5.88,1.22,1.03,3.28,1.55,6.16,1.55,8.17,0,12.26-3.85,12.26-11.55"/>
    <path class="cls-2" d="m1160.34,1131.28h-19.79v-1.37h1.86c1.73,0,2.91-.07,3.52-.21,1.41-.33,2.11-1.08,2.11-2.25,0-.59-.26-1.57-.77-2.95l-4.85-13.08h-14.91l-4.15,11.28c-.96,2.62-1.44,4.14-1.44,4.54,0,1.78,1.95,2.67,5.84,2.67h1.12v1.37h-16.63v-1.37c2.93-.09,4.83-.88,5.7-2.35.56-.96,1.25-2.55,2.07-4.78l13.11-35.79-.63-1.58h6.26l15.05,39.97c.89,2.34,2.06,3.74,3.52,4.18.75.23,1.76.35,3.02.35v1.37Zm-19.16-22.99l-6.33-16.84-6.12,16.84h12.45Z"/>
    <path class="cls-2" d="m1218,1132.09c-1.05.05-2.06.07-3.02.07-4.27,0-7.69-.57-10.27-1.72-2.41-1.05-5.38-3.36-8.93-6.93l-4.75-4.75c-3.14-3.14-5.61-5.29-7.42-6.43-2.4.09-4.04.14-4.91.14-.94,0-2.17-.05-3.67-.14v12.16c0,2.7.8,4.35,2.39,4.96.8.3,1.91.46,3.34.46h1.65v1.37h-20.35v-1.37h1.23c2.25,0,3.77-.43,4.57-1.28.8-.85,1.2-2.42,1.2-4.69v-30.3c0-2.16-.38-3.66-1.12-4.5s-2.18-1.27-4.29-1.27h-1.58v-1.37c.94,0,3.04-.09,6.32-.28.8-.05,1.71-.09,2.74-.14,3.04-.14,6.07-.21,9.06-.21,6.39,0,11.25,1.19,14.58,3.58,3.14,2.27,4.71,5.34,4.71,9.2,0,2.85-.91,5.34-2.73,7.44-1.7,1.97-3.98,3.37-6.83,4.21,2.2,1.71,4.95,4.21,8.23,7.5l5.69,5.7c3,3.01,6,5.07,9,6.2,1.57.59,3.29.95,5.17,1.09v1.3Zm-25.28-32.99c0-5.08-1.89-8.53-5.66-10.35-2.09-1.01-4.9-1.51-8.44-1.51-1.55,0-2.74.05-3.59.14v23.59c.82.09,2.31.14,4.46.14,8.81,0,13.22-4,13.22-12.01"/>
    <path class="cls-4" d="m1278.45,760.53c-2.92.45-5.22,1.92-6.83,4.46-1.65,2.54-2.47,6.07-2.47,10.56l.34,60.05c0,12.52.17,22.6.52,30.25,0,2.05-.35,3.46-1.03,4.25h-1.51c-10.25-10.49-38.86-37.62-85.74-81.35l-.51,51.58v12.86c0,4.5.82,8.03,2.47,10.57,1.61,2.54,3.91,4.01,6.83,4.46v.17h-28.05v-.17c2.91-.44,5.21-1.92,6.82-4.46,1.65-2.54,2.47-6.07,2.47-10.57v-14.88l.52-62.07c0-7.34-.14-12.72-.34-16.22h.52l84.88,77.1c.89,1.03,1.51,1.54,1.85,1.54.44,0,.68-.75.68-2.23l-.17-60.88c0-4.49-.82-8.03-2.47-10.56-1.61-2.54-3.91-4.01-6.82-4.46v-.17h28.06m-213.93,56.45c0-15.98-4.39-28.67-13.17-38.03-8.37-8.92-19.45-13.34-33.34-13.34-11.39,0-20.75,4.22-28.16,12.66-7.37,8.47-11.08,19.44-11.08,32.99,0,16.22,4.29,29.02,12.86,38.38,8.34,9.02,19.62,13.55,33.82,13.55,11.52,0,20.89-4.25,28.16-12.79,7.27-8.51,10.91-19.65,10.91-33.4m16.73-2.85c0,15.88-5.87,29.36-17.56,40.4-11.63,10.94-25.55,16.4-41.77,16.4-17.05,0-31.17-5.11-42.46-15.37-11.6-10.49-17.42-24.14-17.42-40.95s5.87-29.7,17.59-40.74c11.63-10.8,25.72-16.22,42.29-16.22s31,5.29,42.29,15.88c11.36,10.59,17.05,24.14,17.05,40.6m-251.62,37.52c0,5.08,2.98,8.23,8.95,9.47,1.47.24,6.62.34,15.4.34,4.05,0,7.65-.38,10.8-1.17,6.79-1.92,11.76-4.05,14.99-6.34,3.22-2.33,5.28-4.94,6.17-7.89l.17.21-3.39,21.81-.17,1-1.34-.17c-.79.14-1.99.17-3.57.17-8.57-.45-19.48-.69-32.79-.69-9.7,0-22.74.07-39.06.17v-.17c2.91-.44,5.21-1.92,6.82-4.46,1.65-2.54,2.47-6.07,2.47-10.57l.17-58.03h-.17v-19.44h-.17v-.17c0-4.49-.83-8.03-2.44-10.56-1.65-2.54-3.95-4.01-6.86-4.46v-.17h33.64v.17c-2.92.45-5.21,2.09-6.86,4.97-1.61,2.88-2.57,7.68-2.78,14.44v71.54Zm-141.05,16.74l-14.71-.17h-2.88c-4.51,0-9.76.07-15.73.17v-.17c2.93-.45,5.21-1.92,6.84-4.46,1.65-2.54,2.47-6.07,2.47-10.56l-.19-25.72c-7.42-14.65-16.03-27.88-25.77-39.71-9.76-11.87-16.19-19.34-19.29-22.5-3.09-3.16-6.62-4.87-10.57-5.08.57-.59,2.02-.69,4.41-.35,8.68,0,16.34.04,23,.17l8.79,14.03c.89,1.34,1.9,2.78,3.04,4.22l24.35,36.04c.67.99,1.18,1.51,1.53,1.51.44,0,1.01-.52,1.68-1.51,2.37-3.63,6.48-9.57,12.35-17.87,5.86-8.26,14.66-20.23,26.39-35.91l.33-.34h14.71v.34c-.89,0-1.78.28-2.68.83-.93.58-1.75,1.13-2.54,1.72-3.64,3.46-7.85,8.37-12.7,14.71-9.69,12.49-15.72,20.41-18.09,23.66-5.52,7.54-10.37,14.75-14.54,21.64l.5,30.11c0,4.49.82,8.03,2.45,10.56,1.65,2.54,3.93,4.01,6.86,4.46v.17Zm-176.23-81.66c0-7.24-1.85-12.42-5.57-15.57-3.62-3.26-9.41-4.9-17.42-4.9-6.43,0-9.88.96-10.32,2.88-.12.44-.17,1.03-.17,1.68v35.88h7.27c9.14,0,15.8-1.58,19.96-4.66,4.17-3.09,6.26-8.2,6.26-15.3m8.11,53.09c0-9.12-3.04-16.01-9.12-20.61-5.2-3.94-12-5.93-20.46-5.93-4.97,0-8.97.28-12.02.86v40.91c0,5.28,5.47,7.96,16.41,7.96,16.79,0,25.19-7.72,25.19-23.19m16.91-1.85c0,10.6-4.12,18.56-12.35,23.84-5.18,3.5-11.83,5.76-19.94,6.76h-35.52l-14.71.17v-.17c2.93-.44,5.21-1.92,6.84-4.46,1.65-2.54,2.47-6.07,2.47-10.6l.16-77.27h-.16v-.17c0-4.49-.82-8.03-2.47-10.56-1.63-2.54-3.91-4.05-6.84-4.5v-.17l42.27-.31c9.24.31,16.58,2.23,21.98,5.73,6.65,4.29,9.98,10.67,9.98,19.1,0,11.18-6.82,18.96-20.45,23.35-1.58.45-1.53.82.17,1.17,19.05,3.29,28.57,12.65,28.57,28.09m-182.15-6.75c-.34-.79-7.27-17.66-20.78-50.59l-21.48,51.93h42.95l-.69-1.34Zm-55.46,37.35h-20.45l-.17-.17c2.59-.44,4.61-1.71,6.09-3.77,1.46-2.09,3.04-4.22,4.73-6.38,1.68-2.02,5.56-9.6,11.59-22.74,6.02-13.1,10.62-23.36,13.77-30.7,8.23-20.16,15.33-38.21,21.32-54.09,15.09,35.94,30.04,70.24,44.81,102.79,1.7,4.52,3.83,8.03,6.43,10.49,2.59,2.5,5.4,3.94,8.45,4.39v.17l-26.22.17c-4.84-12.72-8.68-22.6-11.49-29.6h-48.2l-10.65,29.42Zm-103.35-81.83c0-7.24-1.85-12.42-5.57-15.57-3.62-3.26-9.41-4.9-17.42-4.9-6.43,0-9.86.96-10.31,2.88-.12.44-.17,1.03-.17,1.68v35.88h7.27c9.12,0,15.78-1.58,19.94-4.66,4.18-3.09,6.26-8.2,6.26-15.3m8.11,53.09c0-9.12-3.03-16.01-9.12-20.61-5.18-3.94-12-5.93-20.45-5.93-4.96,0-8.97.28-12,.86v40.91c0,5.28,5.45,7.96,16.39,7.96,16.8,0,25.19-7.72,25.19-23.19m16.92-1.85c0,10.6-4.12,18.56-12.34,23.84-5.2,3.5-11.83,5.76-19.96,6.76h-35.51l-14.71.17v-.17c2.93-.44,5.21-1.92,6.86-4.46,1.63-2.54,2.45-6.07,2.45-10.6l.15-77.27h-.15v-.17c0-4.49-.83-8.03-2.45-10.56-1.65-2.54-3.93-4.05-6.86-4.5v-.17l42.29-.31c9.24.31,16.56,2.23,21.98,5.73,6.65,4.29,9.98,10.67,9.98,19.1,0,11.18-6.82,18.96-20.47,23.35-1.58.45-1.51.82.17,1.17,19.05,3.29,28.58,12.65,28.58,28.09"/>
    <path class="cls-3" d="m292.08,1217.91l8.34.08c3.42,12.41,9.93,21.75,19.54,28.03,8.85,5.83,19.97,8.8,33.36,8.93.05-5.05-4.35-10.78-13.2-17.17-4.89-3.52-10.52-6.48-16.87-8.87l42.34.39-.08,8.24-14.11-.13c5.7,4.72,9.16,10.22,10.36,16.48.42,2.15.62,4.3.6,6.45l-.31,3.22c-39.28-.36-62.6-15.57-69.96-45.64m10.51,41.49c.01-1.39.58-2.63,1.69-3.73,1.12-1.1,2.37-1.64,3.76-1.62,1.33.01,2.52.59,3.58,1.74,1.06,1.15,1.59,2.38,1.58,3.71-.01,1.26-.53,2.49-1.55,3.68-1.02.94-2.26,1.49-3.71,1.67-1.39-.01-2.63-.58-3.73-1.69-1.09-1.12-1.63-2.37-1.62-3.76m12.9,8.07c.01-1.39.58-2.61,1.69-3.68s2.37-1.59,3.76-1.57c1.39.01,2.63.56,3.73,1.64,1.1,1.08,1.64,2.32,1.62,3.71-.01,1.45-.54,2.65-1.6,3.59-1.05.94-2.33,1.49-3.85,1.67-3.16-.03-4.94-1.81-5.35-5.36"/>
    <path class="cls-3" d="m365.41,1237.53l.08-8.24,8.53.08c.07-7.89,3.4-16.17,9.98-24.82,3.77-5.02,9.65-9.04,17.64-12.06l-.42,45.37-35.8-.33Zm16.56-8.09l11.08.1.21-22.83c-7.45,6.5-11.21,14.08-11.29,22.73m10.08-45.28c.01-1.26.59-2.46,1.74-3.58,1.15-1.13,2.35-1.68,3.61-1.67,1.33.01,2.62.56,3.87,1.65,1.06,1.21,1.59,2.45,1.58,3.71-.01,1.39-.58,2.57-1.69,3.54-1.11.97-2.4,1.54-3.85,1.72-1.14-.01-2.3-.56-3.49-1.64-1.19-1.09-1.78-2.32-1.77-3.71m.13-13.92c.01-1.33.57-2.55,1.69-3.68,1.12-1.13,2.33-1.68,3.66-1.67,1.39.01,2.65.58,3.77,1.69,1.13,1.12,1.68,2.37,1.67,3.76-.01,1.33-.56,2.55-1.64,3.68-1.27,1-2.57,1.49-3.9,1.48-1.39-.01-2.61-.54-3.68-1.6-1.06-1.05-1.59-2.27-1.58-3.66"/>
    <path class="cls-3" d="m408.26,1239.49l.69-74.73,8.24.08-.66,71.51c-2.54,1.37-5.3,2.42-8.27,3.14"/>
    <path class="cls-3" d="m421.67,1263.63c8.7-5.73,13.16-20.12,13.38-43.17l.24-25.57,8.14.07-.35,38.08c-.12,12.95-3.43,23.18-9.94,30.7l-11.46-.11Z"/>
    <path class="cls-3" d="m442.75,1238.25l.08-8.24,23.77.22c-5.16-2.39-10.93-6.48-17.32-12.29,7.7-6.12,14.65-10.66,20.87-13.64,6.98-3.41,14.89-5.8,23.75-7.17,5.63-.9,11.6-1.31,17.91-1.26l-.08,8.24c-21.53-.2-37.93,4.45-49.2,13.95,6.77,5.56,15.64,9.21,26.61,10.95,6.12,1,15.87,1.57,29.26,1.69l-.08,8.24-75.59-.7Z"/>
    <path class="cls-3" d="m538.7,1265.04c.09-9.73,2.07-18.64,5.93-26.76,3.28-6.79,8.63-14.32,16.03-22.59,8.29-9.27,21.32-13.82,39.06-13.66l-.49,53.23c-14.16-5.44-22.79-18.27-25.89-38.51-11.36,6.15-19.42,17.73-24.19,34.73-1.24,4.41-1.88,8.95-1.93,13.62l-8.52-.08Zm43.42-50.04c-.03,2.91.67,6.51,2.08,10.82,1.35,3.87,2.9,7.26,4.64,10.18,1.18,2.03,2.49,3.72,3.93,5.06l.27-29.17c-4.87.71-8.51,1.75-10.92,3.12"/>
    <path class="cls-3" d="m599.27,1239.69l.08-8.24,11.46.11c11.68.11,18.82-.27,21.42-1.13l-26.01-14.64c3.84-5.9,9.06-10.53,15.66-13.88,6.41-3.29,13.21-4.9,20.41-4.83,7.2.07,14.02,1.79,20.46,5.16,6.44,3.37,11.78,7.99,16.02,13.83l-28.36,14.52c2.9.85,6.05,1.32,9.46,1.41l19.8.18-.08,8.24-13.64-.13c-11.18-.1-19.22-1.57-24.12-4.39-5.39,2.73-13.49,4.04-24.29,3.94l-18.28-.17Zm19.56-25.97l22.62,12.43,24.08-12.47c-3.31-3.57-9.1-6.15-17.36-7.74-2.08-.4-4.07-.61-5.96-.62-4.17-.04-8.34.65-12.52,2.07-4.5,1.54-8.12,3.65-10.86,6.34"/>
    <path class="cls-3" d="m679.54,1240.42l.08-8.24c8.6-.93,13.01-14.06,13.24-39.38l.1-10.7c.02-1.77.08-5.21.19-10.32.02-1.71,0-2.65-.07-2.84l8.15.07-.45,48.59c4.35-5.39,10.42-9.66,18.21-12.81,7.23-2.9,14.54-4.32,21.92-4.25,9.28.09,18.82,2.76,28.63,8.03,3.33,1.74,7.59,5.44,12.78,11.11,5.63,6.18,8.43,10.72,8.4,13.62l-.08,8.15-97.94-.9.08-8.24c-1.66,2.13-3.64,3.98-5.92,5.53-2.54,1.75-4.98,2.61-7.32,2.59m21.67-8.04l80.32.74c-2.78-7.22-8.31-13.18-16.6-17.87-7.73-4.43-15.69-6.68-23.9-6.76-8.52-.08-16.44,1.9-23.74,5.94-8,4.47-13.36,10.46-16.08,17.94"/>
    <path class="cls-3" d="m790.6,1241.44l.07-8.24c5.32-1.91,10.45-6.04,15.37-12.41,4.92-6.37,7.41-12.33,7.46-17.88l8.24.08-.52,57.02c-4.03-1.05-8.43-3.49-13.2-7.32-4.14-3.32-7.51-7.05-10.13-11.18l9.76.09c.86,1.97,2.78,3.72,5.73,5.26l.21-22.73c-2.43,3.77-5.78,7.37-10.05,10.8-4.84,3.81-9.15,5.98-12.94,6.51"/>
    <path class="cls-3" d="m841.09,1200.7l8.24.08c-.08,8.52,3.05,18.88,9.38,31.06,3.6,6.98,9.25,13.63,16.96,19.95l.48-52.57,8.24.07-.62,67.63c-18.66-9.83-31.82-25.43-39.45-46.78-2.21-6.34-3.29-12.82-3.23-19.45m16.96-11.02c.01-1.39.64-2.69,1.88-3.91,1.24-1.22,2.53-1.82,3.85-1.81,1.33.01,2.62.66,3.87,1.93,1.25,1.27,1.87,2.57,1.86,3.9-.02,1.45-.63,2.76-1.84,3.91-1.21,1.16-2.54,1.73-3.99,1.72-1.45-.01-2.76-.61-3.91-1.79-1.16-1.18-1.73-2.49-1.72-3.95"/>
    <path class="cls-3" d="m890.82,1242.37c.09-9.35,2.25-18.17,6.5-26.46,4.63-8.92,10.85-15.44,18.65-19.53l-.38,41.68c-.12,13.26-4.19,23.36-12.21,30.29l-12.69-.12c10.87-7.48,16.34-16.05,16.43-25.71l-16.29-.15Zm9.07-8.06l7.96.07.19-20.18c-3.13,4.14-5.58,9.26-7.34,15.37-.52,1.83-.79,3.4-.8,4.73"/>
    <path class="cls-3" d="m915.44,1242.59l.07-8.15c9.81-2.94,14.82-14.51,15-34.72l8.24.08-.4,43-8.24-.08.09-9.66c-3.65,5.46-8.57,8.64-14.77,9.53m6.25,21.18c.01-1.33.59-2.52,1.74-3.58,1.15-1.06,2.38-1.59,3.71-1.58,1.26.01,2.49.53,3.68,1.55,1,1.15,1.49,2.38,1.48,3.71-.01,1.39-.54,2.58-1.6,3.58-1.05,1-2.27,1.59-3.66,1.77-1.39-.01-2.63-.58-3.72-1.69-1.1-1.12-1.64-2.37-1.62-3.76m.03-13.26c.01-1.39.56-2.58,1.64-3.58,1.08-1,2.35-1.59,3.81-1.76,1.33.01,2.52.59,3.58,1.74,1.06,1.15,1.59,2.38,1.58,3.71-.01,1.39-.54,2.63-1.6,3.73-1.05,1.1-2.27,1.64-3.66,1.62-1.39-.01-2.63-.58-3.73-1.69-1.1-1.12-1.64-2.37-1.62-3.76"/>
    <path class="cls-3" d="m938.27,1242.8l.07-8.24c7.87-3.91,11.87-13.34,12.01-28.31l.32-34.95,8.14.07-.66,71.61-8.15-.08.08-8.62c-2.51,4.46-6.45,7.3-11.82,8.51"/>
    <path class="cls-3" d="m958.06,1242.99l.08-8.15c9.69-2.94,14.63-14.52,14.81-34.72l8.24.08c-.1,10.29-1.6,19.06-4.51,26.29-4.01,9.88-10.21,15.38-18.62,16.5m10.23,9.85c.01-1.45.63-2.76,1.84-3.91,1.21-1.16,2.54-1.73,3.99-1.72,1.45.01,2.76.61,3.92,1.79,1.16,1.18,1.73,2.49,1.72,3.95-.01,1.45-.61,2.77-1.79,3.96-1.18,1.19-2.5,1.78-3.95,1.76-1.33-.01-2.61-.66-3.87-1.93-1.25-1.28-1.87-2.57-1.86-3.9"/>
    <rect class="cls-3" x="955.08" y="1203.36" width="71.61" height="8.24" transform="translate(-225.65 2187.22) rotate(-89.47)"/>
    <path class="cls-3" d="m994.62,1243.32l.08-8.15c9.69-2.94,14.63-14.52,14.81-34.72l8.24.08c-.1,10.29-1.6,19.06-4.51,26.29-4.01,9.88-10.21,15.38-18.62,16.5m10.24,9.85c.01-1.45.63-2.76,1.84-3.91,1.21-1.16,2.54-1.73,3.99-1.72,1.45.01,2.76.61,3.92,1.79,1.16,1.18,1.73,2.49,1.71,3.95-.01,1.45-.61,2.77-1.79,3.96-1.18,1.19-2.5,1.78-3.95,1.76-1.33-.01-2.61-.66-3.87-1.93-1.25-1.27-1.87-2.57-1.86-3.9"/>
  </g>
</svg>