<?xml version="1.0" encoding="UTF-8"?>
<svg id="Layer_1" data-name="Layer 1" xmlns="http://www.w3.org/2000/svg" viewBox="0 0 284.01 316.24">
  <defs>
    <style>
      .cls-1 {
        fill: #8b7752;
      }

      .cls-1, .cls-2, .cls-3, .cls-4, .cls-5, .cls-6, .cls-7, .cls-8, .cls-9 {
        stroke-width: 0px;
      }

      .cls-2 {
        fill: #9b7638;
      }

      .cls-3 {
        fill: #d2c767;
      }

      .cls-4 {
        fill: #b69f75;
      }

      .cls-5 {
        fill: #dfb28e;
      }

      .cls-6 {
        fill: #948770;
      }

      .cls-7 {
        fill: #6a5a51;
      }

      .cls-8 {
        fill: #110a00;
      }

      .cls-9 {
        fill: #d4af69;
      }
    </style>
  </defs>
  <path class="cls-9" d="m254.2,65.64h2.5c2.37-.37.3-4.09,3.12-4.12.66-1.56,1.62-3.01,1.5-4.75,1.06-.11,1.86-.34,2.82.21,1.41,2.39,2.92,4.93,4.49,7.57h2.44v-2.39c2.7-.86,2.93-3.06,3.3-5.21,1.06-.63,2.23-.19,3.35-.29,1.08,1.69.06,4.64,3.3,5.15v236.74h-113.82v-4.91c0-35.16,0-70.32,0-105.48,0-5.91-1.14-11.39-5.65-15.66-1.49-4.18-5.47-5.64-8.78-7.61-2.34-1.39-5.23-2.29-8.04-2.17-2.69.12-5.61-1.17-8.09.92-5.21.03-8.96,3.12-12.28,6.47-4.57,4.61-7.18,10.29-7.18,16.99.02,35.99.01,71.99,0,107.98,0,1.12.32,2.29-.38,3.56h-3.33c-34.99,0-69.99.02-104.98-.06-1.39,0-3.29,1.25-4.29-.94h2v-3h24.9v-6.55c-.83-1.43-2.07-1.49-3.46-1.48-6.81.06-13.62.03-20.44.03-1.28,0-.97.96-.99,1.68-.07,1.74.41,3.55-.69,4.82.32.7.5,1.1.68,1.5h-2c-.28-.12-.8-.21-.82-.36-.12-.97-.18-1.95-.18-2.93,0-76.08,0-152.16,0-228.34,1.56-.59,1.44-2.7,3-3.37.69.03,1.03-.31,1-1,.98-.08.93.61,1.01,1.28.13,1.15,1.47.37,1.91,1.17.06,1.06.11,2.17.12,2.39,1.13,1.54,1.8,2.47,2.25,3.08h5.34c.55-2.21,3.14-3.34,2.49-5.79,1.69-.45,2.46,1.37,3.87.87v4.76h8c0-10.49,0-20.74,0-30.98,0-.14.08-.3.16-.43.09-.14.21-.25.3-.35h1.53c0,11.08,0,22.15,0,33.23,0,.14-.08.3-.16.43-.09.14-.21.25-.3.35H9.2c-.61.13-1.33-.31-1.78.25v19.75c7.49,0,14.76,0,22.03,0,.14,0,.3-.09.42-.18.13-.09.22-.24.33-.36v-5.46c.61.11.92-.26.98-.76.07-.67-.04-1.31-.98-1.24v-3c1.82-2.04.42-4.81,1.32-7h2.68v224h55c1.5-.09.85-1.24,1-2V73.64c-.35-1.95-1.87-.95-2.79-.95-16.31-.07-32.62-.04-48.93-.06-.78,0-1.67.32-2.29-.49,0-.5,0-1,0-1.5h57v114c.18,1.28-.35,2.62.28,3.9h19.58c.44-2.4.42-4.77.95-7.11.84-3.76,2.37-7.19,4.36-10.19,2.16-3.27,5.2-6.2,8.43-8.45,2.83-1.97,6.39-3.6,9.77-3.95,4.79-.49,9.86-1.09,14.55.84,7.43,3.07,13.63,7.54,17.14,15.19,2.03,4.43,2.28,9.12,2.95,13.78.47,1.93,2.02.62,3,1v1c-1.55-.16-2.61.42-3,2-1.94.61-.95,2.21-.95,3.29-.07,24.31-.05,48.62-.05,72.92,0,1.66-.03,3.33.02,4.99.02.52.35.91.98.79v2c-1.41,1.87-1.41,4.13,0,6-.11.63.27.98.79.98,6.14.03,12.28.03,18.43,0,.51,0,.9-.35.79-.98,2.14-.79.93-2.58.93-3.79.09-27.47.07-54.95.07-82.42,0-1,.04-2-.02-3-.03-.52-.35-.91-.98-.79-.01-1.37-1.06-.97-1.78-.99-1.82-.04-3.65,0-5.47-.02-1.93-.02-3.85-.08-5.75-.11v-2.88h4c.12.28.23.81.35.81,2.77.05,5.54.05,8.3,0,.12,0,.23-.53.35-.81,2.18-.99.93-2.89.94-4.28.08-37.91.06-75.81.06-113.72,20.42,0,40.84,0,61.25,0,.14,0,.3.09.42.18.13.09.22.24.33.36v17.47c7.9-.08,15.45.09,23-.1v-2.91c.97.08,1-.6,1-1.28,0-4.78,0-9.56,0-14.16-.6-.63-1.05-1.11-1.47-1.57-5.84,0-11.63.08-17.42-.05-1.68-.04-3.05.64-4.74,1.34-.27-1.63-1.4-1.26-2.37-1.29-.16-1.55.42-2.61,2-3Zm-65,221h-3c-4.95.46-10.06-.97-14.74.85v7.02h19.63v-6.5c-.67-.36-.87-1.41-1.89-1.36Zm7-213c-.89-.06-1,.51-1,1.2,0,1.27,0,2.54,0,3.8v215.83c16,.63,51.76.4,56-.35v-15.48h3v4.9h22.82V92.74h-22.82v183.9h-3v-2c.63.11.96-.27.98-.79.06-1.33.02-2.66.02-4V99.43c0-1.33.04-2.67-.02-4-.02-.52-.35-.91-.98-.79v-14c-.15-.76.5-1.91-1-2v-1c.49-1.19,1.73-2.23.6-4h-1.6c.08-.99-.61-1-1.29-1-2.83,0-5.66,0-8.49,0-13.48,0-26.96-.02-40.44.05-.91,0-2.44-1-2.79.95ZM7.2,94.64c-.23-.6.54-1.59-.69-1.86-.6,1.14-.3,2.31-.3,3.43-.02,60.71-.01,121.43-.01,182.14,0,1.16-.04,2.33.02,3.49.03.52.35.9.98.79,1.72-.54,2.97,1.01,4.58,1.01,3.83-.02,7.65-.03,11.48.01.92,0,1.09-1.3,2.18-.98,1.42,1.14,3.03,1.39,4.53.63V92.78H8.54c-.59.68.03,1.96-1.34,1.85Zm105.83,188.91v-90.81h-19.65v90.81h19.65Zm162.82,3.25h-21.41v7.71h22.64v-6.48c-.34-.34-.69-.69-1.23-1.23Zm-182.57,7.7h19.67v-7.85c-5.72,0-11.19.05-16.66-.04-1.31-.02-2.18.43-3.01,1.48v6.41Z"/>
  <path class="cls-9" d="m32.2,12.64c-.15-2.56.8-4.58,2.95-6.36,2.28,1.62,2.89,3.84,3.35,6.15.45.12.9.24,1.36.36.69.69.16,1.58.34,2.35.82.88,1.77.49,2.72.29.64-.7.04-1.59.34-2.35,3.66-.62,1.82-5.15,5.01-6.65,2.53,2.39,3.95,5.56,5.37,9.06.81.45,1.97.06,3.09.12.83-.63.31-1.54.45-2.26.26-.88,1.02-.66,1.62-.8.69-2.18.94-4.62,3.47-6.19,2.79,2.52,3.54,6.14,5.32,9.17.74.14,1.53.28,2.5-.18.05-.7.1-1.49.17-2.38.54-.19,1.12-.4,1.7-.6.3-2.24.99-4.28,2.96-5.89,2.84,1.06,2.85,3.84,3.65,6.05.5.11.95.2,1.44.31.1.86.19,1.64.29,2.45,1.06.72,2.24.2,3.36.35,1.06-.68.14-1.88.82-2.83.33-.07.78-.16,1.35-.28.54-1.84,1.1-3.76,1.71-5.86.38.29.7.55,1.12.87.3-.25.64-.53,1.24-1.03.4,2.6,1.17,4.95,3.27,6.54v50.68c.61.85,1.08,1.51,1.3,1.81,1.05.19,1.37-.22,1.79-.43,1.51-.76.4-3.25,1.4-3.28,1.87-.05,1.2-1.69,2.05-2.23,1.04-.66.04-1.91.75-2.75,1.78-.61,2.89-.07,3.78,1.76,1.27,2.6,2.42,5.39,5.19,7.51,1.15-1.82.52-4.77,3.64-4.57v-3.3c.65-.65,1.12-1.12,1.6-1.6h2.15c.56,1.64.52,4.4,2.04,4.8,2.58.67.21,4.32,2.01,4.17,3.92.08,2.54-3.16,4.27-3.99,1.99-.95,2.11-2.86,2.04-4.6,1.94-1.04,3.47-.22,3.9,1.15.75,2.35,2.93,4.29,1.97,7.14,2.89,1.03,4.07-.76,5.12-2.61.76-1.34,1.38-2.75,2.01-4.16.41-.93.98-1.62,1.95-1.91,2.88.56,1.86,4.63,4.73,5.17.68.7.15,1.58.35,2.35.58.86,2.02.24,2.41,1.41.24-.18.46-.39.71-.55,1.43-.88.08-3.81,2.76-3.77.12-1.58,2.15-2.55.77-4.51h2.97c.84,1.94,1.42,4.06,3.24,5.19,1.47.91.87,2.34,1.36,3.47.78.47,1.58.21,2.57.14-.31-3.38,3.82-5,3.23-8.51,1.2-.58,2.51-.9,3.11.34,1.35,2.78,3.69,5.05,4.21,8.25h2.17c.73-3.18,2.89-5.68,4.52-8.48.51-.88,1.51-.36,2.59-.56.37,1.75.79,3.55,1.87,5.06,3.06-.25.1,4.26,2.61,3.87,1.59.37,1.96-.54,2.73-1.18V13.25c1.84-1.47,2.63-3.36,3.34-5.3.65-.71,2.13.2,2.14-2.4.97,3.71,1.75,6.18,4.52,7.38.09.75.18,1.54.28,2.33.68.79,1.6.08,2.25.43,1.16-.74.26-1.94.89-2.89.35-.07.81-.17,1.36-.28.77-2.05.82-4.6,3.33-6.05,2.45,1.18,2.77,3.55,3.23,5.84.58.21,1.16.42,1.7.62.1.88.19,1.66.27,2.44,1.19.47,2.32.25,3.42.18.82-.58-.2-.71-.32-.02.22-2.54,1.39-2.84,2.66-3.21-.34-1.94,1.44-3.4,1.27-5.37,3.09-.1,3.03-.08,3.83,2.12.85,2.34,1.58,4.76,3.46,6.56h2.08c.89-3.5,3.15-6.22,5-9.41,2.82,1.54,3.13,3.93,3.69,6.17.58.2,1.16.41,1.73.6v2.14c1.15.89,2.44.43,3.94.37-.48-2.79,2.29-4.25,2.66-6.85.18-1.25,1.8-1.11,2.96-.98.85,1.49,1.64,3,1.57,4.71.64.17,1.09.29,1.88.49v48.75c-.17,0-.47.02-.48,0-.42-2.96-1.55-5.78-1.53-8.83.04-7.46.02-14.93,0-22.39,0-.72.38-1.77-.99-1.78v-5c2.07-1.42.54-3.26,1.14-5.47-2.05,1.08-3.96-.55-5.14,1.47h-1c.11-.63-.28-.98-.79-.98-15.47-.02-30.95-.02-46.42,0-.51,0-.9.35-.79.98-.94.12-1.94-.28-3,.43v48.4c-16.34.68-100.63.41-105-.33V21.64c-.13-.61.32-1.34-.34-1.85-16-.62-51.4-.38-55.66.37v11.49c-.61-.12-1.32.3-2-.53V12.64Zm220.52.86c-.78,1.27-.63,2.16-.04,3.27.72-1.16.67-2.05.04-3.27Z"/>
  <path class="cls-4" d="m32.2,12.64v18.47c.68.83,1.39.4,2,.53v3h-1.53c-.09.1-.22.21-.3.35-.08.13-.16.28-.16.43,0,10.25,0,20.49,0,30.98h-8v-4.76c.5,0,1,0,1.5,0,.86.61.38,1.51.56,2.56,1.21.12,1.96,1.65,3.95,1.35V13.17c.67-.84,1.39-.4,2-.53Z"/>
  <path class="cls-4" d="m24.2,61.64c-1.4.5-2.18-1.33-3.87-.87.65,2.45-1.94,3.58-2.49,5.79h-5.34c-.45-.61-1.12-1.54-2.25-3.08-.01-.22-.07-1.33-.12-2.39-.45-.8-1.78-.02-1.91-1.17-.08-.67-.04-1.35-1.01-1.28,0-.5,0-1,0-1.5.81-.89,1.77-.49,2.71-.3.53,1.7.36,3.88,2.27,4.74,1.86.85.23,3.73,2.75,3.98,2.55.03,1.98-2.31,2.6-3.78.47-.12.92-.24,1.37-.36.61-.69-.54-.6-.41-1.1.41-1.23.79-2.55,1.94-3.43,1.35-.53,2.56-.52,3.44.96.67,1.16.14,2.5.33,3.78Z"/>
  <path class="cls-4" d="m251.2,28.64c1.37.01.98,1.06.99,1.78.02,7.46.04,14.93,0,22.39-.02,3.04,1.12,5.87,1.53,8.83,0,.02.31,0,.48,0v4c-1.58.39-2.16,1.45-2,3-1.94-.34-.95-1.86-.95-2.77-.07-12.41-.05-24.82-.05-37.23Z"/>
  <path class="cls-4" d="m6.2,294.64v3h-2v-3h2Z"/>
  <path class="cls-4" d="m7.2,58.64c.03.69-.31,1.03-1,1-.03-.69.31-1.03,1-1Z"/>
  <path class="cls-7" d="m88.2,77.64c.87.06,1-.49,1-1.18,0-.94,0-1.88,0-2.82h1v217c-1.65-.16-.81-1.44-.99-2.25-.16-.71.33-1.74-1.01-1.75V77.64Z"/>
  <path class="cls-6" d="m7.2,94.64v188c-.63.11-.96-.27-.98-.79-.06-1.16-.02-2.33-.02-3.49,0-60.71,0-121.43.01-182.14,0-1.12-.3-2.29.3-3.43,1.23.26.46,1.26.69,1.86Z"/>
  <path class="cls-5" d="m251.2,274.64V94.64c.63-.11.96.27.98.79.06,1.33.02,2.66.02,4v170.42c0,1.33.04,2.67-.02,4-.02.52-.35.91-.98.79Z"/>
  <path class="cls-4" d="m191.2,70.64h1c0,37.91.02,75.81-.06,113.72,0,1.39,1.25,3.29-.94,4.28v-118Z"/>
  <path class="cls-4" d="m191.2,282.64v-90c.63-.11.95.27.98.79.06,1,.02,2,.02,3,0,27.47.02,54.95-.07,82.42,0,1.21,1.21,3-.93,3.79Z"/>
  <path class="cls-4" d="m171.2,192.64v82c-.63.11-.97-.27-.98-.79-.05-1.66-.02-3.33-.02-4.99,0-24.31-.02-48.62.05-72.92,0-1.08-.99-2.68.95-3.29Z"/>
  <path class="cls-4" d="m90.2,73.64h-56v-3h2c0,.5,0,1,0,1.5.62.81,1.51.49,2.29.49,16.31.02,32.62,0,48.93.06.91,0,2.44-1,2.79.95Z"/>
  <path class="cls-4" d="m249.2,73.64h-53c.35-1.95,1.87-.95,2.79-.95,13.48-.07,26.96-.05,40.44-.05,2.83,0,5.66,0,8.49,0,.68,0,1.37.01,1.29,1Z"/>
  <path class="cls-1" d="m9.2,70.64v-2h23c.07.95-.58.96-1.25,1.01-.72.05-1.74-.35-1.75.99H9.2Z"/>
  <path class="cls-4" d="m191.2,192.64h-20c.39-1.58,1.45-2.16,3-2,.61-.21,1.58.52,1.95-1h-1.95c-.98-.38-2.53.93-3-1h7v2.88c1.9.04,3.82.09,5.75.11,1.82.02,3.65-.03,5.47.02.72.02,1.77-.38,1.78.99Z"/>
  <path class="cls-4" d="m179.2,188.64c-.5-1.12-1.46-2.11-.95-3.59,1.1-.77,2.37-.34,3.51-.3.65.37.59,1.17.4,1.33-.84.71-1.11,1.54-.96,2.57h-2Z"/>
  <path class="cls-4" d="m7.2,286.64v8h-1c-.18-.4-.37-.81-.68-1.5,1.1-1.27.63-3.08.69-4.82.03-.72-.28-1.68.99-1.68Z"/>
  <path class="cls-4" d="m182.2,188.64h9c-.12.28-.23.81-.35.81-2.77.05-5.54.05-8.3,0-.12,0-.23-.53-.35-.81Z"/>
  <path class="cls-4" d="m171.2,276.64v6c-1.41-1.87-1.41-4.13,0-6Z"/>
  <path class="cls-5" d="m251.2,278.64v-2h3v2h-3Z"/>
  <path class="cls-4" d="m189.2,286.64c-1.01,1.37-1.99,1.37-3,0h3Z"/>
  <path class="cls-7" d="m89.2,294.64c.15-.76-.5-1.91,1-2-.15.76.5,1.91-1,2Z"/>
  <path class="cls-3" d="m174.2,189.64h1.95c-.37,1.52-1.34.79-1.95,1v-1Z"/>
  <path class="cls-7" d="m88.2,35.64c1.41-1.87,1.41-4.13,0-6v-8h2v45l-2-1v-30Z"/>
  <path class="cls-4" d="m246.2,19.64h-48c-.11-.63.28-.98.79-.98,15.47-.02,30.95-.02,46.42,0,.51,0,.9.35.79.98Z"/>
  <path class="cls-4" d="m250.2,19.64h-3c1.18-2.02,3.1-.4,5.14-1.47-.6,2.21.93,4.05-1.14,5.47,0-.94,0-1.88,0-2.82,0-.68-.13-1.24-1-1.18Z"/>
  <path class="cls-4" d="m252.72,13.5c.63,1.22.68,2.1-.04,3.27-.59-1.11-.74-2,.04-3.27Z"/>
  <path class="cls-9" d="m96.2,183.64c-1.33-1.5-1-3.33-1-5.08,0-28.64,0-57.28,0-85.92v-4h94v10c-1.94.61-.95,2.21-.95,3.28-.07,23.79-.05,47.57-.05,71.36,0,2.37.35,4.78-1.08,6.72.75.96,1.47.52,2.09.64v2c.08.98-.61,1-1.29,1-3.46,0-6.93,0-10.59,0-.33-4.2-2.1-7.86-3.38-11.65-1.15-3.43-3.82-6.07-5.9-9-.49-.69-1.23-.22-1.84-.35-3.94-4.77-9.01-7.35-14.93-9.12-5.41-1.61-10.89-1.3-16.07-.61-5.23.69-10.42,3.11-14.53,6.88-.8.73-1.9.48-2.47,1.35,0,.5,0,1,0,1.5-2.1,1.04-3.28,3.08-5,4.45v2.55h-1.6c-1.98,4.41-3.68,8.96-4.63,14h-10.77Zm7.73-3.88c2.36-8.38,4.53-15.42,16.01-24.3,5.28-4.09,11.67-6.18,18.16-6.7,13.95-1.12,20.98,2.27,29.96,9.47,6.64,5.33,10.55,12.85,12.4,21.32h5.54v-86.8h-86.42c-.46.46-.81.81-1.28,1.28v83.95c1.29,2.72,3.58,1.26,5.62,1.78Z"/>
  <path class="cls-9" d="m98.2,79.64h-2.95c-.11-2.88,0-5.79-.06-9h94.02v9h-91Zm.1-3.33c.39.13.69.32.98.32,28.31.01,56.61.01,84.92,0,1.86,0,1.86-.04,1.79-2.82h-87.69v2.5Z"/>
  <path class="cls-4" d="m189.2,180.64c-.61-.13-1.34.32-2.09-.64,1.43-1.93,1.08-4.35,1.08-6.72,0-23.79-.01-47.57.05-71.36,0-1.07-.99-2.68.95-3.28v82Z"/>
  <path class="cls-6" d="m187.2,188.64h-2c-.5-1.12-1.46-2.11-.95-3.59,1.1-.77,2.37-.34,3.51-.3.65.37.31.94.45,1.37.4,1.16-1.08,1.53-1.01,2.53Z"/>
  <path class="cls-6" d="m136.24,157.22c-1.35.67-2.66.55-3.96.11-.33-1.55.78-2.04,1.68-2.75,1.25.39,2.25.98,2.28,2.64Z"/>
  <path class="cls-4" d="m109.2,187.17c0-.69,0-1.35,0-2.01.74-1.1,1.78-.14,2.45-.59.9.89.37,1.76.56,2.56-1,.81-2,.78-3.01.03Z"/>
  <path class="cls-6" d="m171.67,176.64c.69,0,1.35,0,2.01,0,1.1.74.14,1.78.59,2.45-.89.9-1.76.37-2.56.56-.81-1-.78-2-.03-3.01Z"/>
  <path class="cls-6" d="m110.2,179.17c0-.69,0-1.35,0-2.01.75-1.1,1.78-.14,2.45-.58.9.89.37,1.76.56,2.56-1,.81-2,.78-3.01.03Z"/>
  <path class="cls-9" d="m118.34,162.78h2.75v2.49c-.78.89-1.74-.03-2.75.66v-3.15Z"/>
  <path class="cls-4" d="m175.12,184.54v2.69c-.77.75-1.64.24-2.41.41-.93-.78-.45-1.75-.36-2.66.7-.68,1.57-.17,2.77-.44Z"/>
  <path class="cls-4" d="m103.07,184.86c1.37-.19,2.32-.61,3.16.29.02,1.52-1.01,2.11-2.17,2.52-1.59-.49-.52-1.72-.99-2.81Z"/>
  <path class="cls-6" d="m95.98,185.27c1.14-.92,1.97-.5,2.74-.62.86.8.44,1.74.28,2.94-1.75.25-2.36-.88-3.02-2.33Z"/>
  <path class="cls-6" d="m167.99,169.71h2.82c.59.96.54,1.84.08,2.73-1.19.55-1.34.42-2.9-2.73Z"/>
  <path class="cls-4" d="m166.07,162.63v2.82h-2.92c.14-2.15,1.21-2.9,2.92-2.82Z"/>
  <path class="cls-6" d="m128.35,159.92c-.91,1.15-1.89.63-2.79.58-.59-.88-.49-1.77,0-2.83,1.84-.29,2.28,1.02,2.78,2.25Z"/>
  <path class="cls-6" d="m152.35,156.92c-.91,1.15-1.89.63-2.79.58-.59-.88-.49-1.77,0-2.83,1.84-.29,2.28,1.02,2.78,2.25Z"/>
  <path class="cls-6" d="m113.17,169.77h2.88c.05.56.09,1,.13,1.39-.88.79-1.79.5-2.88.22-.04-.54-.09-1.14-.13-1.62Z"/>
  <path class="cls-6" d="m157.1,158.94c1.73-.61,2.22-.08,2.1,1.19-.47.57-1.03.65-1.83.25-.07-.35-.15-.79-.28-1.44Z"/>
  <path class="cls-4" d="m141.1,154.94c1.73-.61,2.22-.08,2.1,1.19-.47.57-1.03.65-1.83.25-.07-.35-.15-.79-.28-1.44Z"/>
  <path class="cls-9" d="m100.2,275.64c-1.25-.11-1.55-1.52-2.61-1.9-.58,1.25-1.16,2.5-2.07,4.45-.56-3.78-.19-6.94-.35-10.31h9.17c1.64-1.61,3.28-2.8,5.26-3.32,1.92,2.18.06,4.11-.54,5.85-.66,1.91-1.23,3.42.08,5.22.25.35.33,1.28-.26,1.83-1.95-.52-1.48-3.05-3.07-3.73-1.86.66-1.33,2.63-2.04,4.05-1.03-1.21-.38-2.42-.6-3.6-.84-.44-1.74-.91-2.63-1.39-.65.88-.21,1.9-.34,2.84Z"/>
  <path class="cls-9" d="m100.2,228.64c-1.04.19-1.86-.2-2.54-.94-1.17.58-1.35,1.9-2.29,3.53v-9.19c.1-.06.38-.39.62-.37,4.74.42,9.2-.29,13.23-3,.23-.15.65-.02.98-.02v1c.18,2.45-1,4.48-2.05,7.05.04,1,2.08,2.2.63,3.87-.31.03-.63.05-.95.08-1.39-.6.04-2.23-1.19-3.02-.34.08-.78.17-1.21.3-1.39.42-.62,3.01-2.84,2.71-.19-1.25,1.36-2.39.37-3.73-.63-.44-.66.4-1.22.54-.31-.17-.76-.4-1.21-.64-.64.52-.21,1.23-.34,1.84Z"/>
  <path class="cls-4" d="m99.2,254.64h-1.61c-.85-1.49-.11-3.11-.56-4.96,2.68,1.61,5.24.67,7.58,1,.45-.4.78-.79,1.19-1.01.24-.13.63.01,1.17.04v5.36c.84.65,1.61,1.26,2.36,1.84-.93,1.18-1.9.65-2.8.58-.65-.52-.22-1.24-.34-1.85-.09-1.5-1.24-.85-2-1-1.27-1.35-2.73-1.35-4,0h-1Z"/>
  <path class="cls-9" d="m97.2,207.64v-4h1c1.94,1.23,3.95,1.45,6.06.45,1.09-.51,2.26-1.23,2.94.55v4h-1c-.11-.28-.17-.76-.34-.79-.6-.14-.7.31-.66.79h-1c-1.14-1.79-2.6-.88-4-.8v1.8h-1c-.09-1.5-1.24-.85-2-1v-1Z"/>
  <path class="cls-6" d="m104.2,254.64c.76.15,1.91-.5,2,1-1.3-.09-.81,1.07-1.25,1.82h-5.75v-2.82h1v2.42c1.14-.87,2.07.1,2.88-.8.26-.62-.14-1.69,1.12-1.62Z"/>
  <path class="cls-6" d="m104.2,208.64h1c.15.81-.71.98-.95,1.52.3.34.61.68,1.14,1.26h-5.92c-.56-.48-.15-1.18-.27-1.78h1c1.03-.15,1.28,1.62,2.5.99.97-.3-.11-2.15,1.5-1.99Z"/>
  <path class="cls-7" d="m112.71,201.91c-2.35-.79-3.48.65-4.94.81-1.32-1.38-.18-2.21.66-2.74,1.45-.92,2.69-.28,4.28,1.93Z"/>
  <path class="cls-6" d="m98.2,203.64h-1c-1.59-1.2-1.2-3.14-2.61-5.27,2.97,1.41,3.35,3.3,3.61,5.27Z"/>
  <path class="cls-6" d="m106.2,208.64h1c1.7.12.63,2.19,1.94,2.59-.92.66-1.8.5-2.94.08v-2.66Z"/>
  <path class="cls-6" d="m97.2,207.64v1c-.18,1.04.19,1.87.96,2.55-.85.78-1.78.51-3.1.08.75-1.23.47-2.88,2.15-3.62Z"/>
  <path class="cls-6" d="m107.95,247.16c1.54-.79,2.85-.62,4.52-.15-1.63.94-2.94.83-4.52.15Z"/>
  <path class="cls-9" d="m100.08,228.23c1.43.99,1.08,1.65.95,2.41-1.29-.47-.65-1.37-.95-2.41Z"/>
  <path class="cls-7" d="m107.2,206.64v-2c.94-.07,1.06.57.98,1.24-.06.5-.37.87-.98.76Z"/>
  <path class="cls-9" d="m100.21,275.64c.48-.09.78.13.89.59.02.08-.22.31-.29.29-.46-.1-.68-.41-.59-.89Z"/>
  <path class="cls-7" d="m110.2,219.64v-1c.49-.04.93.06.79.66-.04.16-.52.23-.79.34Z"/>
  <path class="cls-6" d="m105.2,208.64c-.04-.49.06-.93.66-.79.16.04.23.52.34.79h-1Z"/>
  <path class="cls-4" d="m108.2,247.64c.09.48-.13.78-.59.89-.08.02-.31-.22-.29-.29.1-.46.41-.68.89-.59Z"/>
  <path class="cls-9" d="m188.98,276.95c-1.02-1.14-.97-2.47-2.38-3.27-.33,1.87-1.77,2.75-2.97,4.02-.8-1.29,0-1.75.36-2.45.33-.64.18-1.53.23-2.2-1.01-.69-1.02.6-1.6.45-.34-.27-.67-.54-1.01-.81-1.28,1.76.36,3.04.84,4.68-1.48.13-2.05-.82-2.17-1.53-.16-.97-.85-1.34-1.32-1.98-2.17.36-1.43,2.41-2.12,3.62-.46.15-.92.29-1.65-.42,1.22-2.41,1.18-5.23.9-8.05-.32-.57-.88-.33-1.44-.43-.83-1.11-.39-2.39-.33-3.63.76-.65,1.84-.57,2.35-.24,1.09.7,1.93,1.81,3.04,2.92h9c.86.85-.09,2.41,2.52,2.27-2.82,2.17-1.66,4.68-2.25,7.04Z"/>
  <path class="cls-9" d="m184.2,229.64v-2c-.83,0-1.42,0-2,0,.08-.48-.14-.78-.59-.89-.08-.02-.31.22-.29.29.1.46.41.68.89.59-.13.95.31,1.97-.37,2.9h-1.23c-.94-.84.18-2.09-.92-2.9-.35.07-.83.07-1.22.26-1.1.55-1,1.93-1.78,2.74-.45-.11-1.03.27-1.47-.81.88-1.49,1.33-3.47.71-6.06-.34-.27-1.11-.89-1.71-1.36v-3.27c.33-.49.8-.51,1.31-.51.66,0,1.25,0,1.77.57,1.87,2.04,4.24,2.69,6.96,2.46,1.48-.13,2.98-.02,4.47-.02.5.98,1,1.94,1.49,2.9.27,1.09-1.52,1.3-1.05,2.59.25.7.05,1.56-.6,2.65-.49-.81-.98-1.62-1.35-2.24-1.42.46-.63,1.73-1.51,2.09-.5,0-1,0-1.49,0Z"/>
  <path class="cls-4" d="m178.2,257.64c-.6-.11-1.28.27-2.06-.58,1.78-2.99,1.14-6.21.06-9.42.49,0,.98,0,1.47,0,.82.75.64,2.13,2.25,2.97,2.1-.27,4.81.8,7.28-.97.53,2.71,1.46,5.27,2.86,7.68-1.33.67-2.47.42-3.64-.91-1.66,1.51-3.73,1.37-5.91,1.11-.2-.54-.41-1.12-.63-1.73-.8-.23-1.6-.46-1.69.83v1Zm6-3.54c-1.01-.74-2.01-.78-3.01.03.19.8-.34,1.66.56,2.56.66-.46,1.7.52,2.45-.59v-2Z"/>
  <path class="cls-9" d="m177.2,206.64v-4c2.72,1.91,5.79,2.27,9,2,.69-.03,1.03.31,1,1v2h-6c-.69-.03-1.03.31-1,1h-1c-.24-1.09-.91-1.76-2-2Z"/>
  <path class="cls-6" d="m184.2,207.64h3v-2h1c-.37,2.21.91,3.86,1.88,5.62-.68.73-1.57.21-2.34.38-1.1-.66-.16-1.87-.98-3.08-.72,1-2.12,1.22-1.48,2.98h-4.71c-.68-.93-.24-1.95-.37-2.9-.03-.69.31-1.03,1-1-.08,1.87.72,2.9,2.57,3.02.71-1.1.32-2.09.43-3.02Z"/>
  <path class="cls-7" d="m188.2,205.64h-1c.03-.69-.31-1.03-1-1-.17-2.33,2.03-3.71,2.2-5.78.79-.36,1.36-.3,1.9.44-.45,2.12-2.73,3.78-2.1,6.34Z"/>
  <path class="cls-6" d="m177.2,206.64c1.09.24,1.76.91,2,2-1.91.23-.48,1.94-1.22,2.72-.7.56-1.54.17-2.32.24-.4-.24-.4-.43-.22-.71.81-1.32,1.88-2.54,1.77-4.25Z"/>
  <path class="cls-7" d="m176.23,201.5h-2.88c-.05-.56-.09-1-.13-1.39.88-.79,1.79-.5,2.88-.22.04.54.09,1.14.13,1.62Z"/>
  <path class="cls-8" d="m178.2,257.64v-1c.27.11.79.24.78.32-.14,1.28,1.67,1.89,1.1,3.31-.49.52-1.04.51-1.89-.02v-2.61Z"/>
  <path class="cls-4" d="m187.23,249.76c-.4-1.72,1.1-2.65,1.39-4.35,1.18,2.23.38,3.41-1.39,4.35Z"/>
  <path class="cls-8" d="m172.16,263.14c1.05-.79,2.05-.79,3.09,0-1.05.79-2.05.79-3.09,0Z"/>
  <path class="cls-6" d="m176.05,247.51h-2.81q1.66-.93,2.81,0Z"/>
  <path class="cls-8" d="m174.14,261.16c.77-.71,1.32-.68,1.95-.18-.38,1.1-1.02.8-1.95.18Z"/>
  <path class="cls-9" d="m184.2,229.64c.09.48-.13.78-.59.89-.08.02-.31-.22-.29-.29.1-.46.41-.68.89-.59Z"/>
  <path class="cls-7" d="m177.2,202.64c-.69.03-1.03-.31-1-1,.69-.03,1.03.31,1,1Z"/>
  <path class="cls-9" d="m88.2,35.64v32.5c-4.19.71-39.12.93-53,.32v-33.82c16.74,0,33.48-.02,50.23.05.91,0,2.43-.99,2.77.95Zm-3.17,29.92v-26.76c-14.51-.59-41.67-.38-45.66.32v26.44h45.66Z"/>
  <path class="cls-9" d="m196.2,34.64h53v33.48c-4.15.75-38.04.98-53,.35v-33.82Zm49.91,4.17h-46.2c1.66,4.55-2.09,8.86.3,13.27-.33.35-.67.71-1.16,1.25,1.5,2.37,1.83,4.93-.05,7.58,2.17,1.05.52,3.35,1.47,4.56h45.65v-26.66Z"/>
  <path class="cls-9" d="m249.2,22.64v7c-.35,1.95-1.87.95-2.79.95-12.98.07-25.96.05-38.94.05h-11.1v-9.68c.98-.77,2.35-.29,3.61-.29,15.48-.04,30.95-.05,46.43.02.91,0,2.44-1,2.79.95v1Zm-48.91,3.83h45.81v-1.66h-45.81v1.66Z"/>
  <path class="cls-9" d="m270.2,80.64h-9c.11-.63-.27-.97-.79-.98-1.64-.05-3.28-.02-4.98-.02-.39-1.75-.51-3.27.66-4.61-1.46-1.13-.79-2.65-.79-4.22h19.54c.63.63,2,1.47,1.28,2.64-1.19,1.92-.74,4.02-1.02,6.19-1.52,0-2.82-.04-4.12.02-.52.02-.9.35-.79.98Zm-11.1-6.92c.28,1.2-.25,2.08.59,2.92,1.99,0,4.12,0,6.26,0,2.09,0,4.18-.02,6.36-.03-.29-1.25.23-2.13-.53-2.9h-12.68Z"/>
  <path class="cls-9" d="m9.2,70.64h20v8.89c-6.55.23-13.11.04-20,.13v-9.02Zm3.09,5.83h12.82v-2.66h-12.82v2.66Z"/>
  <path class="cls-9" d="m88.2,77.64v209h-53V76.64h31.71c6.5,0,13-.01,19.49.01.72,0,1.78-.39,1.79.99Zm-50.43,81.89c1.76,1.33,1.45,2.86,1.4,4.29-.03.88-1.8,1.62-.74,2.44,1.68,1.3-.43,1.78-.36,2.82.29,4.31-.05,8.66.17,12.98.21,4.2-1.02,8.51.92,12.59.19.41.23,1.27,0,1.44-1.48,1.07-1.06,2.09-.09,3.17-1.41.94-.8,2.38-.86,3.63-.08,1.49.19,3.04-.08,4.49-.29,1.56,1.24,2.97.42,4.32-1.01,1.66.24,2.67.63,3.95.24.79-1.05,1.13-.86,1.52.34.68,1.43,1.4.71,2.04-1.97,1.78-.06,3.2.18,4.82-.3.35-.62.71-.97,1.1.3.33.62.68.94,1.03-1.39,2.76-1.39,8.4.02,11.67-1.89,2.36-1.06,4.75.1,7.13-2.37,2.07-.62,4.12.01,6.03-.46.5-.8.86-.64.69-1,1.57.27,1.83.4,2.49-.32.44-.86,1.15-.84,1.17,1.56,1.31-.91,3.03.57,4.49,1.72,1.69-1.12,3.13-.62,4.9.38,1.36-.41,2.79.71,4.23,1.36,1.75-1.04,4.01.27,6.04.32.49-.3,1.17-.48,1.75-.71,2.32-1.39,4.76.81,6.74,15.82.61,41.64.39,45.57-.37V80.86h-46.86c0,1.05-.23,1.97.05,2.69.75,1.94,1.7,3.63.06,5.76-.64.84-.18,2.59-.08,3.91.08,1.11-.54,2.36.41,3.31,1.05,1.05-1.5,1.87.03,3.22,1.23,1.09.73,3.07.23,4.59-.19.57-.84.88-.04,1.44.99.7-.62.83-.38,1.8.59,2.37.74,4.89.83,7.39.05,1.37-1.59,1.79-1.1,3.11.32.34.65.7,1.02,1.1-1.09,2.85-1.91,5.79-.24,8.7.95,1.66-.62,2.66-.77,3.65,1.6,3.41,1.21,6.46-.08,9.49.37.39.7.75,1.02,1.1-.33.36-.66.72-.99,1.07.85,2.22.8,2.21.2,4.77-.22.94-.03,1.97-.22,2.92-.23,1.15.77,1.7,1.02,2.59.25.88-1.64,1.55-.08,2.78.65.51.18,2.19-1.34,3.26Z"/>
  <path class="cls-7" d="m38.2,286.64h48c.11.63-.28.98-.79.98-15.47.02-30.95.02-46.42,0-.51,0-.9-.35-.79-.98Z"/>
  <path class="cls-6" d="m72.11,289.72h3.69c.73.78.24,1.65.41,2.43-1.14,1.1-2.46.08-3.47.53-.86-.92-.37-1.79-.63-2.97Z"/>
  <path class="cls-4" d="m35.11,289.72h3.69c.73.78.24,1.65.41,2.43-1.14,1.1-2.46.08-3.47.53-.86-.92-.37-1.79-.63-2.97Z"/>
  <path class="cls-6" d="m48.29,292.73v-2.69c.79-.73,1.65-.23,2.42-.4.89.8.45,1.76.33,2.67-.71.66-1.57.16-2.75.42Z"/>
  <path class="cls-4" d="m54.28,292.74v-2.69c.77-.75,1.64-.24,2.41-.41.93.78.45,1.75.36,2.66-.7.68-1.57.17-2.77.44Z"/>
  <path class="cls-4" d="m63.3,292.55h-2.69c-.75-.77-.24-1.64-.41-2.41.78-.93,1.75-.45,2.66-.36.68.7.17,1.57.44,2.77Z"/>
  <path class="cls-4" d="m70.29,291.04c-1.19,1.31-2.3,2.51-4.07,1.12-.17-1.36.82-1.91,1.72-2.53,1.23-.21,1.45,1.09,2.35,1.4Z"/>
  <path class="cls-6" d="m79.11,289.72h2.69c.73.79.23,1.65.4,2.42-.8.89-1.76.45-2.67.33-.66-.71-.16-1.57-.42-2.75Z"/>
  <path class="cls-9" d="m88.2,290.1c0,.69,0,1.35,0,2.01-.74,1.1-1.78.14-2.45.59-.9-.89-.37-1.76-.56-2.56,1-.81,2-.78,3.01-.03Z"/>
  <path class="cls-6" d="m42.29,292.73v-2.69c.79-.73,1.65-.23,2.42-.4.89.8.45,1.76.33,2.67-.71.66-1.57.16-2.75.42Z"/>
  <path class="cls-7" d="m35.2,286.64h1c.04.49-.06.93-.66.79-.16-.04-.23-.52-.34-.79Z"/>
  <path class="cls-9" d="m196.2,78.64v-1.49c.32-.46.78-.52,1.29-.52,16.31,0,32.62-.01,48.92.05.91,0,2.44-1,2.79.95v5c-.63-.11-.96.27-.98.79-.05,1.5-.02,3-.02,4.49v198.72h-52V78.64Zm49.83,204.9V80.73h-46.65v202.81h46.65Z"/>
  <path class="cls-4" d="m248.2,286.64V87.92c0-1.5-.03-3,.02-4.49.02-.52.35-.91.98-.79v204h-1Z"/>
  <path class="cls-7" d="m198.2,286.64h48c.11.63-.28.98-.79.98-15.47.02-30.95.02-46.42,0-.51,0-.9-.35-.79-.98Z"/>
  <path class="cls-6" d="m237.45,291.97c-.57.47-.69.65-.82.65-.98.02-1.96.01-2.94.01-.89-.8-.45-1.75-.33-2.73,2.09-.87,3.19.14,4.08,2.07Z"/>
  <path class="cls-6" d="m239.1,290.17c1.23-.92,2.5-.45,3.69-.44.75.71.23,1.58.4,2.34-.24.19-.45.52-.71.55-1.84.2-3.06-.49-3.39-2.45Z"/>
  <path class="cls-4" d="m214.27,291.17c.88-1.54,2.09-1.72,3.47-1.51.84.78.42,1.72.3,2.64-1.56.83-2.72.27-3.77-1.13Z"/>
  <path class="cls-9" d="m198.72,292.64c-.66,0-1.31,0-1.96,0-1.04-.71-.42-1.72-.46-2.6.46-.46.92-.92,1.38-1.38,1.26,1.09,2.43,2.21,1.04,3.98Z"/>
  <path class="cls-6" d="m212.12,289.54v2.69c-.77.75-1.64.24-2.41.41-.93-.78-.45-1.75-.36-2.66.7-.68,1.57-.17,2.77-.44Z"/>
  <path class="cls-4" d="m221.2,292.17v-2.01c.76-.97,1.74-.45,2.65-.38.7.69.17,1.56.36,2.36-1,.81-2,.78-3.01.03Z"/>
  <path class="cls-4" d="m227.11,289.72h2.69c.73.79.23,1.65.4,2.42-.8.89-1.76.45-2.67.33-.66-.71-.16-1.57-.42-2.75Z"/>
  <path class="cls-4" d="m246.67,289.64c.69,0,1.35,0,2,0,1.1.74.14,1.78.59,2.45-.89.9-1.76.37-2.56.56-.81-1-.78-2-.03-3.01Z"/>
  <path class="cls-6" d="m203.93,289.28c1.75.85,1.23,1.99,1.13,2.98-.33.58-.88.3-1.36.38-.79-1-.77-2,.24-3.36Z"/>
  <path class="cls-7" d="m248.2,286.64h1c.04.49-.06.93-.66.79-.16-.04-.23-.52-.34-.79Z"/>
  <path class="cls-4" d="m14.12,289.54v2.69c-.77.75-1.64.24-2.41.41-.93-.78-.45-1.75-.36-2.66.7-.68,1.57-.17,2.77-.44Z"/>
  <path class="cls-4" d="m17.28,292.74v-2.69c.77-.75,1.64-.24,2.41-.41.93.78.45,1.75.36,2.66-.7.68-1.57.17-2.77.44Z"/>
  <path class="cls-4" d="m27.2,291.16c-.77.52-1.1,1.68-2.39,1.47-1.07-.81-.74-1.81-.3-2.82,1.48-.65,1.88.74,2.69,1.35Z"/>
  <path class="cls-6" d="m270.67,289.64c.69,0,1.35,0,2.01,0,1.1.74.14,1.78.59,2.45-.89.9-1.76.37-2.56.56-.81-1-.78-2-.03-3.01Z"/>
  <path class="cls-4" d="m261.12,289.54v2.69c-.77.75-1.64.24-2.41.41-.93-.78-.45-1.75-.36-2.66.7-.68,1.57-.17,2.77-.44Z"/>
  <path class="cls-6" d="m266.74,292.64c-.69,0-1.35,0-2.01,0-1.1-.75-.14-1.78-.58-2.45.89-.9,1.76-.37,2.56-.56.81,1,.78,2,.03,3.01Z"/>
  <path class="cls-4" d="m108.63,289.66c1.76-.13,2.39.93,2.65,2.42-.91.92-1.85.55-2.76.38-.47-.9-.51-1.79.11-2.8Z"/>
  <path class="cls-4" d="m96.54,289.44c1.67.54,2.69,1.14,2.69,2.69q-2.97.56-2.69-2.69Z"/>
  <path class="cls-4" d="m105.42,292c-1.14.92-1.97.5-2.74.62-.86-.8-.44-1.74-.28-2.94,1.75-.25,2.36.88,3.02,2.33Z"/>
  <path class="cls-4" d="m179.23,291.14c.58-.6,1.02-1.06,1.49-1.54,1.53,0,2.11,1.02,2.64,2.49-1.63,1.06-2.85.53-4.12-.95Z"/>
  <path class="cls-4" d="m186.28,292.74v-2.69c.77-.75,1.64-.24,2.41-.41.93.78.45,1.75.36,2.66-.7.68-1.57.17-2.77.44Z"/>
  <path class="cls-4" d="m176.33,292.41c-1.37.19-2.32.61-3.16-.29-.02-1.52,1.01-2.11,2.17-2.52,1.59.49.52,1.72.99,2.81Z"/>
  <path class="cls-9" d="m88.2,21.64v8c-.35,1.95-1.87.95-2.79.95-12.98.07-25.96.05-38.94.05h-11.1v-9.68c.98-.77,2.35-.29,3.61-.29,15.48-.04,30.95-.05,46.43.02.91,0,2.44-1,2.79.95Zm-48.91,4.84h45.82v-1.67h-45.82v1.67Z"/>
  <path class="cls-9" d="m58.2,59.95c-1.37,2.3-3.99,2.87-5.66,4.73-3.21-.01-6.01-1.37-8.92-2.86-.66-2.6-2-5.02-1.28-7.83,4.1-7.71,10.52-8.77,15.85-.84v6.8Zm-5.48.68c2.54-2.65,3.14-5.1,1.13-7.84-1.75-.56-3.36-1.9-5.11-.66-.92.69-1.83,1.37-2.47,1.85-.26,2.67-.13,4.85,1.48,6.65h4.96Z"/>
  <path class="cls-9" d="m81.2,59.79c-1.62,2.87-4.27,3.5-6.45,4.65-1.96,1.04-4.02-.28-5.67-1.5-1.45-1.08-2.64-2.51-3.87-3.71v-5.1c3.62-5.28,6.07-9.2,14.09-3.9,2.69,2.82,1.75,6.35,1.9,9.56Zm-9.38-7.95c-.99.84-1.86,1.58-2.58,2.2v4.1c.85.87,1.66,1.69,2.3,2.33h4.4c2.15-2.44,3.07-4.85,1.54-6.88-2.14-1.39-3.6-2.56-5.66-1.76Z"/>
  <path class="cls-9" d="m204.15,60.86c-1.53-2.29-.77-5.09-.97-7.7,1.38-1.38,2.59-2.78,3.99-3.95,2.35-1.96,4.79-2.07,7.41-.58,1.09.62,1.54,2.22,3.21,2.03,2.06,3.77,2.48,7.76-.4,11.06-1.5,1.72-3.99,3.12-6.69,2.9-2.45-.2-4.02-2.28-6.55-3.75Zm3.08-3.48c1.18,1.65,1.84,2.57,2.27,3.17h2.69c1.35-1.03,2.26-1.73,2.97-2.27v-4.11c-.87-.91-1.67-1.74-2.44-2.54h-3.02c-.81.81-1.62,1.63-2.47,2.48v3.27Z"/>
  <path class="cls-9" d="m232.2,63.64c-.61-.13-1.28.27-1.86-.34-1.26-1.33-2.57-2.6-4-4.03v-4.36c.64-2.95,2.26-4.36,3.84-5.7,2.61-2.21,5.5-2.16,8.12.05,1.39,1.17,2.6,2.56,3.96,3.92-.44,2.61.93,5.52-1.59,8.03-1.59-.1-2.14,2.93-4.46,2.42h-4Zm4.6-3.09c2.6-2.65,2.92-5.12,1.82-6.67-2.48-2.1-4.21-2.73-5.83-1.67-1.17,1.11-2.35,2.22-3.64,3.43-.37,1.39,1.2,2.33,1.25,3.12,1.94,2.21,4.16,2.02,6.39,1.79Z"/>
  <path class="cls-2" d="m232.2,63.64h4c-1.27,1.35-2.73,1.35-4,0Z"/>
  <path class="cls-9" d="m70.2,271.63c-1.3.49-1.97-.93-3.2-1.01-1.32.43-.67,2.77-2.64,2.84v-9.49c1.99-.66,3.76-2.45,6.45-.46,1.52,1.13,4.46-.03,5.11-1.39.88-1.85,2.42-1.65,3.86-2.72.55,1.99.51,3.59-.21,5.53-.81,2.17-2.37,4.58-.39,7.05.21.27-.05.92-.09,1.39-2.41-.12-1.32-3.22-3.79-3.47-1.56.39-.63,2.58-1.48,3.72h-1.4c-.18-1.55-.76-3.1.75-4.44-.72-1.07-1.71-.42-2.59-.41-.68.89-.22,1.91-.36,2.86Z"/>
  <path class="cls-9" d="m70.2,170.63c-1.29.48-1.96-.92-3.1-1.01-1.55-.34-.18,3.22-2.69,1.67v-8.22c2.22-2.07,4.85-1.83,7.24-.36,3.24-.78,5.1-3.53,8.36-4.26.17,1.75.47,3.08-.63,4.69-.8,1.16.37,3.23-1.28,4.26.65,1.44,1.85,2.58.67,4.2-.38-.06-1.14,0-1.22-.21-.4-1.06-.8-2.08-1.76-2.7-1.68.28-.9,2.74-2.98,3.08-.99-1.32-.92-2.48.38-3.61-.76-1-1.73-.44-2.63-.38-.66.89-.21,1.91-.35,2.85Z"/>
  <path class="cls-9" d="m53.81,269.61c-2.97.2-2.28,2.58-2.9,3.92-.65-.55-1.24-1.05-1.62-1.37-.39-1.42,1.36-1.72.91-2.88-.64-1.78-2.26,2.55-2.45-.69-1.74,1.68,1.52,2.27.59,3.22-.57.97-1.2.98-1.56.79-1.15-.6-1.64-1.78-2.09-2.9-1.62.78-1.4,2.4-1.85,4.21-1.44-2.54.4-5.42-1.61-7.14-.26-1.29,1.96-1.34.82-2.62,1.19-.59,2.15-1.07,3.16-1.58,1.61,1.49,3.6,1.01,4.86,1.03,2.74-.89,4.25-2.56,5.66-4.02.93.06,1.57.09,2.33.14v3.65c-2.24.82-1.53,3.52-2.98,5.2,1.05,1.41,1.57,3.02.87,4.81-1.15-1.05-1.76-2.11-2.14-3.78Z"/>
  <path class="cls-9" d="m64.37,115.31c3.16-3.72,6.26.67,9.91-1.26.3-.32,1.2-1.29,2.14-2.3h4.4c.72.57-.2.7-.28,1.06-.5,2.11-1.01,4.23-2.14,6.09-1.05,1.72,1.11,2.86.76,4.37-.42.16-.71.26-1.09.41-1.33-.42-.81-2.37-2.22-2.84-.18.08-.44.15-.63.3-.65.52-.97,1.16-1.14,2.03-.13.65-1,.63-1.6.25-1.25-1.41,1.57-2.09.56-3.44-.7-.68-1.57-.17-2.35-.33-1.02.7-.09,1.9-.7,2.7-1.34,1.26-1.85-.96-3.36-.71-.98-.03,0,1.44-.91,1.91h-1.36v-8.23Z"/>
  <path class="cls-9" d="m47.2,219.64c-.61-.13-1.34.33-1.85-.35-.44-.58-.99-.81-1.75-.57-1.1.62.38,2.25-1.34,2.98-.14-2.46.22-4.92-1.47-7.13,1.25-.88,2.32-1.63,4.15-2.91h7.1c.75-.93,1.69-2.08,2.41-2.97h3.47c.45,1.27.38,2.51.11,3.72-.58.15-1.03.27-1.57.41-.82,1.31.61,3.36-1.32,4.41.1,1.47,2.08,2.7.61,4.37-.33.02-.65.03-.98.04-1.11-.65-.2-1.85-.74-2.69-.86-.62-1.88-.19-2.82-.32-.12-.61.3-1.32-.39-1.89-1.19-.05-2.47-.49-3.61.35v2.54Z"/>
  <path class="cls-9" d="m80.2,210.64v2c-.69-.03-1.03.31-1,1-1.5.09-.85,1.24-1,2v2c-.98.38-2.53-.93-3,1h-1c-.12-.61.3-1.32-.32-1.83-.16-.06-.33-.2-.44-.16-1.07.38-2.66-.95-3.24.99v2h2v2c-.81,0-1.53.05-2.23-.66-.88-.89-1.5-2.2-2.86-2.37-1.92.4-.12,2.21-1.37,2.94h-1.18c-.66-1.15-.73-2.93-.25-3.31,1.71-1.34-.46-2.13-.19-3.28.26-1.1.12-2.26,1.7-3.25,3.46-.39,7.57.55,11.39-1.07h3Z"/>
  <path class="cls-9" d="m48.2,167.64c-1.62-.19-.49,1.76-2.27,2.15-.02,0-.56-.3-.95-.88-1.67.05-1.56,1.78-2.5,2.98-.66-2.34.43-4.64-1.45-6.18,1.03-1.24,1.05-2.85,2.64-3.94,2.42-1.2,4.81,1.79,7.52.87.76-.15,1.91.5,2-1,.56-1.96,1.91-2.33,4-1.72.03,3.02-1.71,5.73-2,8.72h-1c.07-.94-.57-1.06-1.24-.98-.5.06-.87.37-.76.98-1.18-.95-2.55-1.12-4-1Z"/>
  <path class="cls-9" d="m54.2,120.64h-4c-.41-1.87-1.7-.83-2.68-.83-.88.74.27,1.99-.95,2.91-.44-.82-.89-1.67-1.27-2.38-1.66,1.01-2.14,2.14-2.87,3.89v-9.59h11.78v-2h1c.38.98-.93,2.53,1,3,.51,1.84-1.17,3.23-1,5h-1Z"/>
  <path class="cls-9" d="m53.2,199.64c-.12-.28-.23-.57-.35-.85-1.48.35-1.37,1.89-2.03,2.71h-4.45c-.11-.92-.2-1.7-.29-2.48-.56-.63-1.13-.41-1.57-.23-.93,1.23.52,1.72.46,2.58-.74.52-1.56.2-2.61.21-.81-2.97,1.85-5.19,1.83-7.94h1c2.47.88,4.94,1.58,7.44.02.23-.15.64-.05.96,0,.13.02.25.17.61.42v5.56h-1Zm-5.75-2c-.55,2,.49,2.75,2.24,3.09.77-1.14.84-2.13,0-3.09h-2.25Z"/>
  <path class="cls-9" d="m66.2,148.64v-3c1.18-.95,2.55-1.12,4-1,2.35.83,4.24-1.35,6.54-.97,1.47,2.39-.9,5.41,1.46,7.56-2.42,1.51-1.53-1.48-2.67-1.59-1.88-.82-.79,3.16-3.03,1.8-1.64-1.43,1.67-2,.66-3.35-.84-.79-1.76-.49-2.69-.22-1.14,1.33.5,2.47.36,3.75h-1.08c-.73-.34-.42-1.12-.71-1.67-.88-.61-1.89-.19-2.83-.32v-1Z"/>
  <path class="cls-9" d="m67.2,246.64c-.07-.91.53-1,1.22-1,2.08,0,4.17,0,6.25,0,.9-.6,1.32-1.81,2.54-2,0,1.32,0,2.64,0,3.97.02,1.9-.34,3.87,1.54,5.59-2.87.69-1.9-2.42-3.47-2.55-1.68-.24-.54,1.73-1.81,1.97-.21-.03-.76.25-1.06-.25-.92-1.37,1.2-1.86.78-3.08-.58-1.28-1.69-.39-2.55-.57-1.68,1.68,1.04,3.11.44,4.78-2.22-.45-1.48-3.21-3.66-3.66-.25.09-.41.99-1.22.82v-3c.69.03,1.03-.31,1-1Z"/>
  <path class="cls-9" d="m55.2,141.64c.49,1.42-1.18,2.19-1.03,3.57.15,1.31.03,2.64.03,3.95-.85.85-.97-.31-1.46-.45-.57.18-.73,1.09-1.54.93v-1.46c-.42-.7-1.1-.53-1.73-.54-.64,0-1.27,0-1.88,0-.73,1.42-.64,2.57.6,3.49-.46.59-1.03.65-1.67.33-.22-.56-.44-1.13-.66-1.71-.79-.08-1.57-.16-2.3-.23-1.41-2.18.83-3.89.64-5.88h1c1.94,1.54,4.23.87,6.39,1,1.35-.82,1.99-2.51,3.61-3Z"/>
  <path class="cls-9" d="m77.2,192.64c0,1.49.15,3-.04,4.46-.2,1.55.54,2.74,1.22,3.83-.68.79-1.24.87-1.99.45-.13-.85-.26-1.76-.38-2.53-2.22-.97-1.44,1.26-2.25,1.73-1.22-.59-.05-1.82-1.1-2.82-2.04-1.24-4.1,1.48-6.46.88v-3c.69.03,1.03-.31,1-1,.94-2.27,1.87-.21,2.63-.04.97.19,1.31-.44,1.77-.86.48.33.97.66,1.43.98,1.45-.72,2.81-1.4,4.17-2.08Z"/>
  <path class="cls-9" d="m44.2,244.64c1.42-.48,2.18,1.18,3.56,1.03,1.31-.14,2.64-.03,4.4-.03.37-.52.92-1.3,1.85-2.61v7.47c-.91-.59-1.74-.39-2.62-.09-.1-.46-.19-.91-.32-1.49-1.18-.46-2.42-.36-3.58-.11-.8,1.25.35,2.73-.75,3.81-1.09-.66-.17-1.84-.76-2.71-.46-.57-1.17-.14-1.79-.26h-1c-.51-1.84,1.17-3.23,1-5Z"/>
  <path class="cls-9" d="m44.2,100.64v-5h1c-.11.6.26.96.74.98,1.44.06,2.92-.16,4.33.07,1.55.26,2.42-1.52,3.93-1.05v6h-1c.04-.49-.06-.93-.66-.79-.16.04-.23.52-.34.79-.94.07-.94-.57-1.02-1.24-.06-.5-.37-.87-.98-.76-.98.38-2.53-.93-3,1-.37.21-.76.39-1.11.62-.9.6-1.64.75-1.89-.62Z"/>
  <path class="cls-4" d="m68.2,96.64c1.93,0,3.85,0,5.78,0,.68,0,1.29-.09,1.22-1h2v4c-1.01-.13-1.89.08-2.48.98-.54-.29-.72-1.11-1.52-.98h-3l-2,1h-2v-3c.67-.33,1.33-.67,2-1Z"/>
  <path class="cls-6" d="m68.2,100.64l2-1c.27.99-.68,2.28.93,3.14,1.24-.62,2.35-1.35,2.07-3.14.81-.13.99.69,1.52.98.59-.9,1.47-1.1,2.48-.98-.47,1.4,1.25,2.17,1,3.5-2.34,2.24-1.58-2.3-3.27-1.49-1.31.05-.26,1.5-1.25,1.93h-4.08c-.49-1.02-.94-1.98-1.39-2.93Z"/>
  <path class="cls-6" d="m50.2,99.64c.61-.11.92.26.98.76.08.67.08,1.31,1.02,1.24v1.81c-2.32.2-4.64.76-6.83-.82-1.29.3-2.35,1.89-3.93.75,0-1.11,1.62-1.47.82-2.74h1.94c.24,1.37.98,1.22,1.89.62.35-.23.74-.42,1.11-.62.12.61-.3,1.32.34,1.85.91.08,1.89.59,2.66-.37v-2.48Z"/>
  <path class="cls-6" d="m70.2,144.64c-1.45-.12-2.82.05-4,1,.34-2.77-1.22-4.72-2.96-6.55.8-.88,1.71-.15,2.36-.53.95.68.47,1.58.61,2.37.76,1.82,2.86,2.24,3.99,3.7Z"/>
  <path class="cls-4" d="m56.2,115.64c-1.93-.47-.62-2.02-1-3,.43-1.26,1.06-2.24,2.82-1.86v4.54c-.55.58-1.23.21-1.82.32Z"/>
  <path class="cls-4" d="m72.2,221.64v-2c-.24-1.09-.91-1.76-2-2,.59-1.94,2.18-.61,3.24-.99.11-.04.28.1.44.16.62.51.19,1.22.32,1.83v3h-2Z"/>
  <path class="cls-6" d="m58.07,189.7c.97.55,1.63.92,2.28,1.29-2.11.66-4.06.37-5.38,1.88-1.55-1.5-.28-2.13.46-2.97.99-.58,2.13-.14,2.65-.2Z"/>
  <path class="cls-7" d="m45.2,193.64h-1c-1.07-.17-2.1-1.12-1.89-1.81.47-1.6-1.3-2.23-1.13-3.5.26-.53.62-.78,1.17-.69,1.98,1.5,1.59,4.14,2.85,5.99Z"/>
  <path class="cls-6" d="m65.2,244.19v-2.1c-.65-.29-1.33-.6-2-.9v-1.04c.73-1.07,1.77-.14,3.16-1.06-.57,2.28.6,3.5.96,4.88-.77.92-1.44.79-2.12.22Z"/>
  <path class="cls-7" d="m45.2,95.64h-1c-2.43-.49-1.82-3.68-4-4.34.72-1.32,1.8-.16,2.48-.8.93,1.89,1.73,3.52,2.53,5.15Z"/>
  <path class="cls-4" d="m48.2,167.64c1.45-.12,2.82.05,4,1-.52,1.04-1.03,2.08-1.78,3.59-1.25-1.63-2.32-2.78-2.22-4.59Z"/>
  <path class="cls-1" d="m75.2,218.64c.47-1.93,2.02-.62,3-1,.44,1.26,1.82,2.38.6,3.9-.89.21-1.46.14-1.65-1.03-.15-.95-.88-1.69-1.95-1.87Z"/>
  <path class="cls-7" d="m60.12,242.47h-4.83v-1.8c1.81.11,3.75-.79,4.83,1.8Z"/>
  <path class="cls-7" d="m44.02,244.9c-1.69-1.43-2.34-3-2.86-4.6.29-.54.68-.75,1.39-.64,1.02,1.42,2.11,2.91,1.47,5.23Z"/>
  <path class="cls-7" d="m45.2,143.64h-1c-2.58-.62-1.67-3.26-2.74-4.76.29-.08.59-.16,1.21-.34.82,1.65,1.68,3.37,2.53,5.09Z"/>
  <path class="cls-6" d="m77.2,98.64v-3h-2c.39-1.58,1.45-2.16,3-2,0,1.27,0,2.54,0,3.8,0,.68-.11,1.26-1,1.2Z"/>
  <path class="cls-7" d="m81.21,141.14c-.96,1.2-2.95-.48-3.57,1.63q.11-2.81,3.23-2.95c.53.34.27.87.34,1.32Z"/>
  <path class="cls-6" d="m78.2,93.64v-1.51c2-1.65,3.28.7,4.98.89-.69,1.13-1.73.48-2.57.59-.79.11-1.6.02-2.41.02Z"/>
  <path class="cls-6" d="m80.2,210.64h-3v-1.59c1.25-.74,2.56-.43,3.86-.22.18.97.36,1.76-.86,1.8Z"/>
  <path class="cls-6" d="m66.03,94.64c-.56-1.57-1.8-2.43-2.79-3.47.75-1.01,1.72-.43,2.79-.38v3.84Z"/>
  <path class="cls-4" d="m54.2,168.64h1c1.7.12.63,2.19,1.94,2.59-.92.66-1.8.5-2.94.08v-2.66Z"/>
  <path class="cls-6" d="m55.2,93.72v-1.52c.86-1.04,1.66-.86,3.93.86-.06.11-.12.32-.19.32-1.24.13-2.48.23-3.73.33Z"/>
  <path class="cls-7" d="m53.2,101.64h1c1.16.37,2.06.96,2.01,2.36q-2.2.59-3.01-2.36Z"/>
  <path class="cls-4" d="m54.2,120.64h1c1.7.12.63,2.19,1.94,2.59-.92.66-1.8.5-2.94.08v-2.66Z"/>
  <path class="cls-9" d="m55.2,141.5v-1.33c.71-.96,1.7-.43,2.57-.48.56.51.57,1.07.13,1.8h-2.7Z"/>
  <path class="cls-6" d="m78.2,191.5v-1.33c.71-.96,1.7-.43,2.57-.48.56.51.57,1.07.13,1.8h-2.7Z"/>
  <path class="cls-7" d="m78.2,242.5v-1.33c.71-.96,1.7-.43,2.57-.48.56.51.57,1.07.13,1.8h-2.7Z"/>
  <path class="cls-6" d="m43.2,249.64h1v2.83c-.69.07-1.12.12-1.65.18-.19-1.14-1.21-2.35.65-3.01Z"/>
  <path class="cls-6" d="m54.2,112.64v2h-3c.39-1.58,1.45-2.16,3-2Z"/>
  <path class="cls-6" d="m66.07,191.61c-.87-.7-1.98-1.02-1.92-1.67.16-1.38.81-1.33,1.47-1.3,1.31.76.03,2.06.45,2.97Z"/>
  <path class="cls-6" d="m66.2,148.64v1c-.17,1.59,1.63.54,1.96,1.47-.66,1.12-1.73.1-2.58.82-.22-1.42-1.24-2.63.62-3.28Z"/>
  <path class="cls-6" d="m68.2,96.64c-.67.33-1.33.67-2,1v-3h2v2Z"/>
  <path class="cls-6" d="m54.2,98.64v-3c.15-.76-.5-1.91,1-2,0,1.27,0,2.54,0,3.8,0,.68-.11,1.26-1,1.2Z"/>
  <path class="cls-6" d="m50.2,120.64h2c-.45.95-.9,1.9-1.43,3.02-.93-.93-.43-2.05-.57-3.02Z"/>
  <path class="cls-6" d="m66.08,198.13v3.34c-.54.07-.98.13-1.89.25.67-1.27,1.19-2.25,1.89-3.58Z"/>
  <path class="cls-4" d="m66.2,103.64c-1.37-1.01-1.37-1.99,0-3v3Z"/>
  <path class="cls-6" d="m50.2,221.64c.38-.98-.93-2.53,1-3-.38.98.93,2.53-1,3Z"/>
  <path class="cls-9" d="m50.6,151.56c-.62-.69-.66-1.68.15-1.84,1.02-.21.15.89.42,1.33.02.04-.36.33-.57.51Z"/>
  <path class="cls-9" d="m47.2,219.64c1.5.09.85,1.24,1,2-1.5-.09-.85-1.24-1-2Z"/>
  <path class="cls-1" d="m78.2,215.64c.15-.76-.5-1.91,1-2-.15.76.5,1.91-1,2Z"/>
  <path class="cls-6" d="m53.2,161.64c-.09,1.5-1.24.85-2,1,.09-1.5,1.24-.85,2-1Z"/>
  <path class="cls-9" d="m65.6,252.56c-.62-.69-.66-1.68.15-1.84,1.02-.21.15.89.42,1.33.02.04-.36.33-.57.51Z"/>
  <path class="cls-6" d="m56.13,201.23c-.69.62-1.68.66-1.84-.15-.21-1.02.89-.15,1.33-.42.04-.02.33.36.51.57Z"/>
  <path class="cls-9" d="m77.2,243.64c-.03-.69.31-1.03,1-1,.03.69-.31,1.03-1,1Z"/>
  <path class="cls-6" d="m66.2,103.64v-1c.49-.04.93.06.79.66-.04.16-.52.23-.79.34Z"/>
  <path class="cls-9" d="m70.21,271.64c.48-.09.78.13.89.59.02.08-.22.31-.29.29-.46-.1-.68-.41-.59-.89Z"/>
  <path class="cls-1" d="m79.2,213.64c-.03-.69.31-1.03,1-1,.03.69-.31,1.03-1,1Z"/>
  <path class="cls-6" d="m53.2,199.64h1v1c-.69.03-1.03-.31-1-1Z"/>
  <path class="cls-6" d="m67.2,194.64c.03.69-.31,1.03-1,1-.03-.69.31-1.03,1-1Z"/>
  <path class="cls-6" d="m78.2,191.64c.03.69-.31,1.03-1,1-.03-.69.31-1.03,1-1Z"/>
  <path class="cls-6" d="m66.21,191.64c.48-.09.78.13.89.59.02.08-.22.31-.29.29-.46-.1-.68-.41-.59-.89Z"/>
  <path class="cls-6" d="m67.2,246.64c.03.69-.31,1.03-1,1-.03-.69.31-1.03,1-1Z"/>
  <path class="cls-6" d="m70.21,170.64c.48-.09.78.13.89.59.02.08-.22.31-.29.29-.46-.1-.68-.41-.59-.89Z"/>
  <path class="cls-6" d="m48.19,171.14c-.32.47-.66.47-.98,0,.32-.47.66-.47.98,0Z"/>
  <path class="cls-9" d="m237.2,219.64v-1.5c-.82-.89-1.77-.49-2.81-.28.32,1.27,1.79,2.63-.29,4.05-1.36-1.06-1.37-2.77-2.16-4.05-2.11.39-1.45,2.4-2.11,3.67h-1.25c-1.52-1.86.89-3,.53-5.14-1.67-1.72-1.62-4.71-3.06-6.95,1.02-1.58,2.37-.2,3.36-1.11,1.08,1.3,2.02,2.44,2.71,3.29h9.61c.42.46.87.95,1.36,1.48v8.37c-.56.06-1.01.11-1.39.14-1.07-.77.03-2.02-.82-2.82-.78-.23-1.58-.46-1.67.84h-2Z"/>
  <path class="cls-9" d="m221.2,216.4c-.8.21-1.25.32-1.73.45.88,1.54,1.08,3.12.3,4.78-.87-.76-.71-2.14-1.42-2.52-1.03,1.03-2.01,2.01-3.11,3.11-1.49-1.69-.75-3.04-1.15-4.19-.85-.67-1.76-.5-2.69-.1.37,1.1,1.34,2.11.61,3.4-.23.37-.36.18-.72-.07-1.29-.86-.98-2.8-2.61-3.57-.47,1.39-1.56,2.46-1.65,3.97-.75-.12-1.31.24-1.8-.78,1.34-1.8.94-4.21.99-6.84-2.1-.85-1.72-3.36-3.01-5.06,1.8-.61,3.28-.58,4.85.88,1.37,1.27,3.17,1.97,5.22,1.79,1.81-.15,3.64-.03,5.41-.03.87.86,1.69,1.68,2.51,2.5v2.27Z"/>
  <path class="cls-9" d="m237.33,122.25v-1.97c-1-1.18-1.98-.25-3.09-.98.51,1.85,1.91,3.2-.14,4.64-1.31-1.15-1.41-2.79-2.16-4.1-2.06.42-1.48,2.37-2.1,3.7h-1.29c-.14-.38-.42-.82-.32-.93,2.13-2.5.13-4.73-.57-6.93-.6-1.87-.92-3.4,1.09-5.02,1.19,1.81,3.59,2.09,4.81,3.79,2.59,1.06,4.61-1.69,7.4-.58.53.56,1.33,1.4,2.12,2.23v7.21c-2.31,1.41-1.39-1.63-2.59-1.68-1.16-.45-1.39,1.5-3.16.61Z"/>
  <path class="cls-9" d="m237.2,271.64v-2.58c-1.09-.31-2.26-1.27-3,.58h-2c-2.28.28-1.67,3.29-3.65,3.84-.56-.33-.41-.91-.33-1.34.72-3.81.72-3.99-.46-7.44-.15-.43-.5-.83-.53-1.26-.08-1.14-.03-2.28-.03-3.72,2.33,1.19,4.74,1.73,6.45,3.9h9.53c-.15,1.68.67,3.3-1.07,4.63.41,1.71,2.05,3.34.67,5.31-.32.03-.64.05-.96.08-1.38-.62.05-2.26-1.08-2.96-1.37-.37-2.14,1.46-3.54.96Z"/>
  <path class="cls-9" d="m240.77,161.7c.75.75,1.57,1.58,2.38,2.39.48,1.41-.37,2.46-.98,3.56.57,1.26,1.79,2.41.61,3.91-.32.03-.65.05-.94.07-1.04-.31-.25-1.6-1.11-1.99-1.35-.75-1.69,1.75-3.06.95-1.01-.7,0-1.92-.81-2.83h-5.23c-1.64.72-1.24,2.44-1.7,3.77h-1.36c-.87-1.46-.29-2.55.64-3.55-.94-2.95-2.73-5.74-1.77-9.24,2.98.04,4.62,2.36,6.58,4.2,2.21-1.16,4.39-1.56,6.75-1.24Z"/>
  <path class="cls-9" d="m219.2,270.64h-2.59c-.56.64-1.19,1.36-2,2.28-.61-2.04-.35-4.62-3.41-4.28h-2c-1.78.68-1.29,2.89-2.81,4.04v-7.02c-.53-1.21-1.33-.89-1.89-1.2-.61-1.05-.18-2.22-.29-3.36.98-.95,2.21-.26,3.61-.53.82,1.02,1.76,2.17,2.49,3.09h9.41c1.16,1.49.55,2.73-.56,3.53.12,1.48,1.5,2.17,1.04,3.45h-1Z"/>
  <path class="cls-9" d="m210.2,120.64c-.81.16-.97-.74-1.61-.95-.56,1.24-1.13,2.5-1.74,3.86h-1.45c1.46-2.42.51-4.98.87-7.51-.64-.22-1.22-.42-1.81-.63-.5-1.08-.22-2.21-.18-3.36,1.01-.85,2.21-.2,3.62-.47.82,1.01,1.76,2.15,2.55,3.12,2.41-.17,4.6.53,5.58-.89,2.29-.42,2.63,1.79,4.17.91v1.94c-.67,1.67-1.33,3.33-2,5h-1c-.61-.12-1.31.29-1.82-.31-.32-.53,0-1.32-.36-1.5-1.94-.36-3.48-.24-4.82.82Z"/>
  <path class="cls-9" d="m210.2,168.64c-.76.15-.91-.65-1.51-.88-.35.1-.56.4-.49.88-.94.07-.94-.57-1.02-1.24-.06-.5-.37-.87-.98-.76v-2.47c-.37-.74-1.19-.37-1.85-.84v-4.39c.52-.68,1.43-.15,2.34-.34,1.17,1.29,2.38,2.64,3.59,3.97h9.66c1,2.58-1.73,4.66-.74,7.07-.69.03-1.03-.31-1-1-.11-.28-.17-.76-.34-.79-.6-.14-.7.31-.66.79-.69-.03-1.03.31-1,1-2.05-.2-.23-2.27-1.52-2.96-.62,0-1.47-.27-1.48.96-.76.15-1.91-.5-2,1h-1Z"/>
  <path class="cls-9" d="m238.2,103.64h-4.45c-.92-.39-.14-1.67-.79-1.85-2.29-1.02-1.3,2.8-3.7,1.58-.4-1.58,1.57-3,.93-4.73-.15-.76.5-1.91-1-2v-2h1c1.1.14,1.5,1.19,2.43,1.88h7.23c.87-.21-.32-1.73,1.34-1.73v5.85c-.19,2.1-2.44.15-3,1.54v1.46Zm-1.08-4.1c-1.2.27-2.06-.24-2.77.44-.09.91-.57,1.88.36,2.66.77-.17,1.63.33,2.41-.41v-2.69Z"/>
  <path class="cls-9" d="m208.2,244.64c1.07.17,1.74,1.22,3.06,1.06,1.95-.23,3.96-.06,5.94-.06h1c-.7,2.37,1.52,4.48.76,7.44-.83-1.52-1.09-2.78-2.24-3.41-1.06.65-.15,1.83-.73,2.7-.46.57-1.18.14-1.79.27v-3.49c-.8-.92-1.76-.48-2.68-.32-1.5,1.43,1.7,2.04.83,2.98-.56.96-1.1.79-1.56.83-1.29-.68.08-2.3-1.05-2.98-1.52.81-1.53,2.33-1.74,3.84-.49.04-.94.08-1.57.13-.86-1.73,1.4-2.8.87-4.53-.42-1.36-.09-2.96-.09-4.46h1Z"/>
  <path class="cls-9" d="m231.2,244.64c2.15,1.65,4.65.8,7,1h1c1.31,1.01,2.08,2.29,2,4,.03.69-.31,1.03-1,1-.11-.28-.23-.56-.34-.84-1.92-.02-1,3-3.45,2.85.05-1.25,1.48-2.38.3-4.01-.34-.34-1.21.18-1.97,0-.83.74-.79,1.24.26,3.7-2.28,1.67-1.3-2.21-2.92-1.72-1.39.47-.78,2.72-2.53,2.87-1.38-2.13,1.42-3.79.65-5.85v-3h1Z"/>
  <path class="cls-9" d="m240.2,148.64c-1.92.18-3.45-1.84-6.24-.45-.06.05.33.92.25,1.69-.07.62.21,1.33-.53,1.73-.56-1.02-.79-2.32-2.06-2.9-.96.7.05,1.91-.67,2.68-.61.44-1.17.29-1.82-.23.09-1.64,2.6-3.35.03-4.98,1.45-.9.98-2.29,1.04-3.54,1.19.62,2.38,1.23,3.87,2,1.55,0,3.47-.03,5.39.02.48.01.85.38.74.98-.03.69.31,1.03,1,1v2h-1Z"/>
  <path class="cls-9" d="m218.2,96.64v4c-.5,0-1,0-1.5,0-1.03.69-.11,1.89-.7,2.7-.73.58-1.56.19-2.42.27-.07-1.28,1.39-2.44.39-3.77-1.07-.04-2.34-1.05-2.77.81-.69-.03-1.03.31-1,1h-2c-.38-.98.93-2.53-1-3v-4h1.46c.73.37.38,1.17.93,2h8.61Z"/>
  <path class="cls-9" d="m217.2,148.64c-1.65.3-.94,2.62-2.59,2.93-1.01-1.03.03-2.46-.58-3.61-.68-.64-1.53-.15-2.29-.32-1.19.7.11,2.25-.99,2.97-.56-.26-.73-1.11-1.54-.97-1.03-.76-.3-2.69-2-3v-3h1c1.13.53,2.12,1.26,3.55,1.05,1.45-.22,2.96-.05,4.45-.05.67.33,1.33.67,2,1v3h-1Z"/>
  <path class="cls-9" d="m214.2,197.64c-.98.38-2.53-.93-3,1h-1c-.11-.28-.17-.76-.34-.79-.6-.14-.7.31-.66.79-.67-.33-1.33-.67-2-1v-4.94c2.3-.18,3.53,1.56,5.28,1.99,2,.49,3.43-1.84,5.72-.7v4.65h-2c-.67-.33-1.33-.67-2-1Z"/>
  <path class="cls-9" d="m230.2,192.64c1.63-.45,2.31.89,3.35,1.84,1.94.27,3.99.59,5.89-1.21.84,1.56,1.88,2.7,1.76,4.37.11.57-.25.83-.69,1-1.35.5-2.23-.57-3.31-1h-7v-5Z"/>
  <path class="cls-1" d="m230.2,197.64h4c-.18,1.38.35,2.34,1.67,2.83.9-.73,1.66-1.52,1.33-2.83,1.08.42,1.96,1.5,3.31,1,.45-.17.8-.43.69-1,2.11.82.54,2.45.96,3.84h-8.55c-.52-.86-.72-2.2-2-2.76-.97.71.08,1.93-.67,2.69-.64.42-1.2.29-1.69-.17-.37-1.42,1.44-2.2.95-3.6Z"/>
  <path class="cls-6" d="m210.2,120.64c1.34-1.06,2.88-1.18,4.82-.82.36.19.04.97.36,1.5.51.61,1.22.19,1.82.31-.74,1.6-2.33,1.46-3.55,2.13-.6-1.28,1.34-1.6.51-2.67-.31-.46-.78-.5-1.34-.44-1.43.51.06,2.14-1.01,2.88h-1.25c-.62-.98-.24-1.97-.35-2.9Z"/>
  <path class="cls-6" d="m230.2,94.64h-1c-1.4-1.25-3.25-.92-4.95-1.3,1.42-.61,2.42-2.02,4.11-1.7,1.29.59,2.08,1.48,1.84,3Z"/>
  <path class="cls-7" d="m208.2,143.64h-1c-1.35.11-.76-1.15-1.27-1.78-.62-.59-1.5,0-2.28-.26-.45-.3-.49-.78-.46-1.28.2-.23.41-.66.6-.65,2.74.18,3.54.92,4.4,3.97Z"/>
  <path class="cls-7" d="m208.2,244.64h-1c-1.35.11-.76-1.15-1.27-1.78-.62-.59-1.5,0-2.28-.26-.45-.3-.49-.78-.46-1.28.2-.23.41-.66.6-.65,2.74.18,3.54.92,4.4,3.97Z"/>
  <path class="cls-6" d="m218.2,96.64h-1c-.42-2.13,1.19-3.8,1.24-5.9h1.91c-.76,2.08-1.45,3.99-2.15,5.9Z"/>
  <path class="cls-6" d="m218.2,121.64c.67-1.67,1.33-3.33,2-5,1.33,0,1.26,1.31.94,1.69-1.33,1.59-.62,3.64-1.19,5.36-1.23-.35-.15-2.22-1.75-2.05Z"/>
  <path class="cls-6" d="m207.11,189.58v1.88h-4.69c-.09-.44-.15-.74-.28-1.37,1.57-.85,3.25-.27,4.97-.51Z"/>
  <path class="cls-7" d="m238.2,103.64v-1.46c.56-1.39,2.81.56,3-1.54,1.72.16.57,2.22,1.8,3h-4.8Z"/>
  <path class="cls-1" d="m213.2,167.64c.01-1.23.86-.97,1.48-.96,1.29.69-.53,2.76,1.52,2.96-.44,1.26-1.06,2.26-2.69,1.88-.58-.9.63-.88.65-1.36.64-1.26-1.13-1.5-.97-2.53Z"/>
  <path class="cls-6" d="m209.2,268.64h2c-.55,1.71,2.16,2.96.53,5.01-1.52-1.36-2.46-2.94-2.53-5.01Z"/>
  <path class="cls-6" d="m214.2,197.64c.67.33,1.33.67,2,1v2.46c-.75,1-1.73.44-2.61.41-.58-.33-.54-1.12-.35-1.29.83-.72,1.12-1.54.96-2.58Z"/>
  <path class="cls-7" d="m229.18,191.51h-3.83c-.05-.56-.1-1-.15-1.5,1.24-.61,2.47-.38,3.63-.23.65.57.23,1.26.34,1.73Z"/>
  <path class="cls-6" d="m232.2,269.64h2c.48,1.23,1.77,2.33.66,3.84-.3.05-.61.11-1.23.22-.61-1.24-.36-2.94-1.43-4.06Z"/>
  <path class="cls-6" d="m218.2,145.64c-.67-.33-1.33-.67-2-1,.84-1.26,1.07-2.89,2.47-3.94,1.85,1.86-1.05,3.27-.47,4.94Z"/>
  <path class="cls-7" d="m229.19,242.52h-4.86c1.41-1.23,2.7-2.25,4.4-1.85.75.68.35,1.36.46,1.85Z"/>
  <path class="cls-4" d="m206.2,166.64c.61-.11.92.26.98.76.08.67.08,1.31,1.02,1.24-1.19.65-.23,3.36-2.99,2.92,1.34-1.59.94-3.29.99-4.92Z"/>
  <path class="cls-7" d="m206.2,93.64h-3.76c-.05-1.1.81-1.34,1.17-1.91.92.16,2.28-.96,2.59.91v1Z"/>
  <path class="cls-6" d="m207.2,146.64c1.7.31.97,2.24,2,3-1.64-.34-.44,2.72-2.48,1.96-1.39-.97,1.06-1.1.55-2.13-.38-.77-.07-1.87-.07-2.82Z"/>
  <path class="cls-6" d="m207.2,98.64c1.93.47.62,2.02,1,3,.19,1.4-.38,2.32-2.4,3.16,1.28-2.25,1.58-4.17,1.4-6.16Z"/>
  <path class="cls-6" d="m218.46,100.64c.5,1.35,1.28,2.16,2.92,2.45-1.34.87-2.58.47-3.91.46-.08-1.06,1.19-1.81.99-2.91Z"/>
  <path class="cls-9" d="m229.23,141.5h-2.88c-.05-.56-.09-1-.13-1.39.88-.79,1.79-.5,2.88-.22.04.54.09,1.14.13,1.62Z"/>
  <path class="cls-6" d="m210.2,168.64h1c.27.11.75.17.79.33.15.74.18,1.5.24,2.06-.43.7-.93.6-1.42.61-1.21-.78-.36-2.01-.6-3Z"/>
  <path class="cls-1" d="m207.2,197.64c.67.33,1.33.67,2,1-1.26.6-.09,3.49-3.18,2.81,1.47-1.13,1.14-2.5,1.18-3.81Z"/>
  <path class="cls-6" d="m210.2,198.64h1c.27.11.75.17.79.33.15.74.18,1.5.24,2.06-.43.7-.93.6-1.42.61-1.21-.78-.36-2.01-.6-3Z"/>
  <path class="cls-7" d="m218.46,198.64c.5,1.35,1.28,2.16,2.92,2.45-1.34.87-2.58.47-3.91.46-.08-1.06,1.19-1.81.99-2.91Z"/>
  <path class="cls-6" d="m218.2,245.64h-1c-.08-1.71-.21-3.44,2-4,.12,1.45-.05,2.82-1,4Z"/>
  <path class="cls-6" d="m241.2,141.2v-2.06c.78-1.04,1.8-.13,2.06-.29-.55.62-1.4,1.6-2.06,2.35Z"/>
  <path class="cls-7" d="m237.2,219.64h2c-.4,1.26-1.08,2.14-2.58,1.96-.6-.92-.85-1.69.58-1.96Z"/>
  <path class="cls-9" d="m233.57,168.72c.92.58,1.78,1.13,1.62,2.43-.47.58-1.03.61-1.66.33-.5-.9-.5-1.78.04-2.75Z"/>
  <path class="cls-6" d="m242.23,239.5c-.06,2.64.32,4.34-2.31,5.11.74-1.65,1.31-2.91,2.31-5.11Z"/>
  <path class="cls-6" d="m210.2,101.64c-.03-.69.31-1.03,1-1-.32,1.09,1.98,1.15.79,2.59-.27.49-.83.56-1.49.23-.59-.51-.19-1.21-.3-1.81Z"/>
  <path class="cls-6" d="m240.2,250.64c.69.03,1.03-.31,1-1,1.94.28.34,1.82,1.12,2.37-.69.76-1.24.77-2.12.27v-1.63Z"/>
  <path class="cls-6" d="m217.2,148.64h1c1.87.62.82,1.84.68,3.29-.68-1.32-1.18-2.31-1.68-3.29Z"/>
  <path class="cls-6" d="m206.2,93.64v-1c1.5.09.85,1.24,1,2v1c-1.5-.09-.85-1.24-1-2Z"/>
  <path class="cls-6" d="m219.2,270.64h1c-.12.94.29,1.94-.46,3.04-.87-.97-.42-2.07-.54-3.04Z"/>
  <path class="cls-9" d="m219.08,189.79v2.81q-.93-1.66,0-2.81Z"/>
  <path class="cls-6" d="m229.2,96.64c1.5.09.85,1.24,1,2-1.5-.09-.85-1.24-1-2Z"/>
  <path class="cls-6" d="m219.12,139.14c.82-.65,1.37-.69,1.96-.15-.41,1.09-1.05.79-1.96.15Z"/>
  <path class="cls-6" d="m240.61,143.57c-.63-.7-.67-1.69.14-1.85,1.02-.21.15.89.42,1.33.03.04-.35.34-.56.52Z"/>
  <path class="cls-6" d="m219.8,239.71c.62.69.66,1.68-.15,1.84-1.02.21-.15-.89-.42-1.33-.02-.04.36-.33.57-.51Z"/>
  <path class="cls-6" d="m241.08,149.23c1.43.99,1.08,1.65.95,2.41-1.29-.47-.65-1.37-.95-2.41Z"/>
  <path class="cls-9" d="m236.6,273.56c-.62-.69-.66-1.68.15-1.84,1.02-.21.15.89.42,1.33.02.04-.36.33-.57.51Z"/>
  <path class="cls-9" d="m219.8,187.71c.62.69.66,1.68-.15,1.84-1.02.21-.15-.89-.42-1.33-.02-.04.36-.33.57-.51Z"/>
  <path class="cls-9" d="m241.6,93.56c-.62-.69-.66-1.68.15-1.84,1.02-.21.15.89.42,1.33.02.04-.36.33-.57.51Z"/>
  <path class="cls-9" d="m219.08,169.23c1.43.99,1.08,1.65.95,2.41-1.29-.47-.65-1.37-.95-2.41Z"/>
  <path class="cls-6" d="m239.2,245.64h-1c-.04-.49.06-.93.66-.79.16.04.23.52.34.79Z"/>
  <path class="cls-7" d="m231.2,244.64h-1v-1c.69-.03,1.03.31,1,1Z"/>
  <path class="cls-7" d="m230.2,243.64c-.69.03-1.03-.31-1-1,.69-.03,1.03.31,1,1Z"/>
  <path class="cls-6" d="m242.21,240.63c-.09-.48.13-.78.59-.89.08-.02.31.22.29.29-.1.46-.41.68-.89.59Z"/>
  <path class="cls-1" d="m217.2,168.64c-.04-.49.06-.93.66-.79.16.04.23.52.34.79h-1Z"/>
  <path class="cls-6" d="m240.2,148.64h1v1c-.69.03-1.03-.31-1-1Z"/>
  <path class="cls-9" d="m230.2,142.64c-.69.03-1.03-.31-1-1,.69-.03,1.03.31,1,1Z"/>
  <path class="cls-9" d="m242.21,91.63c-.09-.48.13-.78.59-.89.08-.02.31.22.29.29-.1.46-.41.68-.89.59Z"/>
  <path class="cls-6" d="m241.2,146.64c-.69.03-1.03-.31-1-1,.69-.03,1.03.31,1,1Z"/>
  <path class="cls-9" d="m214.2,252.64c.09.48-.13.78-.59.89-.08.02-.31-.22-.29-.29.1-.46.41-.68.89-.59Z"/>
  <path class="cls-6" d="m209.2,198.64c-.04-.49.06-.93.66-.79.16.04.23.52.34.79h-1Z"/>
  <path class="cls-7" d="m230.2,195.64v1c-.49.04-.93-.06-.79-.66.04-.16.52-.23.79-.34Z"/>
  <path class="cls-7" d="m230.2,192.64c-.69.03-1.03-.31-1-1,.69-.03,1.03.31,1,1Z"/>
  <path class="cls-7" d="m230.2,246.64v1c-.49.04-.93-.06-.79-.66.04-.16.52-.23.79-.34Z"/>
</svg>